<svg width="337" height="337" viewBox="0 0 337 337" fill="none" xmlns="http://www.w3.org/2000/svg">
<path d="M263.009 215.914C265.529 218.433 269.836 216.648 269.836 213.085V16.1343C269.836 13.9252 271.627 12.1343 273.836 12.1343H332.347C334.557 12.1343 336.347 13.9252 336.347 16.1343V301.379C336.347 302.439 335.927 303.455 335.178 304.205L304.264 335.165C303.513 335.917 302.495 336.339 301.433 336.339H16.1222C13.9131 336.339 12.1222 334.548 12.1222 332.339V273.729C12.1222 271.52 13.9131 269.729 16.1222 269.729H213.035C216.599 269.729 218.383 265.419 215.863 262.9L1.17228 48.3088C-0.388537 46.7487 -0.390991 44.2193 1.16678 42.6561L42.5042 1.17649C44.0652 -0.389936 46.6011 -0.392412 48.1652 1.17096L263.009 215.914Z" fill="#EBEBEB"/>
</svg>
