<svg width="1200" height="441" viewBox="0 0 1200 441" fill="none" xmlns="http://www.w3.org/2000/svg">
<mask id="path-1-inside-1_71_2" fill="white">
<path d="M971.003 0C973.212 0 975.003 1.79086 975.003 4V73.3412C975.003 74.4021 974.581 75.4195 973.831 76.1696L929.172 120.829C928.421 121.58 928 122.597 928 123.658V195.341C928 196.402 928.421 197.419 929.172 198.17L973.831 242.83C974.582 243.581 975.003 244.598 975.003 245.659V317.342C975.003 318.403 974.581 319.42 973.831 320.171L929.172 364.83C928.421 365.581 928 366.598 928 367.659V437C928 439.209 926.209 441 924 441H4.00002C1.79088 441 0 439.209 0 437V3.99999C0 1.79085 1.79086 0 4 0H971.003Z"/>
</mask>
<path d="M929.172 364.83L923.515 359.174L929.172 364.83ZM973.831 320.171L979.488 325.827L973.831 320.171ZM973.831 242.83L979.488 237.174L973.831 242.83ZM929.172 198.17L923.515 203.826L929.172 198.17ZM929.172 120.829L923.515 115.173L929.172 120.829ZM973.831 76.1696L979.488 81.8265L973.831 76.1696ZM975.003 4H967.003V73.3412H975.003H983.003V4H975.003ZM973.831 76.1696L968.174 70.5128L923.515 115.173L929.172 120.829L934.828 126.486L979.488 81.8265L973.831 76.1696ZM928 123.658H920V195.341H928H936V123.658H928ZM929.172 198.17L923.515 203.826L968.174 248.487L973.831 242.83L979.488 237.174L934.828 192.513L929.172 198.17ZM975.003 245.659H967.003V317.342H975.003H983.003V245.659H975.003ZM973.831 320.171L968.174 314.514L923.515 359.174L929.172 364.83L934.828 370.487L979.488 325.827L973.831 320.171ZM928 367.659H920V437H928H936V367.659H928ZM924 441V433H4.00002V441V449H924V441ZM0 437H8V3.99999H0H-8V437H0ZM4 0V8H971.003V0V-8H4V0ZM0 3.99999H8C8 6.20915 6.20912 8 4 8V0V-8C-2.6274 -8 -8 -2.62744 -8 3.99999H0ZM4.00002 441V433C6.2091 433 8 434.791 8 437H0H-8C-8 443.627 -2.62733 449 4.00002 449V441ZM928 437H920C920 434.791 921.791 433 924 433V441V449C930.627 449 936 443.627 936 437H928ZM929.172 364.83L923.515 359.174C921.264 361.424 920 364.476 920 367.659H928H936C936 368.72 935.579 369.737 934.828 370.487L929.172 364.83ZM975.003 317.342H967.003C967.003 316.281 967.424 315.264 968.174 314.514L973.831 320.171L979.488 325.827C981.739 323.577 983.003 320.525 983.003 317.342H975.003ZM973.831 242.83L968.174 248.487C967.424 247.737 967.003 246.72 967.003 245.659H975.003H983.003C983.003 242.476 981.739 239.424 979.488 237.174L973.831 242.83ZM928 195.341H920C920 198.524 921.264 201.576 923.515 203.826L929.172 198.17L934.828 192.513C935.579 193.263 936 194.28 936 195.341H928ZM929.172 120.829L923.515 115.173C921.264 117.423 920 120.475 920 123.658H928H936C936 124.719 935.579 125.736 934.828 126.486L929.172 120.829ZM975.003 73.3412H967.003C967.003 72.2803 967.424 71.2629 968.174 70.5128L973.831 76.1696L979.488 81.8265C981.739 79.576 983.003 76.5238 983.003 73.3412H975.003ZM975.003 4H983.003C983.003 -2.62736 977.63 -8 971.003 -8V0V8C968.794 8 967.003 6.20908 967.003 4H975.003Z" fill="#FFBB0E" mask="url(#path-1-inside-1_71_2)"/>
<path d="M1046 73.3408V4C1046 1.79086 1047.79 0 1050 0H1195.61C1197.82 0 1199.61 1.79086 1199.61 4V437C1199.61 439.209 1197.82 441 1195.61 441H1003C1000.79 441 999 439.209 999 437V367.659C999 366.598 999.421 365.581 1000.17 364.831L1044.83 320.171C1045.58 319.421 1046 318.403 1046 317.342V245.658C1046 244.598 1045.58 243.58 1044.83 242.83L1000.17 198.17C999.421 197.42 999 196.402 999 195.342V123.658C999 122.597 999.421 121.579 1000.17 120.829L1044.83 76.1692C1045.58 75.4191 1046 74.4017 1046 73.3408Z" fill="#FFBB0E"/>
</svg>
