<svg width="348" height="374" viewBox="0 0 348 374" fill="none" xmlns="http://www.w3.org/2000/svg">
<path d="M48.0782 0.268555C48.4259 0.268555 48.773 0.30783 49.1193 0.384766L49.1281 0.386719L84.7296 9.4873H84.7316C86.3127 9.90086 87.6521 10.9543 88.4181 12.3994C88.9633 13.428 89.4432 14.3375 89.9493 15.2656L90.4679 16.2061L90.4738 16.2168L90.6583 16.6094C91.5324 18.5911 91.6585 20.8225 90.9366 22.8828C88.9601 28.5238 86.6896 35.4804 84.5187 42.2646V42.2656C82.3349 49.0354 80.2698 55.6144 78.7501 60.501C77.9904 62.9439 77.3671 64.9638 76.9337 66.373C76.717 67.0777 76.5477 67.6301 76.4327 68.0059C76.3816 68.1729 76.3408 68.3051 76.3116 68.4004C87.6393 76.8382 92.7262 85.2786 94.9738 91.6377C96.102 94.8299 96.5128 97.494 96.6417 99.3633C96.7061 100.298 96.7005 101.034 96.6779 101.538C96.6675 101.768 96.6518 101.95 96.6398 102.08L107.7 104.899H107.701C117.855 107.521 123.984 117.823 121.4 127.979L121.399 127.981L120.998 129.471L120.999 129.472C120.568 131.158 119.075 132.259 117.426 132.259C117.112 132.259 116.799 132.219 116.487 132.141H116.485L110.043 130.503H110.042L68.1056 119.764L68.0519 119.75L68.007 119.716C63.8349 116.469 59.4703 113.791 56.1466 111.925C54.4853 110.992 53.0851 110.262 52.1007 109.766C51.6087 109.518 51.22 109.329 50.9552 109.201C50.9143 109.181 50.8759 109.163 50.8409 109.146L50.1593 111.78L50.1583 111.779C49.7991 113.286 48.4511 114.275 46.9865 114.275C46.7057 114.275 46.4255 114.235 46.1476 114.155V114.154L20.673 107.642L20.6691 107.641C20.2499 107.526 19.8147 107.332 19.4845 107.048V107.049C18.4903 106.293 17.9774 104.947 18.2941 103.641L18.295 103.638L21.6613 90.5332C21.1944 89.0751 20.871 87.4436 20.6906 85.6396L20.6241 84.9014C20.3399 81.17 20.7666 76.8636 21.8986 72.4043L21.9005 72.3945L21.9044 72.3857C21.9167 72.3488 21.9227 72.3178 21.9318 72.2725C21.9408 72.227 21.9526 72.1659 21.9767 72.0938C23.7599 65.2991 26.8832 59.6742 30.3624 56.3848L38.2433 25.5166L43.8859 3.5293L43.9366 3.3457C44.4997 1.47133 46.1993 0.268555 48.0782 0.268555ZM48.0782 4.44727C48.0389 4.44727 48.0014 4.45986 47.9757 4.47754C47.952 4.49392 47.944 4.50993 47.9415 4.52246L47.9386 4.53613L42.5509 25.6494V25.6504L34.3966 57.5029L34.3956 57.5078C34.2011 58.2081 33.8126 58.8682 33.3068 59.374L33.3009 59.3799C31.5843 60.9892 29.9281 63.3611 28.5919 66.2139L28.589 66.2207C27.5064 68.386 26.6021 70.8422 25.9513 73.4453V73.4473C25.1918 76.413 24.7941 79.3767 24.7579 82.084V82.0879C24.6902 84.6623 24.9409 87.001 25.5314 88.9307L25.6534 89.3115L25.6544 89.3125C25.8913 90.0232 25.8885 90.7655 25.7355 91.4922L25.7325 91.5029L22.5675 103.839L46.3527 109.893L46.8702 107.825C47.1452 106.689 47.9288 105.752 48.9806 105.245L48.9913 105.24C49.5203 105.014 50.068 104.854 50.6632 104.854C51.2065 104.855 51.7956 104.971 52.3136 105.248C52.933 105.513 61.6349 109.596 69.9288 115.906L109.593 126.05H109.594L117.086 127.984L117.347 126.973L117.436 126.602C119.198 118.82 114.434 110.958 106.656 108.952V108.951L95.4083 106.076V106.075C93.4527 105.604 92.2048 103.727 92.4777 101.738C92.5461 101.183 94.0931 86.7512 73.6554 71.6309C72.3241 70.6516 71.7786 68.9311 72.2472 67.3691L72.2501 67.3584L72.255 67.3467C72.256 67.3437 72.2663 67.3111 72.2911 67.2324C72.3152 67.1563 72.3496 67.0481 72.3927 66.9092C72.4788 66.6314 72.6018 66.232 72.7579 65.7246C73.0702 64.71 73.5153 63.2629 74.0636 61.4883C75.1604 57.9386 76.6714 53.078 78.3644 47.7441C81.2519 38.6237 84.6512 28.1023 87.3761 20.4346C87.5256 20.0134 87.4975 19.5505 87.298 19.1514V19.1504L85.9923 16.7568L85.9913 16.7549L85.7325 16.2715C84.8668 14.6529 83.357 13.4755 81.5763 13.0303H81.5753L48.1544 4.45703C48.1295 4.45067 48.1039 4.44727 48.0782 4.44727Z" fill="#222222" stroke="#222222" stroke-width="0.538097"/>
<path d="M48.127 25.3132L48.207 25.4021C49.5898 26.9304 50.6361 28.0768 51.6826 29.2234C52.7292 30.3701 53.7765 31.5173 55.1602 33.0466L55.2402 33.1355L55.2285 33.2537C54.3919 41.7657 53.5821 54.6109 52.9814 65.3318C52.6812 70.6911 52.4327 75.5182 52.2598 79.0056C52.1733 80.7493 52.1056 82.1588 52.0596 83.1316C52.0365 83.6177 52.0197 83.995 52.0078 84.2507C52.0041 84.3299 52.0006 84.3974 51.998 84.4529C65.0728 89.8132 72.0964 96.7337 75.8516 102.344C77.7366 105.16 78.7956 107.642 79.3838 109.424C79.6778 110.314 79.855 111.03 79.958 111.525C80.0095 111.773 80.0421 111.965 80.0625 112.096V112.098H91.4004C101.887 112.099 110.38 120.592 110.38 131.079V132.607C110.38 134.649 108.731 136.298 106.689 136.299H56.6875L56.6367 136.276C51.7936 134.154 46.9021 132.637 43.2197 131.652C41.3792 131.16 39.8414 130.801 38.7646 130.564C38.2263 130.446 37.8029 130.358 37.5146 130.301C37.4708 130.292 37.4301 130.284 37.3926 130.276V132.971C37.3926 134.795 35.9247 136.262 34.1016 136.262H7.81836C5.99538 136.262 4.52832 134.794 4.52832 132.971V119.433C1.93309 115.335 0.268555 108.977 0.268555 101.81C0.268604 94.6435 1.93296 88.2857 4.52832 84.1873V29.6238C4.52832 27.2546 6.46874 25.3133 8.83789 25.3132H48.127Z" fill="#222222" stroke="#222222" stroke-width="0.538097"/>
<mask id="path-3-outside-1_63_1776" maskUnits="userSpaceOnUse" x="223.689" y="7.87451" width="116" height="148" fill="black">
<rect fill="white" x="223.689" y="7.87451" width="116" height="148"/>
<path d="M324.553 30.7163C323.352 28.6049 322.042 26.6028 320.513 24.7826C319.02 22.9625 317.346 21.2879 315.562 19.8318L313.014 22.38C314.725 23.7997 316.29 25.3651 317.71 27.076C319.311 29.0054 320.658 31.1167 321.859 33.4101C326.046 41.5644 327.611 51.8664 326.519 64.2071C326.519 64.2071 326.519 64.2798 326.483 64.4255C326.446 64.7167 326.373 65.3719 326.228 66.6825C326.119 68.0658 325.937 69.4491 325.682 70.8688C325.573 71.4512 325.5 72.1429 325.391 72.8709C325.391 72.9438 325.354 73.0166 325.354 73.0894V73.1986C325.354 73.599 325.5 74.0359 325.791 74.3635C326.119 74.7639 326.592 74.9459 327.102 74.9823C327.138 74.3271 327.138 73.7082 327.174 73.1622C328.194 65.6632 328.303 64.3891 328.303 64.3891C328.303 64.3891 328.994 64.5347 330.087 64.8259C330.159 64.207 330.232 63.6246 330.269 63.0057C331.215 50.0827 329.286 39.271 324.553 30.7163ZM335.511 75.0187C333.872 73.235 331.652 71.9973 329.286 71.5605C329.541 69.8859 329.759 68.2478 329.905 66.646C330.014 66.0272 330.05 65.4083 330.087 64.8259C330.159 64.207 330.232 63.6246 330.269 63.0057C331.215 50.0827 329.286 39.271 324.553 30.7163C323.352 28.6049 322.042 26.6028 320.513 24.7826C319.02 22.9625 317.346 21.2879 315.562 19.8318C313.378 17.9388 310.939 16.3371 308.281 14.9538C301.037 11.1679 292.118 9.12933 281.598 8.87451H281.525C264.015 9.27494 250.946 14.6626 242.61 24.7826C234.966 34.0654 231.689 46.9156 232.854 63.0057C232.891 63.6246 232.963 64.207 233.036 64.8259C233.073 65.4083 233.109 66.0272 233.218 66.646C233.364 68.2478 233.582 69.8859 233.837 71.5605C231.471 71.9973 229.25 73.235 227.612 75.0187C225.501 77.3485 224.445 80.4792 224.736 83.5734C225.137 87.869 225.719 91.9097 226.52 95.5864C226.593 95.8777 226.666 96.1689 226.775 96.4601C227.539 99.4087 229.177 102.03 231.362 104.068C232.927 105.561 234.784 106.726 236.822 107.527C236.968 108.109 237.186 108.946 237.477 110.002C237.623 110.584 237.805 111.276 238.06 112.004C238.205 112.623 238.424 113.278 238.642 113.97C238.861 114.589 239.079 115.28 239.298 115.972C244.212 130.06 256.407 154.887 281.561 154.887C307.99 154.887 320.076 127.548 324.48 113.97C324.699 113.278 324.917 112.623 325.063 112.004C325.318 111.276 325.5 110.584 325.645 110.002C325.937 108.946 326.155 108.109 326.301 107.527C331.543 105.488 335.438 101.01 336.603 95.5864C337.404 91.9461 337.986 87.9054 338.386 83.5734C338.678 80.4792 337.622 77.3485 335.511 75.0187ZM333.035 94.7855C332.307 98.2802 330.05 101.302 326.956 103.122C326.337 103.486 325.682 103.813 324.99 104.068C324.735 104.178 324.48 104.287 324.189 104.36C323.57 104.578 323.097 105.088 322.952 105.743V105.925L322.842 106.252C322.66 107.053 322.26 108.764 321.568 111.094L321.423 111.495C317.71 123.762 306.534 151.21 281.561 151.21C256.589 151.21 246.36 125.947 242.173 113.06C242.028 112.514 241.846 112.004 241.7 111.495L241.554 111.094C240.863 108.764 240.462 107.053 240.28 106.252L240.208 105.925V105.743C240.026 105.088 239.552 104.578 238.933 104.36C238.642 104.287 238.387 104.178 238.133 104.068C237.441 103.813 236.786 103.486 236.167 103.122C235.33 102.649 234.602 102.066 233.91 101.447C231.981 99.6999 230.634 97.3702 230.088 94.822C229.978 94.3487 229.906 93.8755 229.796 93.4022C229.177 90.2352 228.704 86.8133 228.34 83.2094C228.158 81.098 228.85 79.0595 230.306 77.4577C231.362 76.2928 232.709 75.492 234.201 75.1643C234.784 75.0187 235.366 74.9459 235.948 74.9459H236.021C236.531 74.9095 237.004 74.7275 237.332 74.3271C237.623 73.9995 237.769 73.5626 237.769 73.1622C237.769 73.053 237.769 72.9438 237.732 72.8346C237.332 70.3956 237.004 67.993 236.786 65.736C236.786 65.2991 236.713 64.9715 236.676 64.7531C236.64 64.3527 236.604 64.207 236.604 64.1706C235.22 48.3717 238.169 35.8855 245.413 27.0396C253.058 17.7932 265.216 12.8788 281.561 12.4784C290.953 12.6968 298.998 14.4442 305.551 17.6476C308.281 18.9581 310.793 20.5235 313.014 22.3436C314.725 23.7633 316.29 25.3287 317.71 27.0396C319.311 28.969 320.658 31.0803 321.859 33.3737C326.046 41.528 327.611 51.83 326.519 64.1706C326.519 64.1706 326.519 64.2435 326.483 64.3891C326.446 64.6803 326.373 65.3355 326.228 66.646C326.119 68.0294 325.937 69.4127 325.682 70.8324C325.573 71.4148 325.5 72.1065 325.391 72.8346C325.391 72.9074 325.354 72.9802 325.354 73.053V73.1622C325.354 73.5626 325.5 73.9995 325.791 74.3271C326.119 74.7275 326.592 74.9095 327.102 74.9459H327.174C327.757 74.9459 328.339 75.0187 328.922 75.1643C330.414 75.492 331.761 76.2928 332.817 77.4577C334.273 79.0595 334.965 81.098 334.783 83.2094C334.382 87.3593 333.8 91.2909 333.035 94.7855ZM324.553 30.7163L321.859 33.4101C326.046 41.5644 327.611 51.8664 326.519 64.2071C326.519 64.2071 326.519 64.2798 326.483 64.4255C326.446 64.7167 326.373 65.3719 326.228 66.6825C326.119 68.0658 325.937 69.4491 325.682 70.8688C325.573 71.4512 325.5 72.1429 325.391 72.8709C325.391 72.9438 325.354 73.0166 325.354 73.0894V73.1986C325.354 73.599 325.5 74.0359 325.791 74.3635C326.119 74.7639 326.592 74.9459 327.102 74.9823C327.138 74.3271 327.138 73.7082 327.174 73.1622C328.194 65.6632 328.303 64.3891 328.303 64.3891C328.303 64.3891 328.994 64.5347 330.087 64.8259C330.159 64.207 330.232 63.6246 330.269 63.0057C331.215 50.0827 329.286 39.271 324.553 30.7163Z"/>
</mask>
<path d="M324.553 30.7163C323.352 28.6049 322.042 26.6028 320.513 24.7826C319.02 22.9625 317.346 21.2879 315.562 19.8318L313.014 22.38C314.725 23.7997 316.29 25.3651 317.71 27.076C319.311 29.0054 320.658 31.1167 321.859 33.4101C326.046 41.5644 327.611 51.8664 326.519 64.2071C326.519 64.2071 326.519 64.2798 326.483 64.4255C326.446 64.7167 326.373 65.3719 326.228 66.6825C326.119 68.0658 325.937 69.4491 325.682 70.8688C325.573 71.4512 325.5 72.1429 325.391 72.8709C325.391 72.9438 325.354 73.0166 325.354 73.0894V73.1986C325.354 73.599 325.5 74.0359 325.791 74.3635C326.119 74.7639 326.592 74.9459 327.102 74.9823C327.138 74.3271 327.138 73.7082 327.174 73.1622C328.194 65.6632 328.303 64.3891 328.303 64.3891C328.303 64.3891 328.994 64.5347 330.087 64.8259C330.159 64.207 330.232 63.6246 330.269 63.0057C331.215 50.0827 329.286 39.271 324.553 30.7163ZM335.511 75.0187C333.872 73.235 331.652 71.9973 329.286 71.5605C329.541 69.8859 329.759 68.2478 329.905 66.646C330.014 66.0272 330.05 65.4083 330.087 64.8259C330.159 64.207 330.232 63.6246 330.269 63.0057C331.215 50.0827 329.286 39.271 324.553 30.7163C323.352 28.6049 322.042 26.6028 320.513 24.7826C319.02 22.9625 317.346 21.2879 315.562 19.8318C313.378 17.9388 310.939 16.3371 308.281 14.9538C301.037 11.1679 292.118 9.12933 281.598 8.87451H281.525C264.015 9.27494 250.946 14.6626 242.61 24.7826C234.966 34.0654 231.689 46.9156 232.854 63.0057C232.891 63.6246 232.963 64.207 233.036 64.8259C233.073 65.4083 233.109 66.0272 233.218 66.646C233.364 68.2478 233.582 69.8859 233.837 71.5605C231.471 71.9973 229.25 73.235 227.612 75.0187C225.501 77.3485 224.445 80.4792 224.736 83.5734C225.137 87.869 225.719 91.9097 226.52 95.5864C226.593 95.8777 226.666 96.1689 226.775 96.4601C227.539 99.4087 229.177 102.03 231.362 104.068C232.927 105.561 234.784 106.726 236.822 107.527C236.968 108.109 237.186 108.946 237.477 110.002C237.623 110.584 237.805 111.276 238.06 112.004C238.205 112.623 238.424 113.278 238.642 113.97C238.861 114.589 239.079 115.28 239.298 115.972C244.212 130.06 256.407 154.887 281.561 154.887C307.99 154.887 320.076 127.548 324.48 113.97C324.699 113.278 324.917 112.623 325.063 112.004C325.318 111.276 325.5 110.584 325.645 110.002C325.937 108.946 326.155 108.109 326.301 107.527C331.543 105.488 335.438 101.01 336.603 95.5864C337.404 91.9461 337.986 87.9054 338.386 83.5734C338.678 80.4792 337.622 77.3485 335.511 75.0187ZM333.035 94.7855C332.307 98.2802 330.05 101.302 326.956 103.122C326.337 103.486 325.682 103.813 324.99 104.068C324.735 104.178 324.48 104.287 324.189 104.36C323.57 104.578 323.097 105.088 322.952 105.743V105.925L322.842 106.252C322.66 107.053 322.26 108.764 321.568 111.094L321.423 111.495C317.71 123.762 306.534 151.21 281.561 151.21C256.589 151.21 246.36 125.947 242.173 113.06C242.028 112.514 241.846 112.004 241.7 111.495L241.554 111.094C240.863 108.764 240.462 107.053 240.28 106.252L240.208 105.925V105.743C240.026 105.088 239.552 104.578 238.933 104.36C238.642 104.287 238.387 104.178 238.133 104.068C237.441 103.813 236.786 103.486 236.167 103.122C235.33 102.649 234.602 102.066 233.91 101.447C231.981 99.6999 230.634 97.3702 230.088 94.822C229.978 94.3487 229.906 93.8755 229.796 93.4022C229.177 90.2352 228.704 86.8133 228.34 83.2094C228.158 81.098 228.85 79.0595 230.306 77.4577C231.362 76.2928 232.709 75.492 234.201 75.1643C234.784 75.0187 235.366 74.9459 235.948 74.9459H236.021C236.531 74.9095 237.004 74.7275 237.332 74.3271C237.623 73.9995 237.769 73.5626 237.769 73.1622C237.769 73.053 237.769 72.9438 237.732 72.8346C237.332 70.3956 237.004 67.993 236.786 65.736C236.786 65.2991 236.713 64.9715 236.676 64.7531C236.64 64.3527 236.604 64.207 236.604 64.1706C235.22 48.3717 238.169 35.8855 245.413 27.0396C253.058 17.7932 265.216 12.8788 281.561 12.4784C290.953 12.6968 298.998 14.4442 305.551 17.6476C308.281 18.9581 310.793 20.5235 313.014 22.3436C314.725 23.7633 316.29 25.3287 317.71 27.0396C319.311 28.969 320.658 31.0803 321.859 33.3737C326.046 41.528 327.611 51.83 326.519 64.1706C326.519 64.1706 326.519 64.2435 326.483 64.3891C326.446 64.6803 326.373 65.3355 326.228 66.646C326.119 68.0294 325.937 69.4127 325.682 70.8324C325.573 71.4148 325.5 72.1065 325.391 72.8346C325.391 72.9074 325.354 72.9802 325.354 73.053V73.1622C325.354 73.5626 325.5 73.9995 325.791 74.3271C326.119 74.7275 326.592 74.9095 327.102 74.9459H327.174C327.757 74.9459 328.339 75.0187 328.922 75.1643C330.414 75.492 331.761 76.2928 332.817 77.4577C334.273 79.0595 334.965 81.098 334.783 83.2094C334.382 87.3593 333.8 91.2909 333.035 94.7855ZM324.553 30.7163L321.859 33.4101C326.046 41.5644 327.611 51.8664 326.519 64.2071C326.519 64.2071 326.519 64.2798 326.483 64.4255C326.446 64.7167 326.373 65.3719 326.228 66.6825C326.119 68.0658 325.937 69.4491 325.682 70.8688C325.573 71.4512 325.5 72.1429 325.391 72.8709C325.391 72.9438 325.354 73.0166 325.354 73.0894V73.1986C325.354 73.599 325.5 74.0359 325.791 74.3635C326.119 74.7639 326.592 74.9459 327.102 74.9823C327.138 74.3271 327.138 73.7082 327.174 73.1622C328.194 65.6632 328.303 64.3891 328.303 64.3891C328.303 64.3891 328.994 64.5347 330.087 64.8259C330.159 64.207 330.232 63.6246 330.269 63.0057C331.215 50.0827 329.286 39.271 324.553 30.7163Z" fill="#222222"/>
<path d="M324.553 30.7163L324.789 30.5861L324.787 30.5833L324.553 30.7163ZM320.513 24.7826L320.305 24.9532L320.307 24.9557L320.513 24.7826ZM326.519 64.2071L326.251 64.1833L326.25 64.1952L326.25 64.2071L326.519 64.2071ZM326.483 64.4255L326.222 64.3602L326.218 64.376L326.216 64.3921L326.483 64.4255ZM326.228 66.6825L325.96 66.6527L325.96 66.6613L326.228 66.6825ZM325.682 70.8688L325.946 70.9184L325.947 70.9163L325.682 70.8688ZM325.391 72.8709L325.124 72.831L325.122 72.8509V72.8709H325.391ZM325.791 74.3635L325.999 74.193L325.992 74.1847L325.791 74.3635ZM327.102 74.9823L327.082 75.2507L327.355 75.2702L327.37 74.9973L327.102 74.9823ZM327.174 73.1622L326.908 73.1259L326.907 73.1351L326.906 73.1443L327.174 73.1622ZM328.303 64.3891L328.358 64.1258L328.061 64.0631L328.035 64.3661L328.303 64.3891ZM330.087 64.8259L330.017 65.0859L330.317 65.1659L330.354 64.8573L330.087 64.8259ZM330.269 63.0057L330 62.9861L330 62.9899L330.269 63.0057ZM324.553 30.7163L324.787 30.5833C323.581 28.4627 322.261 26.4459 320.719 24.6096L320.513 24.7826L320.307 24.9557C321.822 26.7596 323.123 28.7472 324.319 30.8494L324.553 30.7163ZM320.513 24.7826L320.721 24.612C319.217 22.7783 317.53 21.0911 315.732 19.6234L315.562 19.8318L315.392 20.0402C317.161 21.4848 318.823 23.1466 320.305 24.9532L320.513 24.7826ZM321.859 33.4101L321.62 33.533C325.777 41.629 327.34 51.8763 326.251 64.1833L326.519 64.2071L326.787 64.2308C327.882 51.8566 326.315 41.4998 322.099 33.2872L321.859 33.4101ZM326.519 64.2071C326.25 64.2071 326.25 64.2071 326.25 64.207C326.25 64.207 326.25 64.2069 326.25 64.2069C326.25 64.2068 326.25 64.2067 326.25 64.2066C326.25 64.2064 326.25 64.2063 326.25 64.2061C326.25 64.2058 326.25 64.2055 326.25 64.2052C326.25 64.2047 326.25 64.2042 326.25 64.2038C326.25 64.2029 326.25 64.2024 326.25 64.2021C326.25 64.2016 326.25 64.2022 326.25 64.204C326.25 64.2075 326.249 64.2156 326.248 64.2283C326.244 64.2537 326.237 64.2977 326.222 64.3602L326.483 64.4255L326.744 64.4907C326.764 64.4076 326.776 64.3424 326.781 64.295C326.784 64.2713 326.786 64.2521 326.787 64.2374C326.787 64.2301 326.788 64.2239 326.788 64.2188C326.788 64.2163 326.788 64.214 326.788 64.212C326.788 64.2111 326.788 64.2101 326.788 64.2093C326.788 64.2089 326.788 64.2085 326.788 64.2081C326.788 64.2079 326.788 64.2077 326.788 64.2075C326.788 64.2074 326.788 64.2073 326.788 64.2072C326.788 64.2072 326.788 64.2071 326.788 64.2071C326.788 64.207 326.788 64.207 326.519 64.2071ZM326.483 64.4255L326.216 64.3921C326.179 64.6857 326.106 65.3438 325.96 66.6527L326.228 66.6825L326.495 66.7122C326.641 65.4001 326.714 64.7477 326.75 64.4588L326.483 64.4255ZM326.228 66.6825L325.96 66.6613C325.851 68.0351 325.67 69.4096 325.417 70.8213L325.682 70.8688L325.947 70.9163C326.203 69.4885 326.386 68.0964 326.496 66.7036L326.228 66.6825ZM325.682 70.8688L325.417 70.8192C325.307 71.406 325.231 72.1218 325.124 72.831L325.391 72.8709L325.657 72.9109C325.769 72.1639 325.838 71.4964 325.946 70.9184L325.682 70.8688ZM325.391 72.8709H325.122C325.122 72.8685 325.122 72.8722 325.111 72.9149C325.104 72.945 325.085 73.0141 325.085 73.0894H325.354H325.623C325.623 73.0919 325.623 73.0881 325.633 73.0454C325.641 73.0153 325.66 72.9462 325.66 72.8709H325.391ZM325.354 73.0894H325.085V73.1986H325.354H325.623V73.0894H325.354ZM325.354 73.1986H325.085C325.085 73.6592 325.251 74.1613 325.59 74.5422L325.791 74.3635L325.992 74.1847C325.748 73.9105 325.623 73.5388 325.623 73.1986H325.354ZM325.791 74.3635L325.583 74.5339C325.97 75.0074 326.522 75.2107 327.082 75.2507L327.102 74.9823L327.121 74.714C326.662 74.6812 326.267 74.5204 325.999 74.1931L325.791 74.3635ZM327.102 74.9823L327.37 74.9973C327.389 74.6655 327.398 74.3434 327.407 74.0393C327.416 73.7337 327.425 73.4474 327.443 73.1801L327.174 73.1622L326.906 73.1443C326.887 73.423 326.878 73.7191 326.869 74.0233C326.86 74.329 326.851 74.6439 326.833 74.9674L327.102 74.9823ZM327.174 73.1622L327.441 73.1984C327.951 69.4483 328.233 67.2538 328.388 65.9964C328.465 65.3677 328.511 64.9729 328.537 64.7349C328.55 64.6159 328.559 64.5359 328.564 64.4854C328.566 64.4601 328.568 64.4422 328.569 64.4304C328.57 64.4245 328.57 64.4201 328.57 64.4171C328.571 64.4156 328.571 64.4144 328.571 64.4136C328.571 64.4132 328.571 64.4128 328.571 64.4126C328.571 64.4124 328.571 64.4123 328.571 64.4122C328.571 64.4122 328.571 64.4122 328.571 64.4121C328.571 64.4121 328.571 64.412 328.303 64.3891C328.035 64.3661 328.035 64.3661 328.035 64.366C328.035 64.366 328.035 64.366 328.035 64.366C328.035 64.366 328.035 64.366 328.035 64.366C328.035 64.3661 328.035 64.3662 328.035 64.3664C328.035 64.3669 328.035 64.3677 328.035 64.3688C328.034 64.3711 328.034 64.3748 328.033 64.38C328.032 64.3906 328.031 64.4073 328.028 64.4315C328.024 64.48 328.015 64.5582 328.002 64.6757C327.976 64.911 327.931 65.3034 327.854 65.9306C327.699 67.185 327.417 69.3771 326.908 73.1259L327.174 73.1622ZM328.303 64.3891C328.247 64.6523 328.247 64.6523 328.247 64.6523C328.247 64.6523 328.247 64.6523 328.247 64.6523C328.247 64.6524 328.248 64.6524 328.248 64.6524C328.248 64.6525 328.248 64.6526 328.249 64.6527C328.25 64.653 328.252 64.6534 328.255 64.6539C328.26 64.655 328.268 64.6566 328.278 64.6589C328.298 64.6633 328.329 64.67 328.37 64.679C328.45 64.697 328.57 64.724 328.724 64.7602C329.031 64.8324 329.474 64.941 330.017 65.0859L330.087 64.8259L330.156 64.5659C329.607 64.4196 329.158 64.3097 328.847 64.2364C328.691 64.1997 328.569 64.1721 328.486 64.1537C328.445 64.1445 328.413 64.1376 328.392 64.1329C328.381 64.1306 328.373 64.1288 328.367 64.1276C328.364 64.127 328.362 64.1266 328.361 64.1263C328.36 64.1261 328.359 64.126 328.359 64.1259C328.359 64.1259 328.359 64.1259 328.358 64.1258C328.358 64.1258 328.358 64.1258 328.358 64.1258C328.358 64.1258 328.358 64.1258 328.358 64.1258C328.358 64.1258 328.358 64.1258 328.303 64.3891ZM330.087 64.8259L330.354 64.8573C330.426 64.2415 330.5 63.65 330.537 63.0215L330.269 63.0057L330 62.9899C329.964 63.5991 329.893 64.1726 329.819 64.7945L330.087 64.8259ZM330.269 63.0057L330.537 63.0254C331.486 50.0664 329.553 39.1988 324.789 30.5861L324.553 30.7163L324.318 30.8465C329.018 39.3432 330.944 50.099 330 62.9861L330.269 63.0057ZM315.562 19.8318L315.942 20.2123L316.351 19.8037L315.914 19.4252L315.562 19.8318ZM313.014 22.38L312.633 21.9995L312.216 22.4171L312.67 22.7941L313.014 22.38ZM317.71 27.076L317.295 27.4196L317.296 27.4197L317.71 27.076ZM321.859 33.4101L321.383 33.6598L321.722 34.3082L322.24 33.7906L321.859 33.4101ZM335.511 75.0187L335.909 74.6574L335.907 74.6548L335.511 75.0187ZM329.286 71.5605L328.754 71.4795L328.675 71.995L329.188 72.0896L329.286 71.5605ZM329.905 66.646L329.375 66.5525L329.371 66.5748L329.369 66.5973L329.905 66.646ZM308.281 14.9538L308.032 15.4307L308.033 15.4311L308.281 14.9538ZM281.598 8.87451L281.611 8.33641H281.598V8.87451ZM281.525 8.87451V8.33627L281.513 8.33656L281.525 8.87451ZM242.61 24.7826L242.195 24.4405L242.195 24.4405L242.61 24.7826ZM232.854 63.0057L233.391 62.9741L233.391 62.9669L232.854 63.0057ZM233.036 64.8259L233.573 64.7923L233.572 64.7776L233.571 64.763L233.036 64.8259ZM233.218 66.646L233.754 66.5973L233.752 66.5748L233.748 66.5525L233.218 66.646ZM233.837 71.5605L233.935 72.0896L234.447 71.995L234.369 71.4795L233.837 71.5605ZM227.612 75.0187L227.216 74.6547L227.213 74.6574L227.612 75.0187ZM224.736 83.5734L225.272 83.5235L225.272 83.523L224.736 83.5734ZM226.52 95.5864L225.994 95.701L225.996 95.709L225.998 95.7169L226.52 95.5864ZM226.775 96.4601L227.296 96.3251L227.289 96.2977L227.279 96.2712L226.775 96.4601ZM231.362 104.068L231.733 103.679L231.729 103.675L231.362 104.068ZM236.822 107.527L237.344 107.396L237.277 107.127L237.019 107.026L236.822 107.527ZM237.477 110.002L238 109.871L237.996 109.859L237.477 110.002ZM238.06 112.004L238.584 111.881L238.577 111.853L238.568 111.826L238.06 112.004ZM238.642 113.97L238.129 114.132L238.132 114.141L238.135 114.149L238.642 113.97ZM239.298 115.972L238.784 116.134L238.787 116.142L238.789 116.149L239.298 115.972ZM324.48 113.97L324.992 114.136L324.994 114.132L324.48 113.97ZM325.063 112.004L324.555 111.826L324.546 111.853L324.539 111.881L325.063 112.004ZM325.645 110.002L325.127 109.859L325.123 109.872L325.645 110.002ZM326.301 107.527L326.106 107.025L325.846 107.126L325.779 107.396L326.301 107.527ZM336.603 95.5864L336.077 95.4708L336.077 95.4734L336.603 95.5864ZM338.386 83.5734L337.851 83.523L337.851 83.5239L338.386 83.5734ZM333.035 94.7855L332.51 94.6706L332.508 94.6758L333.035 94.7855ZM326.956 103.122L326.683 102.658L326.956 103.122ZM324.99 104.068L324.804 103.563L324.791 103.568L324.778 103.574L324.99 104.068ZM324.189 104.36L324.059 103.838L324.034 103.844L324.01 103.852L324.189 104.36ZM322.952 105.743L322.426 105.626L322.413 105.684V105.743H322.952ZM322.952 105.925L323.462 106.095L323.49 106.012V105.925H322.952ZM322.842 106.252L322.332 106.082L322.324 106.107L322.318 106.133L322.842 106.252ZM321.568 111.094L322.074 111.278L322.08 111.263L322.084 111.247L321.568 111.094ZM321.423 111.495L320.917 111.311L320.912 111.324L320.908 111.339L321.423 111.495ZM242.173 113.06L241.653 113.198L241.657 113.212L241.662 113.226L242.173 113.06ZM241.7 111.495L242.218 111.347L242.212 111.328L242.206 111.311L241.7 111.495ZM241.554 111.094L241.039 111.247L241.043 111.263L241.049 111.278L241.554 111.094ZM240.28 106.252L239.755 106.369L239.756 106.372L240.28 106.252ZM240.208 105.925H239.669V105.984L239.682 106.042L240.208 105.925ZM240.208 105.743H240.746V105.669L240.726 105.599L240.208 105.743ZM238.933 104.36L239.113 103.852L239.089 103.844L239.064 103.838L238.933 104.36ZM238.133 104.068L238.345 103.574L238.332 103.568L238.319 103.563L238.133 104.068ZM236.167 103.122L236.44 102.658L236.432 102.653L236.167 103.122ZM233.91 101.447L233.549 101.846L233.551 101.848L233.91 101.447ZM230.088 94.822L230.614 94.7092L230.612 94.701L230.088 94.822ZM229.796 93.4022L229.268 93.5054L229.27 93.5144L229.272 93.5232L229.796 93.4022ZM228.34 83.2094L227.804 83.2556L227.805 83.2635L228.34 83.2094ZM230.306 77.4577L230.704 77.8197L230.705 77.8191L230.306 77.4577ZM234.201 75.1643L234.316 75.6899L234.324 75.6883L234.332 75.6864L234.201 75.1643ZM236.021 74.9459V75.484H236.04L236.06 75.4827L236.021 74.9459ZM237.332 74.3271L236.93 73.9696L236.922 73.9778L236.915 73.9863L237.332 74.3271ZM237.732 72.8346L237.201 72.9217L237.208 72.964L237.222 73.0047L237.732 72.8346ZM236.786 65.736H236.248V65.7619L236.25 65.7878L236.786 65.736ZM236.676 64.7531L236.141 64.8018L236.142 64.8218L236.146 64.8415L236.676 64.7531ZM236.604 64.1706H237.142V64.1471L237.14 64.1237L236.604 64.1706ZM245.413 27.0396L244.998 26.6967L244.997 26.6987L245.413 27.0396ZM281.561 12.4784L281.574 11.9405L281.561 11.9402L281.548 11.9405L281.561 12.4784ZM305.551 17.6476L305.315 18.1311L305.318 18.1327L305.551 17.6476ZM313.014 22.3436L313.357 21.9295L313.355 21.9275L313.014 22.3436ZM317.71 27.0396L317.295 27.3832L317.296 27.3833L317.71 27.0396ZM321.859 33.3737L322.338 33.128L322.336 33.124L321.859 33.3737ZM326.519 64.1706L325.983 64.1232L325.981 64.1469L325.981 64.1708L326.519 64.1706ZM326.483 64.3891L325.961 64.2586L325.953 64.2901L325.949 64.3223L326.483 64.3891ZM326.228 66.646L325.693 66.5866L325.692 66.5951L325.691 66.6037L326.228 66.646ZM325.682 70.8324L326.211 70.9316L326.211 70.9275L325.682 70.8324ZM325.391 72.8346L324.858 72.7547L324.852 72.7944V72.8346H325.391ZM325.791 74.3271L326.207 73.9863L326.201 73.9778L326.193 73.9696L325.791 74.3271ZM327.102 74.9459L327.063 75.4827L327.082 75.484H327.102V74.9459ZM328.922 75.1643L328.791 75.6864L328.799 75.6883L328.806 75.6899L328.922 75.1643ZM332.817 77.4577L332.418 77.8191L332.419 77.8197L332.817 77.4577ZM334.783 83.2094L335.318 83.2611L335.319 83.2556L334.783 83.2094ZM315.562 19.8318L315.181 19.4513L312.633 21.9995L313.014 22.38L313.394 22.7605L315.942 20.2123L315.562 19.8318ZM313.014 22.38L312.67 22.7941C314.355 24.1926 315.897 25.7343 317.295 27.4196L317.71 27.076L318.124 26.7324C316.683 24.9958 315.094 23.4069 313.357 21.9659L313.014 22.38ZM317.71 27.076L317.296 27.4197C318.868 29.3144 320.195 31.3927 321.383 33.6598L321.859 33.4101L322.336 33.1604C321.121 30.8408 319.754 28.6964 318.124 26.7323L317.71 27.076ZM335.511 75.0187L335.907 74.6548C334.191 72.7862 331.866 71.4896 329.383 71.0313L329.286 71.5605L329.188 72.0896C331.438 72.5049 333.554 73.6837 335.114 75.3827L335.511 75.0187ZM329.286 71.5605L329.818 71.6414C330.073 69.9611 330.293 68.3113 330.44 66.6948L329.905 66.646L329.369 66.5973C329.224 68.1843 329.008 69.8108 328.754 71.4795L329.286 71.5605ZM329.905 66.646L330.434 66.7396C330.55 66.0856 330.588 65.4356 330.624 64.8595L330.087 64.8259L329.55 64.7923C329.513 65.3811 329.478 65.9688 329.375 66.5525L329.905 66.646ZM315.562 19.8318L315.914 19.4252C313.694 17.5006 311.218 15.8761 308.53 14.4765L308.281 14.9538L308.033 15.4311C310.659 16.7981 313.062 18.3771 315.209 20.2384L315.562 19.8318ZM308.281 14.9538L308.53 14.4769C301.196 10.6436 292.191 8.59284 281.611 8.33657L281.598 8.87451L281.585 9.41245C292.045 9.66582 300.878 11.6921 308.032 15.4307L308.281 14.9538ZM281.598 8.87451V8.33641H281.525V8.87451V9.41261H281.598V8.87451ZM281.525 8.87451L281.513 8.33656C263.9 8.73934 250.66 14.1637 242.195 24.4405L242.61 24.7826L243.026 25.1247C251.233 15.1614 264.13 9.81055 281.537 9.41247L281.525 8.87451ZM242.61 24.7826L242.195 24.4405C234.436 33.8623 231.146 46.865 232.317 63.0446L232.854 63.0057L233.391 62.9669C232.232 46.9663 235.495 34.2684 243.026 25.1247L242.61 24.7826ZM232.854 63.0057L232.317 63.0373C232.355 63.6755 232.43 64.276 232.502 64.8888L233.036 64.8259L233.571 64.763C233.497 64.1381 233.427 63.5737 233.391 62.9741L232.854 63.0057ZM233.036 64.8259L232.499 64.8595C232.535 65.4356 232.573 66.0856 232.688 66.7396L233.218 66.646L233.748 66.5525C233.645 65.9688 233.61 65.3811 233.573 64.7923L233.036 64.8259ZM233.218 66.646L232.682 66.6948C232.829 68.3113 233.049 69.9611 233.305 71.6414L233.837 71.5605L234.369 71.4795C234.115 69.8108 233.898 68.1843 233.754 66.5973L233.218 66.646ZM233.837 71.5605L233.739 71.0313C231.257 71.4896 228.932 72.7862 227.216 74.6548L227.612 75.0187L228.008 75.3827C229.569 73.6837 231.685 72.5049 233.935 72.0896L233.837 71.5605ZM227.612 75.0187L227.213 74.6574C225.002 77.0972 223.895 80.3766 224.201 83.6239L224.736 83.5734L225.272 83.523C224.995 80.5818 225.999 77.5999 228.011 75.3801L227.612 75.0187ZM224.736 83.5734L224.201 83.6234C224.602 87.9351 225.188 91.9981 225.994 95.701L226.52 95.5864L227.046 95.4719C226.251 91.8214 225.671 87.8029 225.272 83.5235L224.736 83.5734ZM226.52 95.5864L225.998 95.7169C226.07 96.0039 226.149 96.3246 226.271 96.649L226.775 96.4601L227.279 96.2712C227.182 96.0132 227.116 95.7514 227.042 95.4559L226.52 95.5864ZM226.775 96.4601L226.254 96.5951C227.046 99.6498 228.741 102.358 230.994 104.462L231.362 104.068L231.729 103.675C229.614 101.701 228.033 99.1677 227.296 96.3251L226.775 96.4601ZM231.362 104.068L230.99 104.458C232.608 106.001 234.525 107.202 236.625 108.027L236.822 107.527L237.019 107.026C235.042 106.249 233.246 105.121 231.733 103.679L231.362 104.068ZM236.822 107.527L236.3 107.657C236.447 108.244 236.666 109.086 236.959 110.145L237.477 110.002L237.996 109.859C237.706 108.807 237.489 107.974 237.344 107.396L236.822 107.527ZM237.477 110.002L236.955 110.133C237.102 110.719 237.289 111.43 237.552 112.182L238.06 112.004L238.568 111.826C238.321 111.122 238.144 110.45 237.999 109.872L237.477 110.002ZM238.06 112.004L237.536 112.127C237.688 112.772 237.915 113.454 238.129 114.132L238.642 113.97L239.155 113.808C238.933 113.103 238.723 112.474 238.584 111.881L238.06 112.004ZM238.642 113.97L238.135 114.149C238.35 114.758 238.565 115.44 238.784 116.134L239.298 115.972L239.811 115.81C239.593 115.12 239.372 114.42 239.15 113.791L238.642 113.97ZM239.298 115.972L238.789 116.149C241.257 123.222 245.561 133.022 252.43 141.062C259.307 149.111 268.783 155.425 281.561 155.425V154.887V154.349C269.186 154.349 259.986 148.249 253.249 140.363C246.503 132.468 242.253 122.81 239.806 115.795L239.298 115.972ZM281.561 154.887V155.425C294.988 155.425 304.757 148.472 311.699 139.858C318.634 131.252 322.781 120.952 324.992 114.136L324.48 113.97L323.969 113.804C321.775 120.566 317.677 130.724 310.861 139.183C304.051 147.633 294.563 154.349 281.561 154.349V154.887ZM324.48 113.97L324.994 114.132C325.208 113.454 325.435 112.772 325.587 112.127L325.063 112.004L324.539 111.881C324.4 112.474 324.19 113.103 323.967 113.808L324.48 113.97ZM325.063 112.004L325.571 112.182C325.834 111.43 326.021 110.719 326.167 110.133L325.645 110.002L325.123 109.872C324.979 110.45 324.802 111.122 324.555 111.826L325.063 112.004ZM325.645 110.002L326.164 110.145C326.456 109.086 326.676 108.244 326.823 107.657L326.301 107.527L325.779 107.396C325.634 107.974 325.417 108.807 325.127 109.859L325.645 110.002ZM326.301 107.527L326.496 108.028C331.901 105.926 335.925 101.306 337.129 95.6994L336.603 95.5864L336.077 95.4734C334.951 100.715 331.185 105.05 326.106 107.025L326.301 107.527ZM336.603 95.5864L337.128 95.702C337.935 92.0347 338.52 87.971 338.922 83.623L338.386 83.5734L337.851 83.5239C337.452 87.8398 336.872 91.8576 336.077 95.4708L336.603 95.5864ZM338.386 83.5734L338.922 83.6239C339.228 80.3766 338.12 77.0972 335.909 74.6574L335.511 75.0187L335.112 75.3801C337.124 77.5999 338.128 80.5818 337.851 83.523L338.386 83.5734ZM333.035 94.7855L332.508 94.6758C331.813 98.0136 329.654 100.91 326.683 102.658L326.956 103.122L327.229 103.586C330.446 101.693 332.801 98.5468 333.562 94.8953L333.035 94.7855ZM326.956 103.122L326.683 102.658C326.085 103.01 325.459 103.322 324.804 103.563L324.99 104.068L325.176 104.573C325.904 104.305 326.589 103.962 327.229 103.586L326.956 103.122ZM324.99 104.068L324.778 103.574C324.519 103.685 324.302 103.777 324.059 103.838L324.189 104.36L324.32 104.882C324.659 104.797 324.952 104.67 325.202 104.563L324.99 104.068ZM324.189 104.36L324.01 103.852C323.224 104.13 322.614 104.782 322.426 105.626L322.952 105.743L323.477 105.86C323.58 105.393 323.917 105.026 324.368 104.867L324.189 104.36ZM322.952 105.743H322.413V105.925H322.952H323.49V105.743H322.952ZM322.952 105.925L322.441 105.755L322.332 106.082L322.842 106.252L323.353 106.423L323.462 106.095L322.952 105.925ZM322.842 106.252L322.318 106.133C322.137 106.927 321.74 108.626 321.052 110.941L321.568 111.094L322.084 111.247C322.78 108.903 323.184 107.18 323.367 106.372L322.842 106.252ZM321.568 111.094L321.063 110.91L320.917 111.311L321.423 111.495L321.928 111.678L322.074 111.278L321.568 111.094ZM321.423 111.495L320.908 111.339C319.059 117.446 315.36 127.305 309.036 135.627C302.717 143.943 293.821 150.672 281.561 150.672V151.21V151.748C294.274 151.748 303.453 144.753 309.893 136.278C316.328 127.81 320.073 117.811 321.938 111.65L321.423 111.495ZM281.561 151.21V150.672C269.287 150.672 260.629 144.474 254.496 136.636C248.354 128.785 244.773 119.321 242.685 112.894L242.173 113.06L241.662 113.226C243.76 119.685 247.387 129.296 253.649 137.299C259.921 145.315 268.863 151.748 281.561 151.748V151.21ZM242.173 113.06L242.693 112.921C242.617 112.636 242.532 112.362 242.45 112.102C242.367 111.838 242.288 111.592 242.218 111.347L241.7 111.495L241.183 111.642C241.258 111.906 241.343 112.17 241.424 112.426C241.505 112.684 241.584 112.938 241.653 113.198L242.173 113.06ZM241.7 111.495L242.206 111.311L242.06 110.91L241.554 111.094L241.049 111.278L241.194 111.678L241.7 111.495ZM241.554 111.094L242.07 110.941C241.383 108.626 240.986 106.927 240.805 106.133L240.28 106.252L239.756 106.372C239.939 107.18 240.343 108.903 241.039 111.247L241.554 111.094ZM240.28 106.252L240.806 106.136L240.733 105.808L240.208 105.925L239.682 106.042L239.755 106.369L240.28 106.252ZM240.208 105.925H240.746V105.743H240.208H239.669V105.925H240.208ZM240.208 105.743L240.726 105.599C240.498 104.779 239.901 104.131 239.113 103.852L238.933 104.36L238.754 104.867C239.203 105.025 239.553 105.396 239.689 105.887L240.208 105.743ZM238.933 104.36L239.064 103.838C238.821 103.777 238.604 103.685 238.345 103.574L238.133 104.068L237.921 104.563C238.171 104.67 238.464 104.797 238.803 104.882L238.933 104.36ZM238.133 104.068L238.319 103.563C237.664 103.322 237.038 103.01 236.44 102.658L236.167 103.122L235.894 103.586C236.534 103.962 237.218 104.305 237.947 104.573L238.133 104.068ZM236.167 103.122L236.432 102.653C235.642 102.207 234.947 101.653 234.269 101.046L233.91 101.447L233.551 101.848C234.256 102.479 235.017 103.09 235.902 103.59L236.167 103.122ZM233.91 101.447L234.271 101.048C232.425 99.3765 231.136 97.1467 230.614 94.7092L230.088 94.822L229.561 94.9347C230.131 97.5936 231.536 100.023 233.549 101.846L233.91 101.447ZM230.088 94.822L230.612 94.701C230.56 94.4756 230.516 94.2487 230.47 94.0105C230.425 93.7754 230.378 93.5291 230.321 93.2812L229.796 93.4022L229.272 93.5232C229.324 93.7486 229.368 93.9755 229.414 94.2137C229.459 94.4488 229.506 94.6951 229.563 94.943L230.088 94.822ZM229.796 93.4022L230.324 93.299C229.71 90.1522 229.238 86.7473 228.876 83.1553L228.34 83.2094L227.805 83.2635C228.17 86.8792 228.645 90.3181 229.268 93.5054L229.796 93.4022ZM228.34 83.2094L228.876 83.1632C228.707 81.2033 229.347 79.3122 230.704 77.8197L230.306 77.4577L229.908 77.0958C228.352 78.8068 227.609 80.9927 227.804 83.2556L228.34 83.2094ZM230.306 77.4577L230.705 77.8191C231.689 76.7326 232.939 75.9923 234.316 75.6899L234.201 75.1643L234.086 74.6388C232.478 74.9916 231.034 75.8531 229.907 77.0964L230.306 77.4577ZM234.201 75.1643L234.332 75.6864C234.873 75.5511 235.411 75.484 235.948 75.484V74.9459V74.4078C235.321 74.4078 234.694 74.4864 234.071 74.6423L234.201 75.1643ZM235.948 74.9459V75.484H236.021V74.9459V74.4078H235.948V74.9459ZM236.021 74.9459L236.06 75.4827C236.67 75.439 237.301 75.2145 237.748 74.6678L237.332 74.3271L236.915 73.9863C236.707 74.2405 236.392 74.38 235.983 74.4092L236.021 74.9459ZM237.332 74.3271L237.734 74.6846C238.12 74.2503 238.307 73.6831 238.307 73.1622H237.769H237.231C237.231 73.4422 237.126 73.7486 236.93 73.9696L237.332 74.3271ZM237.769 73.1622H238.307C238.307 73.0649 238.311 72.8691 238.243 72.6644L237.732 72.8346L237.222 73.0047C237.223 73.0078 237.226 73.018 237.228 73.0431C237.23 73.0717 237.231 73.104 237.231 73.1622H237.769ZM237.732 72.8346L238.263 72.7474C237.864 70.3173 237.538 67.9268 237.321 65.6841L236.786 65.736L236.25 65.7878C236.47 68.0591 236.799 70.4738 237.201 72.9217L237.732 72.8346ZM236.786 65.736H237.324C237.324 65.243 237.24 64.8598 237.207 64.6646L236.676 64.7531L236.146 64.8415C236.186 65.0832 236.248 65.3553 236.248 65.736H236.786ZM236.676 64.7531L237.212 64.7044C237.193 64.4933 237.174 64.3464 237.159 64.2455C237.151 64.1969 237.145 64.1569 237.141 64.1361C237.139 64.1239 237.139 64.1204 237.139 64.1207C237.139 64.1211 237.14 64.1254 237.14 64.1321C237.141 64.1381 237.142 64.152 237.142 64.1706H236.604H236.066C236.066 64.2117 236.07 64.2465 236.072 64.2587C236.074 64.2754 236.076 64.2924 236.079 64.3053C236.083 64.3345 236.088 64.3628 236.094 64.4052C236.106 64.4863 236.123 64.6124 236.141 64.8018L236.676 64.7531ZM236.604 64.1706L237.14 64.1237C235.764 48.4091 238.704 36.0811 245.83 27.3805L245.413 27.0396L244.997 26.6987C237.634 35.69 234.677 48.3344 236.068 64.2176L236.604 64.1706ZM245.413 27.0396L245.828 27.3825C253.341 18.2949 265.327 13.4144 281.575 13.0163L281.561 12.4784L281.548 11.9405C265.106 12.3433 252.774 17.2916 244.998 26.6967L245.413 27.0396ZM281.561 12.4784L281.549 13.0164C290.884 13.2335 298.848 14.9697 305.315 18.131L305.551 17.6476L305.787 17.1642C299.149 13.9186 291.023 12.1602 281.574 11.9405L281.561 12.4784ZM305.551 17.6476L305.318 18.1327C308.014 19.4268 310.489 20.9697 312.672 22.7598L313.014 22.3436L313.355 21.9275C311.097 20.0772 308.548 18.4895 305.784 17.1625L305.551 17.6476ZM313.014 22.3436L312.67 22.7577C314.355 24.1562 315.897 25.6979 317.295 27.3832L317.71 27.0396L318.124 26.696C316.683 24.9594 315.094 23.3705 313.357 21.9295L313.014 22.3436ZM317.71 27.0396L317.296 27.3833C318.868 29.278 320.195 31.3563 321.383 33.6234L321.859 33.3737L322.336 33.124C321.121 30.8044 319.754 28.66 318.124 26.6959L317.71 27.0396ZM321.859 33.3737L321.381 33.6195C325.507 41.6571 327.069 51.8497 325.983 64.1232L326.519 64.1706L327.055 64.2181C328.153 51.8104 326.584 41.3989 322.338 33.128L321.859 33.3737ZM326.519 64.1706C325.981 64.1708 325.981 64.1707 325.981 64.1705C325.981 64.1705 325.981 64.1703 325.981 64.1703C325.981 64.1701 325.981 64.1699 325.981 64.1697C325.981 64.1694 325.981 64.1691 325.981 64.1687C325.981 64.1681 325.981 64.1674 325.981 64.1668C325.981 64.1655 325.981 64.1643 325.981 64.1632C325.981 64.161 325.981 64.159 325.981 64.1574C325.981 64.154 325.981 64.1519 325.981 64.1508C325.982 64.1488 325.981 64.1513 325.981 64.1586C325.979 64.173 325.974 64.2063 325.961 64.2586L326.483 64.3891L327.005 64.5196C327.028 64.4262 327.041 64.3503 327.048 64.2919C327.052 64.2627 327.054 64.238 327.056 64.2177C327.056 64.2076 327.057 64.1986 327.057 64.1907C327.057 64.1868 327.057 64.1831 327.057 64.1798C327.057 64.1781 327.057 64.1765 327.057 64.1749C327.057 64.1741 327.057 64.1734 327.057 64.1726C327.057 64.1723 327.057 64.1719 327.057 64.1716C327.057 64.1714 327.057 64.1712 327.057 64.171C327.057 64.1709 327.057 64.1708 327.057 64.1708C327.057 64.1706 327.057 64.1705 326.519 64.1706ZM326.483 64.3891L325.949 64.3223C325.912 64.6183 325.838 65.2792 325.693 66.5866L326.228 66.646L326.763 66.7055C326.909 65.3919 326.981 64.7422 327.017 64.4558L326.483 64.3891ZM326.228 66.646L325.691 66.6037C325.584 67.9681 325.404 69.3338 325.152 70.7373L325.682 70.8324L326.211 70.9275C326.469 69.4916 326.654 68.0906 326.764 66.6884L326.228 66.646ZM325.682 70.8324L325.153 70.7332C325.042 71.3244 324.962 72.0644 324.858 72.7547L325.391 72.8346L325.923 72.9144C326.038 72.1486 326.103 71.5053 326.211 70.9316L325.682 70.8324ZM325.391 72.8346H324.852C324.852 72.8088 324.856 72.792 324.856 72.79C324.856 72.7898 324.856 72.7924 324.85 72.8133C324.846 72.8288 324.838 72.8626 324.831 72.8993C324.824 72.9376 324.816 72.9908 324.816 73.053H325.354H325.892C325.892 73.0787 325.889 73.0955 325.889 73.0975C325.889 73.0977 325.889 73.0952 325.894 73.0742C325.898 73.0587 325.907 73.0249 325.914 72.9883C325.921 72.9499 325.929 72.8967 325.929 72.8346H325.391ZM325.354 73.053H324.816V73.1622H325.354H325.892V73.053H325.354ZM325.354 73.1622H324.816C324.816 73.683 325.003 74.2502 325.389 74.6846L325.791 74.3271L326.193 73.9696C325.997 73.7486 325.892 73.4422 325.892 73.1622H325.354ZM325.791 74.3271L325.375 74.6678C325.822 75.2145 326.453 75.439 327.063 75.4827L327.102 74.9459L327.14 74.4092C326.731 74.38 326.415 74.2405 326.207 73.9863L325.791 74.3271ZM327.102 74.9459V75.484H327.174V74.9459V74.4078H327.102V74.9459ZM327.174 74.9459V75.484C327.711 75.484 328.25 75.5511 328.791 75.6864L328.922 75.1643L329.052 74.6423C328.428 74.4864 327.802 74.4078 327.174 74.4078V74.9459ZM328.922 75.1643L328.806 75.6899C330.184 75.9923 331.433 76.7326 332.418 77.8191L332.817 77.4577L333.216 77.0964C332.089 75.8531 330.645 74.9916 329.037 74.6388L328.922 75.1643ZM332.817 77.4577L332.419 77.8197C333.775 79.3122 334.415 81.2033 334.246 83.1632L334.783 83.2094L335.319 83.2556C335.514 80.9927 334.77 78.8068 333.215 77.0958L332.817 77.4577ZM334.783 83.2094L334.247 83.1577C333.848 87.2914 333.268 91.2012 332.51 94.6706L333.035 94.7855L333.561 94.9005C334.331 91.3806 334.916 87.4273 335.318 83.2611L334.783 83.2094ZM324.553 30.7163L324.173 30.3358L321.479 33.0296L321.859 33.4101L322.24 33.7906L324.934 31.0968L324.553 30.7163Z" fill="#222222" mask="url(#path-3-outside-1_63_1776)"/>
<path d="M328.397 64.0889H328.398C328.398 64.089 328.399 64.0896 328.401 64.0898C328.403 64.0905 328.408 64.0916 328.413 64.0928C328.424 64.0952 328.44 64.0988 328.461 64.1035C328.503 64.1129 328.564 64.127 328.645 64.1455C328.806 64.1828 329.042 64.2382 329.342 64.3115C329.942 64.4583 330.799 64.6757 331.828 64.9609C333.886 65.5312 336.634 66.3719 339.394 67.4502C343.509 69.0589 346.086 73.1715 345.862 77.5791V77.5811C345.35 86.6133 341.954 97.6766 339.25 103.633C338.169 106.019 336.341 107.92 333.994 109.112L333.993 109.111C331.494 110.398 328.78 111.26 326.695 111.8C325.652 112.07 324.764 112.259 324.136 112.382C323.822 112.443 323.573 112.487 323.402 112.517C323.317 112.531 323.251 112.543 323.206 112.55C323.184 112.553 323.166 112.556 323.154 112.558C323.149 112.558 323.145 112.559 323.142 112.56C323.14 112.56 323.139 112.56 323.138 112.561H323.137L322.733 112.621L322.837 112.226L324.475 106.001H324.477C326.613 90.1808 326.687 78.7904 326.905 73.1143V73.1016L326.907 73.0889C327.417 69.34 327.708 67.1469 327.872 65.8916C327.954 65.2642 328.004 64.8708 328.033 64.6348C328.048 64.5168 328.058 64.4377 328.064 64.3887C328.067 64.3642 328.068 64.3468 328.069 64.3359C328.07 64.3306 328.071 64.3267 328.071 64.3242V64.3213L328.106 64.0244L328.397 64.0889Z" fill="#222222" stroke="#222222" stroke-width="0.538097"/>
<path d="M327.097 62.7085C327.592 62.3415 328.177 62.2176 328.759 62.3423L328.792 62.3491L328.811 62.3599C328.804 62.3569 328.806 62.3572 328.826 62.3628C328.846 62.3684 328.875 62.3758 328.914 62.3853C328.992 62.4043 329.097 62.4291 329.233 62.4614C329.502 62.5251 329.875 62.6164 330.33 62.7437L330.947 62.895C331.6 63.0608 332.366 63.2732 333.214 63.5464H333.215C334.273 63.8383 335.477 64.2036 336.754 64.6411C337.818 64.9714 338.917 65.3743 340.048 65.812L340.049 65.813C344.739 67.653 347.751 72.1842 347.664 77.2368L347.645 77.7271C347.17 86.5399 343.883 97.8574 340.888 104.47C339.661 107.183 337.507 109.449 334.832 110.824C330.903 112.843 326.577 113.832 324.531 114.234L324.524 114.235C324.196 114.29 323.913 114.336 323.712 114.368C323.611 114.384 323.531 114.396 323.476 114.405C323.449 114.409 323.428 114.412 323.414 114.415H323.412C323.292 114.458 323.178 114.457 323.097 114.457C322.514 114.457 321.924 114.208 321.541 113.74V113.739C321.095 113.245 320.886 112.546 321.085 111.841L321.158 111.478L321.162 111.458L321.169 111.439L321.311 111.044L322.581 106.22L322.584 106.211L322.586 106.204L322.682 105.917V105.761L322.684 105.743C324.503 92.2154 324.794 81.9613 324.975 75.7749V75.771L325.085 73.1978H325.084V73.0894C325.084 73.0141 325.103 72.9447 325.11 72.9146C325.121 72.8718 325.121 72.8681 325.121 72.8706V72.8501L325.124 72.8306C325.229 72.1269 325.305 71.4167 325.414 70.8325C325.632 68.9763 325.815 67.6282 325.961 66.6431C326.106 65.3409 326.178 64.6852 326.215 64.3921L326.217 64.3755L326.221 64.3599C326.236 64.2974 326.244 64.2534 326.247 64.228C326.249 64.2154 326.249 64.2072 326.249 64.2036V64.1968L326.25 64.187C326.292 63.6006 326.586 63.049 327.097 62.7085ZM330.133 66.9604C329.977 68.317 329.697 70.351 329.262 73.3999L329.189 75.1753V75.8638C329.007 81.6162 328.753 90.946 327.259 103.154L327.258 103.153C327.148 104.212 327.003 105.307 326.857 106.397L326.851 106.442L326.832 106.482C326.825 106.496 326.812 106.53 326.799 106.575C326.793 106.594 326.788 106.613 326.784 106.625C326.782 106.632 326.781 106.638 326.78 106.641C326.78 106.642 326.779 106.643 326.779 106.644V106.645L326.778 106.647L326.018 109.59C327.999 109.076 330.566 108.274 332.91 107.069C334.751 106.113 336.237 104.555 337.086 102.717C339.914 96.4426 343.033 85.7384 343.468 77.48L343.469 77.4771C343.68 74.0254 341.673 70.8939 338.507 69.6626L338.502 69.6616C337.708 69.3367 336.914 69.0479 336.12 68.7954L336.112 68.7925C334.97 68.3895 333.827 68.018 332.828 67.7056L332.562 67.6333C331.659 67.3842 330.833 67.1571 330.133 66.9604Z" fill="#222222" stroke="#222222" stroke-width="0.538097"/>
<path d="M235.048 64.3213L235.049 64.3242C235.05 64.3267 235.05 64.3306 235.05 64.3359C235.052 64.3468 235.054 64.3642 235.057 64.3887C235.063 64.4377 235.073 64.5168 235.087 64.6348C235.117 64.8708 235.167 65.2643 235.249 65.8916C235.33 66.5192 235.444 67.3811 235.601 68.5547L236.212 73.0889L236.214 73.1016L236.215 73.1143C236.434 78.7904 236.506 90.1809 238.642 106.001H238.645L240.284 112.226L240.387 112.621L239.984 112.561H239.983H239.982C239.981 112.56 239.98 112.56 239.979 112.56C239.976 112.559 239.971 112.559 239.965 112.558C239.954 112.556 239.937 112.553 239.915 112.55C239.87 112.543 239.804 112.531 239.718 112.517C239.547 112.487 239.299 112.443 238.985 112.382C238.357 112.259 237.469 112.07 236.425 111.8C234.34 111.26 231.626 110.398 229.126 109.111V109.112C226.779 107.92 224.952 106.019 223.871 103.633L223.615 103.06C220.957 96.9871 217.753 86.3312 217.257 77.5811V77.5791C217.033 73.1715 219.611 69.0589 223.726 67.4502L224.752 67.0566C227.144 66.1655 229.474 65.4599 231.279 64.9609C232.31 64.6757 233.171 64.4583 233.774 64.3115C234.075 64.2382 234.312 64.1828 234.474 64.1455C234.555 64.1269 234.618 64.1129 234.66 64.1035C234.681 64.0988 234.697 64.0952 234.708 64.0928L234.723 64.0889L235.015 64.0254L235.048 64.3213Z" fill="#222222" stroke="#222222" stroke-width="0.538097"/>
<path d="M230.556 67.6333C229.504 67.9598 228.274 68.3583 227.043 68.7925L227.036 68.7954C226.242 69.048 225.447 69.3366 224.653 69.6616L224.649 69.6626C221.581 70.8554 219.602 73.8317 219.673 77.1548L219.687 77.4771V77.479C220.026 83.8275 221.928 91.5909 224.078 97.6821L224.512 98.8774L224.513 98.8804C224.893 99.9392 225.293 100.938 225.684 101.844L226.071 102.719V102.72C226.704 104.128 227.726 105.364 228.999 106.321C229.405 106.579 229.823 106.858 230.241 107.067L230.244 107.069C232.587 108.274 235.155 109.075 237.136 109.59L236.39 106.7C236.339 106.623 236.318 106.542 236.309 106.496C236.302 106.46 236.299 106.428 236.297 106.406C236.296 106.394 236.296 106.385 236.295 106.377V106.105C236.163 105.11 236.032 104.115 235.932 103.149V103.148C235.787 101.95 235.641 100.748 235.532 99.6187C235.149 96.0169 234.85 92.7209 234.635 89.7065L234.548 88.4321C234.22 83.2604 234.111 79.065 233.965 75.9048V75.1743L233.893 73.2241C233.489 70.2646 233.212 68.2636 233.057 66.9409C232.342 67.1423 231.49 67.3757 230.556 67.6333ZM238.035 73.187L238.144 75.8081V75.811C238.217 78.2483 238.325 81.3041 238.507 84.978L238.659 87.5483C238.826 90.206 239.044 93.1242 239.344 96.2876L239.577 98.5366C239.824 100.826 240.117 103.233 240.471 105.742L240.473 105.76V105.929L240.537 106.22L241.81 111.054L241.95 111.439L241.956 111.458L241.96 111.478L242.033 111.837C242.233 112.543 242.024 113.244 241.577 113.739C241.193 114.207 240.605 114.456 240.023 114.457C239.988 114.457 239.929 114.457 239.869 114.451C239.826 114.446 239.771 114.435 239.713 114.416C239.708 114.415 239.703 114.415 239.701 114.415C239.681 114.412 239.656 114.409 239.627 114.405C239.57 114.396 239.49 114.383 239.392 114.367C239.196 114.335 238.922 114.289 238.595 114.235L238.587 114.234C236.541 113.832 232.216 112.843 228.286 110.824L228.285 110.823C227.509 110.417 226.727 109.933 226.053 109.371V109.37C224.523 108.151 223.253 106.576 222.397 104.823L222.231 104.47C221.867 103.669 221.501 102.827 221.17 101.911L220.672 100.624C218.186 94.0201 215.85 84.9975 215.473 77.7271C215.175 72.4797 218.227 67.7127 223.104 65.813C223.926 65.484 224.75 65.1751 225.56 64.9019L226.365 64.6411C227.322 64.3131 228.238 64.026 229.082 63.7798L229.904 63.5464C230.752 63.2731 231.518 63.0609 232.171 62.895L232.788 62.7437C233.24 62.6172 233.612 62.5172 233.881 62.4487C234.017 62.4143 234.128 62.3871 234.21 62.3687C234.252 62.3595 234.288 62.3525 234.318 62.3472C234.329 62.3452 234.344 62.3445 234.362 62.3423C234.943 62.2182 235.526 62.3423 236.021 62.7085C236.515 63.0382 236.863 63.5832 236.869 64.1909C236.869 64.1908 236.87 64.1974 236.872 64.2144C236.876 64.2373 236.882 64.2747 236.889 64.3218C236.903 64.4146 236.921 64.55 236.939 64.7446L237.008 65.1616C237.031 65.3281 237.049 65.5246 237.05 65.7466C237.233 66.9884 237.524 69.1365 238.032 72.9077L238.035 72.9253V73.187Z" fill="#222222" stroke="#222222" stroke-width="0.538097"/>
<path d="M281.596 0.268555C300.475 0.268555 315.738 6.40563 325.63 18.0195C336.072 30.2927 339.787 47.9632 336.43 69.127C336.263 70.1702 335.384 70.8828 334.38 70.8828H334.034L334.014 70.8799C332.884 70.7124 332.086 69.6257 332.296 68.4902C335.49 48.5198 332.069 32.0477 322.455 20.7705C313.381 10.1428 299.267 4.4834 281.596 4.4834C263.925 4.48346 249.812 10.143 240.739 20.7705C231.123 32.0488 227.702 48.523 230.898 68.4961L230.899 68.499C231.065 69.6184 230.32 70.7041 229.152 70.877L229.153 70.8779C229.151 70.8782 229.149 70.8776 229.147 70.8779C229.145 70.8782 229.143 70.8796 229.141 70.8799L229.14 70.8789C228.006 71.082 226.928 70.284 226.762 69.123V69.1221C223.37 47.9604 227.086 30.2909 237.563 18.0186C247.491 6.40538 262.718 0.268622 281.596 0.268555Z" fill="#222222" stroke="#222222" stroke-width="0.538097"/>
<path d="M60.1509 209.534V209.535C71.8665 209.827 81.6344 212.308 89.3296 217.034L89.8081 217.319C92.1836 218.762 94.3334 220.459 96.2573 222.347L96.6528 222.723C97.5686 223.607 98.4287 224.547 99.2319 225.543H99.231C101.357 228.109 103.153 230.966 104.582 234.044H104.581C108.903 243.312 110.25 254.904 108.572 268.624L108.573 268.625C108.437 269.815 108.297 271.046 108.1 272.28C110.458 272.797 112.599 274.003 114.254 275.802C116.418 278.151 117.499 281.357 117.201 284.563V284.564C116.799 288.869 116.179 292.92 115.413 296.606L115.412 296.609C114.237 302.041 110.333 306.594 105.04 308.653C104.17 312.339 100.996 324.054 94.0981 334.915C87.1126 345.913 76.2748 356.085 60.1079 356.085C48.2014 356.085 39.1783 350.568 32.4614 343.27C25.7492 335.977 21.3298 326.896 18.6118 319.727L18.2524 318.774C16.5499 314.183 15.5676 310.456 15.1382 308.652C13.9688 308.183 12.8308 307.609 11.7935 306.893V306.892C9.31964 305.23 7.3237 302.94 6.06494 300.279L5.84912 299.844C5.36323 298.823 4.99371 297.743 4.76611 296.606C3.99971 292.92 3.37916 288.869 3.01416 284.563L2.99072 284.263C2.79158 281.258 3.79583 278.277 5.76025 276.024L5.96045 275.802C7.58119 274.002 9.75505 272.797 12.0786 272.28C11.8815 271.047 11.742 269.817 11.606 268.627L11.4458 267.211C9.89912 252.665 11.7725 240.595 17.063 231.221C18.1983 229.207 19.482 227.301 20.9497 225.54C23.9915 221.875 27.6211 218.795 31.9106 216.412C39.4219 212.089 48.8233 209.827 60.0278 209.535L60.0347 209.534H60.1509ZM60.1069 213.749C43.7776 214.149 31.7087 219.048 24.1675 228.249L24.1665 228.248C16.477 237.634 13.6386 251.164 15.7808 268.595L15.9507 269.863C16.1274 271.139 16.325 272.451 16.5425 273.784L16.5757 274.018C16.6216 274.561 16.4496 275.091 16.0854 275.498L16.0864 275.499C15.7091 275.96 15.1236 276.253 14.4946 276.253C12.424 276.253 10.4214 277.129 9.01611 278.637C7.64462 280.185 6.97909 282.152 7.15479 284.225H7.15381C7.50344 287.848 7.99239 291.274 8.59521 294.432L8.86084 295.769V295.771C8.96568 296.295 9.1407 296.823 9.32275 297.369L9.521 297.872C10.4939 300.193 12.1594 302.168 14.2788 303.535L14.7397 303.819L14.7466 303.823C15.4919 304.289 16.3215 304.674 17.188 304.979L17.562 305.105L17.5688 305.107C18.2751 305.356 18.811 305.975 18.978 306.679L19.1636 307.51C19.5111 309.017 20.3674 312.445 21.9194 316.774C24.3168 323.458 28.3256 332.259 34.5103 339.385C40.6913 346.508 49.0321 351.943 60.1079 351.943C75.9411 351.943 86.1902 340.802 92.5122 329.524C98.8292 318.255 101.181 306.924 101.236 306.684C101.368 305.969 101.911 305.353 102.65 305.106L102.655 305.104C107.08 303.712 110.392 300.146 111.318 295.768L111.319 295.766C112.081 292.248 112.661 288.364 113.024 284.224L113.025 284.22C113.235 282.151 112.57 280.187 111.164 278.64V278.639C109.758 277.13 107.755 276.253 105.684 276.253C105.161 276.253 104.653 276.026 104.262 275.67L104.092 275.5L104.301 275.329L104.092 275.499C103.714 275.036 103.551 274.414 103.633 273.801L103.634 273.793H103.635C103.927 272.006 104.216 270.304 104.397 268.602L104.398 268.597C105.96 256.032 104.939 245.49 101.324 237.066L101.323 237.065C99.9489 233.811 98.1781 230.849 96.0122 228.25L96.0112 228.249C95.1807 227.238 94.2783 226.262 93.3394 225.359H93.3384C91.2797 223.373 88.9682 221.639 86.4038 220.194L86.4009 220.192C79.4628 216.145 70.6665 214.004 60.1069 213.749Z" fill="#222222" stroke="#222222" stroke-width="0.538097"/>
<path d="M60.1055 202.617C73.6571 202.617 83.8664 205.41 91.541 209.801C99.2166 214.192 104.342 220.174 107.739 226.527C114.527 239.219 114.415 253.393 113.995 259.364C113.892 261.081 114.75 262.657 116.222 263.48L119.098 265.045L119.103 265.048C119.7 265.389 120.059 266.043 119.926 266.751C119.797 267.439 119.278 267.963 118.622 268.094H118.619C113.818 269.01 106.582 268.936 103.637 268.864H103.633C102.82 268.83 102.032 269.066 101.302 269.484L101.301 269.483L90.6416 275.923L90.6406 275.922C89.9021 276.387 89.0162 276.617 88.1357 276.617H32.0752C31.1896 276.617 30.3405 276.386 29.5703 275.924V275.923L18.9092 269.483C18.1866 269.07 17.396 268.864 16.5693 268.864C13.621 268.936 6.39041 269.01 1.5918 268.094V268.093C0.903241 267.963 0.371487 267.441 0.283203 266.735C0.197803 266.051 0.499037 265.396 1.1084 265.048L1.11328 265.045L3.98926 263.48C5.46411 262.655 6.35226 261.044 6.21582 259.37V259.367C5.77773 253.398 5.66469 239.221 12.458 226.527C15.8574 220.174 20.9865 214.192 28.665 209.801C36.3425 205.41 46.5538 202.617 60.1055 202.617Z" fill="#222222" stroke="#222222" stroke-width="0.538097"/>
<path d="M318.07 320.251L268.634 352.54L214.321 264.372C213.52 263.134 212.792 259.494 216.651 257.601C220.473 255.744 223.385 260.186 223.385 260.186L235.835 279.916L237.692 278.569L220.473 251.485C219.199 248.209 220.582 245.879 221.82 244.969C225.424 242.239 228.154 245.042 230.338 247.627C232.523 250.211 247.011 271.653 247.011 271.653L248.686 270.597L230.302 242.348C229.392 240.564 227.135 236.742 231.976 234.121C236.891 231.464 239.585 234.339 242.934 238.271C246.283 242.203 259.606 263.462 259.606 263.462L261.499 262.333L241.769 231.973C241.769 231.973 238.747 226.731 244.79 222.691C250.87 218.686 255.42 224.292 257.459 226.95C259.497 229.607 318.07 320.214 318.07 320.214V320.251Z" fill="#222222"/>
<path d="M304.564 238.125C302.052 242.057 300.159 245.042 300.159 245.042L298.594 244.095L295.973 246.716L296.41 247.044L298.303 248.172C298.885 248.5 299.504 248.682 300.159 248.682C301.36 248.682 302.525 248.063 303.217 246.971C306.129 242.348 313.082 231.463 317.086 225.602L304.564 238.125ZM343.115 239.181C342.459 238.853 341.804 238.708 341.222 238.708C338.382 238.708 336.38 241.765 336.38 241.765L323.93 261.496L322.074 260.112L339.292 233.029C340.566 229.789 339.183 227.459 337.945 226.513C336.89 225.712 335.907 225.384 334.997 225.384C332.813 225.384 330.992 227.35 329.427 229.17C327.243 231.755 312.718 253.196 312.718 253.196L311.08 252.14L329.464 223.928C330.374 222.144 331.211 218.031 327.789 215.701C327.607 215.592 327.461 215.482 327.279 215.41C326.187 214.718 325.204 214.463 324.258 214.463C321.455 214.463 319.234 217.011 316.832 219.851C314.72 222.29 308.75 231.536 304.564 238.125C302.052 242.057 300.159 245.042 300.159 245.042L298.594 244.095L298.266 243.913L317.96 213.553C317.96 213.553 320.254 209.622 316.868 205.945C316.395 205.362 315.74 204.816 314.939 204.27C313.446 203.287 312.026 202.887 310.716 202.887C309.005 202.887 307.44 203.579 306.129 204.525C304.892 205.472 303.836 206.6 303.071 207.583L302.926 207.765C302.671 208.056 302.453 208.311 302.271 208.566C301.433 209.622 291.313 225.166 279.591 243.221L279.519 243.331C277.662 246.17 275.806 249.082 273.876 252.031C260.917 272.053 247.484 292.839 243.152 299.537C242.206 300.993 241.696 301.794 241.696 301.794L291.131 334.12L308.641 305.689L345.444 245.952C346.245 244.714 346.973 241.074 343.115 239.181ZM342.35 244.022L306.457 302.267L289.966 329.023L246.72 300.738C249.523 296.443 252.435 291.892 255.456 287.233C262.227 276.749 269.362 265.719 276.06 255.38C281.921 246.352 287.418 237.87 292.041 230.772C299.395 219.45 304.527 211.66 305.146 210.786C306.129 209.512 308.423 206.527 310.716 206.527C311.408 206.527 312.136 206.782 312.937 207.328C313.519 207.729 313.956 208.093 314.32 208.493C315.448 209.804 315.157 211.005 314.83 211.696L295.208 241.947C294.662 242.748 294.48 243.768 294.699 244.75C294.917 245.551 295.354 246.243 295.973 246.716L296.41 247.044L298.303 248.172C298.885 248.5 299.504 248.682 300.159 248.682C301.36 248.682 302.525 248.063 303.217 246.971C306.129 242.348 313.082 231.463 317.086 225.602C318.179 224.037 319.052 222.872 319.598 222.217C321.091 220.47 323.093 218.103 324.258 218.103C324.331 218.103 324.44 218.103 324.549 218.103C324.877 218.176 325.277 218.395 325.75 218.686C327.207 219.669 326.478 221.634 326.296 222.108L308.022 250.138C307.476 250.939 307.294 251.958 307.512 252.905C307.731 253.851 308.313 254.688 309.151 255.198L310.789 256.254C311.408 256.618 312.063 256.8 312.718 256.8C313.919 256.8 315.048 256.254 315.74 255.198C321.309 246.971 330.701 233.283 332.194 231.5C334.05 229.316 334.742 228.988 334.997 228.988C335.106 228.988 335.361 229.097 335.761 229.388C335.761 229.425 336.453 229.971 336.016 231.39L318.98 258.147C317.96 259.748 318.361 261.896 319.926 263.025L321.783 264.372C322.401 264.845 323.166 265.1 323.93 265.1C324.149 265.1 324.367 265.1 324.622 265.027C325.605 264.845 326.478 264.262 326.988 263.389L339.402 243.768C339.838 243.112 340.748 242.311 341.222 242.311C341.294 242.311 341.404 242.311 341.513 242.421C341.841 242.566 342.787 243.039 342.35 243.986V244.022Z" fill="#222222"/>
<path d="M304.564 238.125C302.052 242.057 300.159 245.042 300.159 245.042L298.594 244.095M304.564 238.125L317.086 225.602M304.564 238.125C308.75 231.536 314.72 222.29 316.832 219.851C319.234 217.011 321.455 214.463 324.258 214.463C325.204 214.463 326.187 214.718 327.279 215.41C327.461 215.482 327.607 215.592 327.789 215.701C331.211 218.031 330.374 222.144 329.464 223.928L311.08 252.14L312.718 253.196C312.718 253.196 327.243 231.755 329.427 229.17C330.992 227.35 332.813 225.384 334.997 225.384C335.907 225.384 336.89 225.712 337.945 226.513C339.183 227.459 340.566 229.789 339.292 233.029L322.074 260.112L323.93 261.496L336.38 241.765C336.38 241.765 338.382 238.708 341.222 238.708C341.804 238.708 342.459 238.853 343.115 239.181C346.973 241.074 346.245 244.714 345.444 245.952L308.641 305.689L291.131 334.12L241.696 301.794C241.696 301.794 242.206 300.993 243.152 299.537C247.484 292.839 260.917 272.053 273.876 252.031C275.806 249.082 277.662 246.17 279.519 243.331L279.591 243.221C291.313 225.166 301.433 209.622 302.271 208.566C302.453 208.311 302.671 208.056 302.926 207.765L303.071 207.583C303.836 206.6 304.892 205.472 306.129 204.525C307.44 203.579 309.005 202.887 310.716 202.887C312.026 202.887 313.446 203.287 314.939 204.27C315.74 204.816 316.395 205.362 316.868 205.945C320.254 209.622 317.96 213.553 317.96 213.553L298.266 243.913L298.594 244.095M298.594 244.095L295.973 246.716M295.973 246.716L296.41 247.044L298.303 248.172C298.885 248.5 299.504 248.682 300.159 248.682C301.36 248.682 302.525 248.063 303.217 246.971C306.129 242.348 313.082 231.463 317.086 225.602M295.973 246.716C295.354 246.243 294.917 245.551 294.699 244.75C294.48 243.768 294.662 242.748 295.208 241.947L314.83 211.696C315.157 211.005 315.448 209.804 314.32 208.493C313.956 208.093 313.519 207.729 312.937 207.328C312.136 206.782 311.408 206.527 310.716 206.527C308.423 206.527 306.129 209.512 305.146 210.786C304.527 211.66 299.395 219.45 292.041 230.772C287.418 237.87 281.921 246.352 276.06 255.38C269.362 265.719 262.227 276.749 255.456 287.233C252.435 291.892 249.523 296.443 246.72 300.738L289.966 329.023L306.457 302.267L342.35 244.022V243.986C342.787 243.039 341.841 242.566 341.513 242.421C341.404 242.311 341.294 242.311 341.222 242.311C340.748 242.311 339.838 243.112 339.402 243.768L326.988 263.389C326.478 264.262 325.605 264.845 324.622 265.027C324.367 265.1 324.149 265.1 323.93 265.1C323.166 265.1 322.401 264.845 321.782 264.372L319.926 263.025C318.361 261.896 317.96 259.748 318.98 258.147L336.016 231.39C336.453 229.971 335.761 229.425 335.761 229.388C335.361 229.097 335.106 228.988 334.997 228.988C334.742 228.988 334.05 229.316 332.194 231.5C330.701 233.283 321.309 246.971 315.74 255.198C315.048 256.254 313.919 256.8 312.718 256.8C312.063 256.8 311.408 256.618 310.789 256.254L309.151 255.198C308.313 254.688 307.731 253.851 307.512 252.905C307.294 251.958 307.476 250.939 308.022 250.138L326.296 222.108C326.478 221.634 327.207 219.669 325.75 218.686C325.277 218.395 324.877 218.176 324.549 218.103C324.44 218.103 324.331 218.103 324.258 218.103C323.093 218.103 321.091 220.47 319.598 222.217C319.052 222.872 318.179 224.037 317.086 225.602" stroke="#222222" stroke-width="1.07619"/>
<path d="M299.253 251.92C301.257 252.042 303.057 252.843 304.779 254.378C305.436 254.962 306.185 255.984 306.339 257.618L306.363 257.953V257.957C306.419 260.059 305.322 262.737 303.667 265.568C302.005 268.411 299.751 271.455 297.433 274.302C292.796 279.996 287.884 284.928 286.881 285.93L286.802 286.009H286.505L286.426 285.928L283.878 283.344L283.69 283.153L283.88 282.965C287.459 279.422 292.066 274.389 295.761 269.631C297.609 267.251 299.225 264.946 300.37 262.934C300.943 261.929 301.396 261.001 301.702 260.177C302.008 259.351 302.16 258.646 302.148 258.08V258.074C302.148 257.831 302.107 257.699 302.074 257.631C302.045 257.571 302.019 257.546 301.983 257.51L301.787 257.342C300.805 256.528 299.764 256.125 298.529 256.128C297.197 256.13 295.614 256.605 293.609 257.6C289.594 259.594 284.001 263.618 275.529 269.831L275.206 270.081L274.988 270.251L274.825 270.027L272.676 267.078L272.523 266.867L272.729 266.707L273.056 266.453L273.062 266.448H273.063C281.515 260.25 287.704 255.705 292.622 253.469C295.087 252.35 297.257 251.798 299.253 251.92Z" fill="#222222" stroke="#222222" stroke-width="0.538097"/>
</svg>
