<svg width="777" height="252" viewBox="0 0 777 252" fill="none" xmlns="http://www.w3.org/2000/svg">
<path d="M259.176 251.164L0 251.164L0 217.312C0 204.057 10.7452 193.312 24 193.312L235.176 193.312C248.431 193.312 259.176 204.057 259.176 217.312V251.164Z" fill="#222222"/>
<path d="M65.496 161.033H193.373C212.978 161.033 228.869 176.924 228.869 196.529C228.869 216.133 212.977 232.025 193.373 232.025L65.496 232.025C45.8917 232.025 30 216.132 30 196.529C29.9992 176.925 45.8917 161.033 65.496 161.033Z" fill="#222222"/>
<path d="M179.275 100.617L168.785 105.783C166.546 101.236 153.279 87.894 133.727 81.8563C116.499 76.5361 99.7502 78.366 83.946 87.2947C68.827 95.8363 59.2779 107.307 55.5641 121.389C48.2001 149.309 65.7483 179.002 65.9274 179.297L55.914 185.336C55.0822 183.957 35.6429 151.233 44.2367 118.484C48.772 101.2 60.1968 87.2814 78.1947 77.1142C96.6465 66.6895 117.042 64.4653 137.177 70.6828C159.188 77.4812 175.31 92.5642 179.275 100.617Z" fill="#222222"/>
<path d="M183.296 147.593L157.721 120.994L249.279 32.9605L274.855 59.5602L183.296 147.593Z" fill="#222222"/>
<path d="M137.433 217.235L201.304 155.824C215.98 141.713 216.438 118.377 202.327 103.701C188.216 89.0256 164.881 88.5677 150.205 102.678L86.334 164.09L137.433 217.235Z" fill="#222222"/>
<path d="M176.88 204.276C173.01 195.045 177.372 184.387 186.604 180.517C195.836 176.647 206.494 181.009 210.364 190.241C214.234 199.473 209.872 210.131 200.64 214.001C191.409 217.87 180.75 213.508 176.88 204.276Z" fill="#222222"/>
<path d="M49.0157 203.561C45.0482 194.371 49.2972 183.666 58.4871 179.699C67.677 175.731 78.3815 179.981 82.3482 189.17C86.3156 198.359 82.0673 209.064 72.8775 213.031C63.6876 216.999 52.9831 212.751 49.0157 203.561Z" fill="#222222"/>
<path d="M408.302 151.099C401.057 174.978 380.025 193.628 357.155 196.45C335.793 199.086 316.58 188.116 303.056 165.56C286.965 138.723 262.701 142.676 253.017 145.623C233.082 151.685 217.496 169.104 218.271 184.453L214.143 184.66C213.265 167.245 229.812 148.361 251.814 141.669C261.91 138.598 272.008 138.583 281.017 141.625C291.423 145.14 300.03 152.478 306.6 163.435C319.233 184.504 337.006 194.773 356.649 192.349C377.948 189.721 397.562 172.265 404.346 149.898L408.302 151.099Z" fill="#222222"/>
<path d="M408.033 165.9L256.232 98.3844C232.96 88.034 222.485 60.7781 232.836 37.5064C243.186 14.2347 270.442 3.75982 293.714 14.1102L445.515 81.6261C468.787 91.9765 479.262 119.232 468.911 142.504C458.561 165.776 431.305 176.251 408.033 165.9Z" fill="#222222"/>
<path d="M298.857 55.8557C298.577 68.8573 287.772 79.2069 274.769 78.9266C261.768 78.6462 251.418 67.8404 251.698 54.8388C251.979 41.8372 262.785 31.4875 275.786 31.7679C288.788 32.0484 299.137 42.8534 298.857 55.8557Z" fill="#222222"/>
<path d="M450.263 124.212C450.121 137.216 439.426 147.68 426.422 147.538C413.419 147.396 402.954 136.701 403.097 123.697C403.239 110.693 413.934 100.229 426.938 100.371C439.942 100.513 450.405 111.208 450.263 124.212Z" fill="#222222"/>
<path d="M617.686 108.552L678.26 60.851L694.173 81.0586L633.599 128.759L617.686 108.552Z" fill="#222222"/>
<path d="M721.595 56.5801C722.606 57.8929 724.49 58.1377 725.803 57.1269L729.879 53.9884C730.988 53.1344 731.195 51.543 730.341 50.4338C729.486 49.3246 729.693 47.7331 730.803 46.8791L736.404 42.5672C737.214 41.9438 738.28 41.7967 739.274 42.0372C739.739 42.1498 740.211 42.2411 740.689 42.3103L743.291 42.688C743.294 42.6883 743.296 42.6896 743.297 42.6914L743.299 42.6947C743.301 42.6968 743.304 42.6973 743.306 42.6956C743.308 42.6946 743.31 42.6943 743.311 42.695L743.315 42.6965C743.319 42.6981 743.322 42.6937 743.32 42.6905C743.318 42.6888 743.319 42.6863 743.32 42.685L753.328 34.9792C753.328 34.9786 753.33 34.9787 753.33 34.9796C753.331 34.981 753.334 34.9804 753.334 34.9786L753.617 32.3265C753.718 31.3893 753.73 30.4516 753.659 29.5243C753.59 28.6223 753.926 27.7195 754.642 27.1676L754.893 26.9749C755.821 26.2606 755.994 24.9293 755.279 24.0016C754.565 23.0739 754.738 21.7427 755.665 21.0284L773.872 7.00987C774.497 6.52894 774.901 5.81693 774.995 5.03424C775.182 3.48121 774.117 2.05502 772.575 1.79199L772.523 1.78308C771.7 1.64277 770.857 1.85247 770.196 2.36151L752.105 16.2919C751.147 17.0296 749.772 16.8508 749.035 15.8928C748.298 14.9348 746.923 14.756 745.965 15.4933L745.731 15.6736C745.006 16.2316 744.038 16.3301 743.172 16.0376C742.336 15.7555 741.473 15.5441 740.59 15.409L737.953 15.0064C737.952 15.0062 737.951 15.0079 737.952 15.0091C737.952 15.0098 737.952 15.0109 737.952 15.0115L727.944 22.7176C727.942 22.7188 727.94 22.7185 727.939 22.7169C727.936 22.7138 727.932 22.7159 727.932 22.7197L727.933 22.7232C727.933 22.7247 727.932 22.7263 727.931 22.7273C727.929 22.7287 727.929 22.7314 727.93 22.7332L727.933 22.7371C727.935 22.7389 727.935 22.7413 727.935 22.7436L727.634 25.3563C727.529 26.2695 727.506 27.1839 727.564 28.0892C727.636 29.2132 727.228 30.3413 726.336 31.0283L721.478 34.7686C720.368 35.6227 718.776 35.4157 717.922 34.3062C717.069 33.1966 715.477 32.9896 714.367 33.8438L710.292 36.982C708.979 37.9928 708.734 39.8764 709.745 41.1892L721.595 56.5801Z" fill="#222222"/>
<path d="M672.851 92.5052C676.069 96.6851 680.482 99.7881 685.504 101.403L691.966 103.48C692.779 103.741 693.494 104.244 694.015 104.921C695.435 106.765 698.081 107.108 699.925 105.688L725.877 85.7058C727.423 84.5157 727.711 82.298 726.521 80.7527C725.917 79.9691 725.67 78.9684 725.839 77.994L727.457 68.6686C728.657 61.7531 726.902 54.6512 722.62 49.0899L717.328 42.2169C713.046 36.6558 706.629 33.1447 699.636 32.5373L690.245 31.7215C689.236 31.6338 688.31 31.1269 687.692 30.324C686.473 28.7405 684.201 28.445 682.618 29.6641L656.805 49.539C654.922 50.9889 654.571 53.691 656.021 55.5742C656.553 56.2653 656.863 57.1019 656.909 57.9729L657.265 64.7262C657.542 69.9958 659.415 75.0566 662.635 79.2377L672.851 92.5052Z" fill="#222222"/>
<path d="M451.9 114.51L558.229 114.099L558.321 137.922L451.992 138.333L451.9 114.51Z" fill="#222222"/>
<path d="M529.337 100.519L619.005 99.8203C632.751 99.7132 643.981 110.77 644.089 124.516C644.196 138.263 633.139 149.493 619.393 149.6L529.725 150.299C515.978 150.406 504.748 139.349 504.641 125.603C504.534 111.857 515.591 100.626 529.337 100.519Z" fill="#222222"/>
<path d="M609.84 129.253C607.618 124.066 610.03 118.037 615.219 115.814C620.407 113.592 626.435 116.005 628.658 121.192C630.881 126.38 628.468 132.409 623.28 134.632C618.091 136.854 612.062 134.441 609.84 129.253Z" fill="#222222"/>
<path d="M518.336 128.837C516.114 123.649 518.527 117.62 523.714 115.397C528.903 113.175 534.931 115.587 537.154 120.775C539.377 125.964 536.963 131.993 531.776 134.215C526.587 136.437 520.558 134.025 518.336 128.837Z" fill="#222222"/>
</svg>
