<svg width="918" height="376" viewBox="0 0 918 376" fill="none" xmlns="http://www.w3.org/2000/svg">
<path d="M645.942 120.531L643.092 132.217C613.068 124.894 590.719 132.546 578.46 154.347C558.084 190.583 599.477 235.837 599.897 236.29L591.093 244.486C590.608 243.965 579.111 231.529 570.398 213.76C558.467 189.43 557.63 166.849 567.975 148.451C582.942 121.834 610.631 111.918 645.942 120.531Z" fill="#222222"/>
<path d="M389.604 53.9164C390.634 53.8078 415.141 51.33 442.015 58.4311C478.709 68.1276 501.867 90.9588 508.983 124.457C514.182 148.926 509.858 172.252 496.475 191.917C481.043 214.595 456.114 228.141 444.126 230.155L441.738 215.94C449.73 214.597 471.184 203.463 484.559 183.808C495.833 167.24 499.307 148.279 494.883 127.453C488.888 99.2326 469.861 80.6995 438.332 72.3678C413.993 65.9364 391.345 68.2276 391.119 68.2512L389.604 53.9164Z" fill="#222222"/>
<path d="M221.055 25.9993L159.344 74.6143C158.452 73.6431 157.264 72.9819 155.945 72.8922C150.021 72.4894 143.737 74.3341 138.496 78.5222L125.791 88.6606C125.502 88.8908 125.242 89.1441 125.008 89.4128L124.754 89.1024C123.365 87.3958 120.854 87.147 119.147 88.5467L114.849 92.0708C113.141 93.4706 112.885 95.9886 114.274 97.6953L142.081 131.843C143.471 133.55 145.981 133.799 147.688 132.399L151.987 128.875C153.527 127.612 153.887 125.438 152.921 123.771C153.054 123.681 153.184 123.587 153.312 123.485L166.022 113.344C171.288 109.135 174.497 103.36 175.427 97.436C175.641 96.0669 175.222 94.6994 174.414 93.5835L236.253 44.8679L221.055 25.9993Z" fill="#222222"/>
<path d="M148.904 132.327C148.748 132.108 148.601 131.882 148.465 131.648C148.196 131.188 147.894 130.741 147.556 130.312L116.442 90.8011C116.229 90.5304 116.047 90.234 115.876 89.9306C114.688 87.8218 112.754 86.1249 110.306 85.2924L67.4161 70.7005C58.5639 67.5906 49.2796 72.4618 46.5609 81.0158C46.2943 81.8548 45.9104 82.6562 45.3467 83.3102L11.4395 122.653C9.8133 124.539 9.69678 127.388 11.165 129.364L11.3152 129.567C12.8725 131.663 15.6986 132.098 17.8003 130.564L54.9357 103.466C56.2015 102.542 57.7829 102.347 59.2732 102.647C60.1287 102.819 61.009 102.925 61.9092 102.96L95.8388 104.285C97.1853 104.338 98.4406 104.989 99.3015 106.083L126.867 141.085C127.953 142.464 128.27 144.363 127.703 146.086L117.293 177.721C116.938 178.797 116.284 179.757 115.342 180.3L74.6831 203.721C72.198 205.153 71.3425 208.52 72.8245 211.036C73.9458 212.94 76.1132 213.815 78.1625 213.193L125.069 198.938C126.105 198.623 127.198 198.707 128.221 199.034C128.657 199.173 129.103 199.295 129.558 199.4C139.677 201.731 149.236 194.255 149.439 183.85L150.774 138.496C150.841 136.215 150.139 134.073 148.904 132.327Z" fill="#222222"/>
<path d="M244.633 21.542L323.276 35.2917C325.446 35.6711 326.92 37.7445 326.567 39.9227L323.393 59.5216C323.04 61.6998 320.994 63.1579 318.824 62.7784L240.181 49.0288C238.011 48.6493 236.537 46.5759 236.89 44.3978L240.065 24.7989C240.417 22.6207 242.463 21.1626 244.633 21.542Z" fill="#222222"/>
<path d="M309.524 74.3748C309.164 76.5514 310.632 78.6185 312.803 78.9919L365.156 87.9958C382.054 90.9022 397.982 79.7758 400.732 63.144C403.481 46.5123 392.012 30.6739 375.113 27.7676L322.761 18.7636C320.59 18.3902 318.538 19.8519 318.178 22.0284L309.524 74.3748Z" fill="#222222"/>
<path d="M237.012 65.2239L272.801 71.346C274.973 71.7174 277.026 70.2545 277.388 68.0785L286.101 15.7071C286.463 13.5311 284.996 11.4661 282.825 11.0946L247.036 4.97259C230.113 2.07777 214.15 13.2189 211.382 29.8566C208.614 46.4946 220.089 62.3291 237.012 65.2239Z" fill="#222222"/>
<path d="M238.312 54.4126L242.757 55.5877C242.723 55.7168 239.353 68.8651 242.549 83.4777C246.772 102.793 259.982 115.507 281.81 121.266C301.858 126.555 320.394 121.874 336.903 107.351C349.383 96.3725 355.962 83.5925 356.027 83.4648L360.127 85.545C359.848 86.0947 353.152 99.1375 340.054 110.702C322.548 126.158 302.002 131.348 280.637 125.711C251.118 117.923 241.169 98.8881 238.021 84.291C234.641 68.6227 238.161 54.9853 238.312 54.4126Z" fill="#222222"/>
<path d="M487.458 202.056L421.659 229.602C416.929 231.582 414.594 236.782 416.443 241.218L417.274 243.209C419.123 247.645 424.456 249.635 429.186 247.655L494.985 220.109C499.715 218.129 502.05 212.928 500.2 208.493L499.37 206.501C497.521 202.066 492.188 200.076 487.458 202.056Z" fill="#222222"/>
<path d="M513.408 360.06C500.941 365.295 486.697 359.365 481.592 346.815L424.973 207.771L470.118 188.813L526.738 327.857C531.842 340.407 525.874 354.825 513.408 360.06Z" fill="#222222"/>
<path d="M497.854 210.328C502.598 208.324 504.696 202.763 502.453 198.143L432.369 53.8143C422.832 34.1742 399.764 25.5128 379.708 34.0417C359.652 42.5705 349.531 65.3459 356.605 86.0337L408.567 237.642C410.252 242.558 415.759 245.011 420.558 242.984L497.854 210.328Z" fill="#222222"/>
<path d="M419.945 62.12C425.523 75.6586 419.138 91.3168 405.71 97.0248C392.283 102.733 376.822 96.3623 371.244 82.8236C365.667 69.285 372.052 53.6269 385.479 47.9185C398.906 42.2109 414.368 48.5813 419.945 62.12ZM381.495 78.4658C384.725 86.3049 393.677 89.9934 401.452 86.6882C409.226 83.3831 412.924 74.3168 409.694 66.4778C406.464 58.6387 397.512 54.9498 389.738 58.2549C381.963 61.5601 378.266 70.6267 381.495 78.4658Z" fill="#222222"/>
<path d="M790.919 280.766C795.04 320.577 765.824 354.96 725.664 357.562L523.376 369.375C483.216 371.977 447.32 341.814 443.199 302.002C439.078 262.191 468.294 227.808 508.454 225.206L710.742 213.394C750.902 210.791 786.799 240.955 790.919 280.766Z" fill="#222222"/>
<path d="M707 211L831 211C839.284 211 846 204.284 846 196L846 169C846 160.716 839.284 154 831 154L707 154C698.715 154 692 160.716 692 169L692 196C692 204.284 698.715 211 707 211Z" fill="#222222"/>
<path d="M906 129.5L906 26.6685L631.45 26.6685L631.45 129.5C631.45 203.464 906 203.464 906 129.5Z" fill="#222222"/>
<path d="M643 52.0001L894 52.0001C907.255 52.0001 918 41.2549 918 28.0001L918 16C918 13.7909 916.209 12 914 12L623 12.0001C620.791 12.0001 619 13.7909 619 16.0001L619 28.0001C619 41.2549 629.745 52.0001 643 52.0001Z" fill="#222222"/>
<path d="M794.382 110.021C798.461 110.021 801.767 113.327 801.767 117.406C801.767 121.484 798.461 124.791 794.382 124.791C790.303 124.791 786.997 121.484 786.997 117.406C786.997 113.327 790.303 110.021 794.382 110.021Z" fill="#222222"/>
<path d="M769.35 110.021C773.429 110.021 776.735 113.327 776.735 117.406C776.735 121.484 773.429 124.791 769.35 124.791C765.272 124.791 761.965 121.484 761.965 117.406C761.966 113.327 765.272 110.021 769.35 110.021Z" fill="#222222"/>
<path d="M744.318 110.021C748.396 110.021 751.703 113.327 751.703 117.406C751.703 121.484 748.396 124.791 744.318 124.791C740.239 124.791 736.933 121.484 736.933 117.406C736.933 113.327 740.239 110.021 744.318 110.021Z" fill="#222222"/>
<path d="M719.29 110.021C723.369 110.021 726.675 113.327 726.675 117.406C726.675 121.484 723.369 124.791 719.29 124.791C715.212 124.791 711.905 121.484 711.905 117.406C711.905 113.327 715.212 110.021 719.29 110.021Z" fill="#222222"/>
<path d="M830.409 59.0788L874.687 59.0788L874.687 99.739L830.409 99.739L830.409 59.0788ZM874.002 59.7637L831.093 59.7637L831.093 99.0544L874.002 99.0544L874.002 59.7637Z" fill="#222222"/>
<path d="M705.682 190H831L831 243.761C831 278.366 802.947 306.42 768.341 306.42C733.735 306.42 705.682 278.366 705.682 243.761L705.682 190Z" fill="#222222"/>
<path d="M786.315 266.205C798.206 255.893 799.485 237.894 789.174 226.003C778.862 214.112 760.864 212.83 748.973 223.142C737.08 233.455 735.801 251.454 746.112 263.345C756.424 275.235 774.423 276.518 786.315 266.205ZM756.478 231.797C763.588 225.632 774.351 226.397 780.518 233.509C786.686 240.621 785.92 251.384 778.81 257.549C771.698 263.716 760.935 262.95 754.768 255.839C748.601 248.727 749.367 237.964 756.478 231.797Z" fill="#222222"/>
</svg>
