<svg width="1200" height="177" viewBox="0 0 1200 177" fill="none" xmlns="http://www.w3.org/2000/svg">
<path d="M51.9814 176.89H8.45996C9.19055 175.014 10.151 173.253 11.3438 171.682L141.689 0H186.281L51.9814 176.89ZM128.284 176.89H84.7617C85.4924 175.013 86.4535 173.253 87.6465 171.682L217.991 0H262.583L128.284 176.89ZM204.586 176.89H161.063C161.794 175.013 162.755 173.253 163.948 171.682L294.294 0H338.886L204.586 176.89ZM280.888 176.89H237.365C238.096 175.013 239.057 173.253 240.25 171.682L370.596 0H415.188L280.888 176.89ZM357.189 176.89H313.667C314.398 175.013 315.359 173.253 316.552 171.682L446.897 0H491.489L357.189 176.89ZM433.491 176.89H389.969C390.699 175.013 391.661 173.253 392.854 171.682L523.199 0H567.791L433.491 176.89ZM509.793 176.89H466.271C467.002 175.014 467.962 173.253 469.155 171.682L599.501 0H644.093L509.793 176.89ZM586.095 176.89H542.573C543.304 175.014 544.264 173.253 545.457 171.682L675.803 0H720.395L586.095 176.89ZM662.396 176.89H618.875C619.606 175.014 620.566 173.253 621.759 171.682L752.104 0H796.696L662.396 176.89ZM738.698 176.89H695.177C695.907 175.014 696.868 173.253 698.061 171.682L828.406 0H872.998L738.698 176.89ZM815 176.89H771.479C772.209 175.014 773.17 173.253 774.362 171.682L904.708 0H949.3L815 176.89ZM891.302 176.89H847.78C848.511 175.014 849.471 173.253 850.664 171.682L981.01 0H1025.6L891.302 176.89ZM967.604 176.89H924.082C924.813 175.014 925.773 173.253 926.966 171.682L1057.31 0H1101.9L967.604 176.89ZM1043.91 176.89H1000.38C1001.11 175.014 1002.07 173.253 1003.27 171.682L1133.61 0H1178.21L1043.91 176.89ZM1200 71.793L1120.21 176.89H1076.69C1077.42 175.013 1078.38 173.253 1079.57 171.682L1200 13.0605V71.793ZM1200 172.292L1196.51 176.89H1152.99C1153.72 175.013 1154.68 173.253 1155.87 171.682L1200 113.56V172.292ZM0 144.856V86.123L65.3877 0H109.979L0 144.856ZM0 44.3574V0H33.6777L0 44.3574Z" fill="#EBEBEB"/>
</svg>
