<svg width="1280" height="138" viewBox="0 0 1280 138" fill="none" xmlns="http://www.w3.org/2000/svg">
<path d="M118.982 0H4C1.79086 0 0 1.79086 0 4V133.771C0 135.98 1.79088 137.771 4.00002 137.771H1276C1278.21 137.771 1280 135.98 1280 133.771V4C1280 1.79086 1278.21 0 1276 0H1123.65C1122.22 0 1120.9 0.762361 1120.19 1.99992L1083.17 66.1167C1082.45 67.3542 1081.13 68.1166 1079.7 68.1166H653.633C652.572 68.1166 651.555 67.6952 650.804 66.9451L604.804 20.9473C604.054 20.1972 603.037 19.7758 601.976 19.7758H436.307C435.247 19.7758 434.229 20.1972 433.479 20.9473L409.893 44.5325C409.142 45.2826 408.125 45.704 407.064 45.704H168.002C166.941 45.704 165.924 45.2826 165.174 44.5325L121.81 1.1715C121.06 0.421399 120.043 0 118.982 0Z" fill="#222222"/>
</svg>
