<svg width="1200" height="945" viewBox="0 0 1200 945" fill="none" xmlns="http://www.w3.org/2000/svg" xmlns:xlink="http://www.w3.org/1999/xlink">
<g clip-path="url(#clip0_104_2339)">
<g clip-path="url(#clip1_104_2339)">
<path d="M263.996 146.03C266.8 144.997 269.911 146.432 270.945 149.236L300.481 229.363L297.59 231.777L246.185 201.512L273.287 270.806L270.557 273.336L199.444 239.089L232.891 329.557L230.543 332.195L128.991 307.477L186.531 391.522L184.557 394.627L56.5041 373.603L121.277 482.682L119.226 485.675L-31.9378 460.229L51.8596 566.022L49.994 569.242L-102.838 546.182L-33.4658 636.868L-35.154 640.081L-175.766 633.074L-109.713 718.521L-111.272 721.744L-249.559 723.36L-188.425 792.521L-189.953 795.845L-306.614 794.059L-253.395 853.968L-255.046 857.29L-364.03 848.777L-364.032 848.778C-364.506 848.74 -364.967 848.642 -365.404 848.488C-367.661 847.696 -369.198 845.464 -369.003 842.962L-369.002 842.961C-368.769 839.983 -366.167 837.756 -363.188 837.989L-276.015 844.798L-328.016 786.261L-326.49 782.933L-209.764 784.719L-270.428 716.091L-268.953 712.766L-129.103 711.13L-196.044 624.536L-194.363 621.315L-53.6238 628.326L-124.695 535.419L-122.808 532.226L29.4861 555.203L-54.6653 448.965L-52.7655 445.751L102.258 471.845L37.5349 362.854L39.5782 359.859L165.942 380.604L107.055 294.593L109.177 291.519L216.992 317.76L181.723 222.362L184.467 219.866L255.037 253.851L226.815 181.697L229.693 179.245L281.777 209.909L260.791 152.979C259.757 150.175 261.192 147.065 263.996 146.031L263.996 146.03Z" fill="#4B4B4B" stroke="#4B4B4B" stroke-width="4" stroke-linejoin="bevel"/>
<path d="M-466.991 819.731L-469.396 817.271L-76.8912 435.148L295.723 28.4289L298.265 30.748L-74.4146 437.539L-74.4496 437.573L-466.991 819.731Z" fill="#4B4B4B" stroke="#4B4B4B" stroke-width="2"/>
<path d="M400.304 28.1088C406.35 28.3015 410.782 30.6917 413.891 33.4474C416.724 35.9583 419.371 39.7549 420.248 45.3697C421.123 50.9661 420.225 58.2818 416.146 67.8287C411.949 77.6507 406.138 85.8162 405.879 86.1774L85.1425 537.852L85.0835 537.935L85.0107 538.004L84.5097 538.473L-303.722 902.206L-304.451 902.89L-305.135 902.16L-314.462 892.205L-315.145 891.475L-314.416 890.792L73.2423 527.594L393.143 77.0979L393.144 77.0955L393.145 77.0937C393.146 77.0925 393.148 77.0907 393.149 77.0888C393.152 77.0845 393.156 77.0781 393.162 77.0704C393.173 77.0548 393.189 77.0322 393.209 77.0033C393.25 76.9449 393.309 76.8602 393.385 76.7503C393.536 76.5301 393.755 76.2091 394.027 75.8C394.57 74.9818 395.327 73.8103 396.192 72.3819C397.925 69.5212 400.083 65.6446 401.834 61.5125C402.694 59.4852 403.999 56.0612 404.61 52.7424C404.915 51.0816 405.037 49.4993 404.868 48.1569C404.71 46.8989 404.309 45.9345 403.651 45.2796L403.516 45.1524C402.002 43.8105 399.806 43.4615 397.019 43.9927C394.237 44.5228 391.046 45.9019 387.783 47.7576C381.264 51.465 374.702 56.9349 370.988 60.6932L370.978 60.7023L370.86 60.819L370.851 60.8275L-31.384 448.333L-369.778 858.807L-370.414 859.579L-371.185 858.943L-381.712 850.264L-382.484 849.629L-381.847 848.857L-42.9196 437.738L-42.8831 437.693L-42.8423 437.654L-42.5606 437.382L359.947 49.6126C360.852 48.7079 368.18 41.488 377.416 35.7284C386.74 29.9143 394.273 27.9167 400.304 28.1088Z" fill="#4B4B4B" stroke="#4B4B4B" stroke-width="2"/>
<path d="M-155.086 188.765L-155.862 185.445L303.823 77.9524L297.22 75.0314L-157.701 177.813L-158.453 174.487L297.568 71.4563L314.517 78.9543L-155.086 188.765Z" fill="#4B4B4B" stroke="#4B4B4B" stroke-width="2"/>
<path d="M328.528 19.1992C345.264 25.076 354.066 43.4068 348.19 60.1423C342.313 76.8777 323.982 85.6804 307.246 79.8036C290.511 73.9267 281.708 55.5959 287.585 38.8605C293.462 22.1251 311.793 13.3224 328.528 19.1992Z" fill="#4B4B4B" stroke="#4B4B4B"/>
<path d="M328.528 19.1992C345.264 25.0761 354.066 43.4069 348.19 60.1423C342.313 76.8776 323.982 85.6803 307.246 79.8036C290.511 73.9268 281.708 55.5958 287.585 38.8605C293.462 22.1252 311.793 13.3225 328.528 19.1992ZM326.599 24.6917C312.919 19.8877 297.882 27.1089 293.078 40.7892C288.274 54.47 295.494 69.5069 309.175 74.3111C322.856 79.1152 337.894 71.8947 342.698 58.2138C347.502 44.5331 340.28 29.4958 326.599 24.6917Z" fill="#4B4B4B" stroke="#4B4B4B"/>
<path d="M413.649 54.8367C436.755 62.9507 448.908 88.2594 440.794 111.365C432.68 134.471 407.372 146.624 384.267 138.51C361.161 130.397 349.007 105.088 357.12 81.9825C365.234 58.8766 390.543 46.7229 413.649 54.8367Z" fill="#4B4B4B" stroke="#4B4B4B"/>
<path d="M413.649 54.8367C436.755 62.9506 448.909 88.2595 440.795 111.365C432.681 134.471 407.372 146.625 384.266 138.511C361.16 130.397 349.007 105.088 357.12 81.9825C365.234 58.8765 390.543 46.7229 413.649 54.8367ZM409.461 66.7643C392.969 60.9729 374.84 69.6784 369.048 86.1709C363.257 102.663 371.962 120.792 388.455 126.584C404.947 132.375 423.075 123.669 428.866 107.177C434.658 90.6842 425.953 72.5558 409.461 66.7643Z" fill="#4B4B4B" stroke="#4B4B4B"/>
<path d="M387.643 31.7747C390.54 30.7404 393.75 31.1421 396.282 32.8824C401.459 36.441 401.763 43.9754 396.89 47.9401L316.147 113.637C310.261 118.427 301.608 116.25 299.246 109.109C296.363 100.392 293.238 88.9062 292.252 77.7913C291.265 66.6549 292.434 56.0063 298.011 48.86C303.814 41.424 310.348 39.5507 316.635 39.9295C322.982 40.312 329.062 42.981 333.985 44.7098C335.054 45.085 336.501 45.2101 338.199 45.1575C339.907 45.1047 341.912 44.8703 344.119 44.5009C348.535 43.7619 353.802 42.4728 359.203 40.9606C370.006 37.9355 381.387 34.0076 387.643 31.7747Z" fill="#4B4B4B" stroke="#4B4B4B"/>
<path d="M315.466 44.2945C318.328 42.92 321.764 44.1257 323.138 46.9878C324.513 49.8501 323.306 53.2856 320.444 54.6601C317.582 56.0345 314.147 54.8277 312.773 51.9655C311.398 49.1033 312.604 45.669 315.466 44.2945Z" fill="#4B4B4B" stroke="#4B4B4B"/>
<path d="M396.192 63.7702C397.123 64.9081 398.444 66.5617 400.003 68.6204C403.122 72.7388 407.188 78.4752 410.982 84.9518C414.778 91.4314 418.292 98.636 420.318 105.691C422.345 112.752 422.867 119.609 420.749 125.431C417.806 133.52 412.74 136.958 407.282 138.368C401.764 139.794 395.857 139.154 391.174 139.012C389.907 138.974 388.243 139.435 386.348 140.213C384.437 140.997 382.232 142.129 379.862 143.486C375.12 146.201 369.677 149.841 364.534 153.483C359.389 157.127 354.534 160.779 350.966 163.519C349.182 164.89 347.72 166.032 346.703 166.832C346.194 167.232 345.797 167.547 345.527 167.762C345.447 167.825 345.378 167.88 345.321 167.925L330.416 163.312L395.157 62.5229C395.406 62.8183 395.756 63.2378 396.192 63.7702Z" fill="#4B4B4B" stroke="#4B4B4B"/>
<path d="M425.906 100.31C428.218 98.1339 431.857 98.2436 434.033 100.556C436.209 102.868 436.099 106.507 433.787 108.684C431.474 110.859 427.836 110.749 425.66 108.436C423.484 106.124 423.594 102.486 425.906 100.31Z" fill="#4B4B4B" stroke="#4B4B4B"/>
<path d="M382.343 34.126C392.191 29.09 404.147 26.2921 413.315 34.5483C417.659 38.4603 419.353 43.4945 419.436 48.8925C419.52 54.304 417.983 60.0637 415.874 65.3592C413.767 70.6496 411.103 75.4458 408.963 78.9222C407.893 80.6594 406.956 82.0651 406.287 83.0355C405.952 83.5206 405.684 83.8971 405.5 84.1515C405.409 84.2786 405.338 84.3754 405.29 84.44C405.267 84.4721 405.249 84.4963 405.237 84.5123C405.231 84.5203 405.226 84.5264 405.223 84.5303C405.222 84.532 405.222 84.5337 405.221 84.5346L405.219 84.5361L405.211 84.5468L319.722 204.997L264.611 143.556L365.056 46.2659L365.059 46.2656C365.062 46.2624 365.067 46.257 365.074 46.2504C365.088 46.2372 365.109 46.2178 365.137 46.1918C365.194 46.1392 365.278 46.0601 365.389 45.9583C365.611 45.7548 365.941 45.4575 366.368 45.0847C367.221 44.3386 368.464 43.2901 370.014 42.0843C373.115 39.6712 377.44 36.6336 382.343 34.126Z" fill="#4B4B4B" stroke="#4B4B4B"/>
<path d="M327.114 182.445L318.735 193.652L297.372 124.079L306.334 114.786L327.114 182.445Z" fill="#4B4B4B" stroke="#4B4B4B"/>
<path d="M342.826 164.466L334.45 175.667L313.515 105.894L322.474 96.6043L342.826 164.466Z" fill="#4B4B4B" stroke="#4B4B4B"/>
<path d="M401.824 76.7457L393.445 87.9523L379.907 43.6292L389.942 37.8494L401.824 76.7457Z" fill="#4B4B4B" stroke="#4B4B4B"/>
<path d="M415.063 51.7437L408.324 67.546L398.383 35.002L410.673 37.0469L415.063 51.7437Z" fill="#4B4B4B" stroke="#4B4B4B"/>
<path d="M307.736 191.633L290.003 171.864L280.6 140.962L289.56 131.672L307.736 191.633Z" fill="#4B4B4B" stroke="#4B4B4B"/>
</g>
<path d="M388.848 401.962C388.173 410.535 417.621 421.325 415.754 445.049C413.32 475.984 396.419 481.786 374.345 480.049C345.409 477.772 345.557 438.641 345.811 433.172C346.065 427.71 360.275 431.434 360.94 435.994C361.602 440.556 362.044 454.845 374.345 455.974C385.549 457.003 391.478 444.918 388.777 436.914C384.506 424.265 364.717 412.641 365.447 403.353C366.122 394.785 367.315 382.369 367.315 382.369L390.248 384.174C390.248 384.174 389.523 393.387 388.848 401.962Z" fill="#4B4B4B"/>
<path d="M341.878 335.732C341.878 356.032 358.329 372.484 378.628 372.484C398.912 372.484 415.358 356.032 415.358 335.732C415.358 315.445 398.911 299 378.628 299C358.329 298.999 341.878 315.445 341.878 335.732Z" fill="#4B4B4B"/>
<path d="M364.162 373.112C364.162 380.971 370.53 387.337 378.384 387.337C386.243 387.337 392.608 380.97 392.608 373.112C392.608 365.261 386.242 358.892 378.384 358.892C370.531 358.892 364.162 365.261 364.162 373.112Z" fill="#4B4B4B"/>
<path d="M358.001 386.15C358.83 387.891 360.587 389 362.515 389H395.201C397.13 389 398.887 387.891 399.716 386.15L417.873 348.02C418.192 347.348 418.358 346.614 418.358 345.87V325C418.358 322.239 416.12 320 413.358 320H344.358C341.597 320 339.358 322.239 339.358 325V345.87C339.358 346.614 339.524 347.348 339.844 348.02L358.001 386.15Z" fill="#4B4B4B"/>
<path d="M403.358 132L403.358 339H353.358L353.358 132" stroke="#4B4B4B" stroke-width="5"/>
</g>
<path d="M686.233 684H69.7666L378 466.062L686.233 684Z" stroke="#4B4B4B" stroke-width="5"/>
<rect x="1" y="663.287" width="796.181" height="281.614" fill="#FFBB0E"/>
<rect width="762" height="33" transform="translate(18 894)" fill="url(#pattern0_104_2339)"/>
<rect x="755.233" y="446.5" width="444.545" height="61.9395" fill="#4B4B4B"/>
<circle cx="1034.28" cy="472.631" r="102.265" fill="#D9D9D9"/>
<path d="M988.846 514.998V431.235H1054.63C1066.45 431.235 1075.03 433.575 1080.37 438.256C1085.71 442.855 1088.38 450.122 1088.38 460.059C1088.38 469.996 1085.71 477.304 1080.37 481.985C1075.03 486.584 1066.45 488.884 1054.63 488.884H1011.02V514.998H988.846ZM1011.02 449.342V470.776H1064.48V449.342H1011.02Z" fill="#222222"/>
<path d="M1083.92 534.071C1070.31 545.182 1052.95 551.836 1034.02 551.836C990.421 551.836 955.075 516.491 955.075 472.891C955.075 453.961 961.729 436.597 972.84 422.993L1083.92 534.071ZM1034.02 393.944C1077.62 393.944 1112.97 429.29 1112.97 472.891C1112.97 491.078 1106.82 507.817 1096.49 521.167L985.744 410.421C999.094 400.086 1015.83 393.944 1034.02 393.944Z" stroke="#4B4B4B" stroke-width="18.0144"/>
<path d="M750.367 381.012C759.555 365.097 782.527 365.097 791.715 381.012L873.015 521.828C882.204 537.743 870.718 557.636 852.341 557.636H689.741C671.364 557.636 659.878 537.743 669.067 521.828L750.367 381.012Z" fill="#FFBB0E"/>
<path d="M760.294 388.981C765.071 380.708 777.012 380.708 781.788 388.981L861.151 526.44C865.927 534.714 859.957 545.055 850.403 545.055H691.679C682.126 545.055 676.155 534.714 680.932 526.44L760.294 388.981Z" fill="#222222"/>
<path d="M779.715 491.336H761.44L756.836 461.406V420.396H784.32V461.406L779.715 491.336ZM785.327 524H755.828V504.286H785.327V524Z" fill="#FFBB0E"/>
<rect x="1073.32" y="159.384" width="126.46" height="16.7753" fill="#4B4B4B"/>
<rect x="1073.32" y="280.682" width="126.46" height="16.7753" fill="#4B4B4B"/>
<path d="M527 157C527 145.954 535.954 137 547 137H1071C1082.05 137 1091 145.954 1091 157V290C1091 301.046 1082.05 310 1071 310H547C535.954 310 527 301.046 527 290V157Z" fill="#FFBB0E"/>
<path d="M557 155.5H1061C1067.35 155.5 1072.5 160.649 1072.5 167V280C1072.5 286.351 1067.35 291.5 1061 291.5H557C550.649 291.5 545.5 286.351 545.5 280V167C545.5 160.649 550.649 155.5 557 155.5Z" stroke="#222222" stroke-width="5"/>
<rect x="640.301" y="238.274" width="333.883" height="18.4515" fill="#222222"/>
<path d="M988.502 246.058C989.32 246.845 989.32 248.154 988.502 248.941L971.64 265.166C970.37 266.389 968.254 265.488 968.254 263.725L968.254 231.274C968.254 229.511 970.37 228.61 971.64 229.833L988.502 246.058Z" fill="#222222"/>
<path d="M629.498 246.058C628.68 246.845 628.68 248.154 629.498 248.941L646.36 265.166C647.63 266.389 649.746 265.488 649.746 263.725L649.746 231.274C649.746 229.511 647.63 228.61 646.36 229.833L629.498 246.058Z" fill="#222222"/>
<defs>
<clipPath id="clip0_104_2339">
<rect width="486" height="685" fill="white"/>
</clipPath>
<clipPath id="clip1_104_2339">
<rect width="717.071" height="1046.09" fill="white" transform="translate(28.3042 -105.026) rotate(19.3492)"/>
</clipPath>
<pattern id="pattern0_104_2339" patternUnits="userSpaceOnUse" patternTransform="matrix(53.9051 0 0 107.81 -4.72426 -4.72381)" preserveAspectRatio="none" viewBox="-10.2539 -10.2529 117 234" width="1" height="1">
<use xlink:href="#pattern0_104_2339_inner" transform="translate(-351 -234)"/>
<use xlink:href="#pattern0_104_2339_inner" transform="translate(-234 -234)"/>
<use xlink:href="#pattern0_104_2339_inner" transform="translate(-117 -234)"/>
<use xlink:href="#pattern0_104_2339_inner" transform="translate(0 -234)"/>
<use xlink:href="#pattern0_104_2339_inner" transform="translate(-292.5 -117)"/>
<use xlink:href="#pattern0_104_2339_inner" transform="translate(-175.5 -117)"/>
<use xlink:href="#pattern0_104_2339_inner" transform="translate(-58.5 -117)"/>
<use xlink:href="#pattern0_104_2339_inner" transform="translate(58.5 -117)"/>
<use xlink:href="#pattern0_104_2339_inner" transform="translate(-351 0)"/>
<use xlink:href="#pattern0_104_2339_inner" transform="translate(-234 0)"/>
<use xlink:href="#pattern0_104_2339_inner" transform="translate(-117 0)"/>
<g id="pattern0_104_2339_inner">
<path d="M0 234L234 0" stroke="#222222" stroke-width="29"/>
</g>
<use xlink:href="#pattern0_104_2339_inner" transform="translate(-292.5 117)"/>
<use xlink:href="#pattern0_104_2339_inner" transform="translate(-175.5 117)"/>
<use xlink:href="#pattern0_104_2339_inner" transform="translate(-58.5 117)"/>
<use xlink:href="#pattern0_104_2339_inner" transform="translate(58.5 117)"/>
</pattern></defs>
</svg>
