<svg width="1187" height="295" viewBox="0 0 1187 295" fill="none" xmlns="http://www.w3.org/2000/svg">
<path d="M984.39 207.725C993.58 207.725 1001.91 211.454 1007.93 217.478C1013.96 223.502 1017.69 231.821 1017.69 241.021C1017.69 250.221 1013.96 258.54 1007.93 264.565C1001.91 270.589 993.591 274.318 984.39 274.318C975.19 274.318 966.871 270.589 960.847 264.565C954.823 258.54 951.094 250.221 951.094 241.021C951.094 231.821 954.823 223.502 960.847 217.478C966.871 211.454 975.19 207.725 984.39 207.725ZM999.779 225.633C995.844 221.699 990.404 219.261 984.39 219.261C978.377 219.261 972.947 221.699 969.002 225.633C965.068 229.567 962.63 235.007 962.63 241.021C962.63 247.035 965.068 252.465 969.002 256.409C972.936 260.344 978.377 262.782 984.39 262.782C990.404 262.782 995.834 260.344 999.779 256.409C1003.71 252.475 1006.15 247.035 1006.15 241.021C1006.15 235.007 1003.71 229.577 999.779 225.633Z" fill="#4B4B4B"/>
<path d="M1090.43 207.725C1099.62 207.725 1107.95 211.454 1113.97 217.478C1120 223.502 1123.73 231.821 1123.73 241.021C1123.73 250.221 1120 258.54 1113.97 264.565C1107.95 270.589 1099.63 274.318 1090.43 274.318C1081.23 274.318 1072.91 270.589 1066.89 264.565C1060.86 258.54 1057.13 250.221 1057.13 241.021C1057.13 231.821 1060.86 223.502 1066.89 217.478C1072.91 211.454 1081.23 207.725 1090.43 207.725ZM1105.82 225.633C1101.88 221.699 1096.44 219.261 1090.43 219.261C1084.42 219.261 1078.99 221.699 1075.04 225.633C1071.11 229.567 1068.67 235.007 1068.67 241.021C1068.67 247.035 1071.11 252.465 1075.04 256.409C1078.98 260.344 1084.42 262.782 1090.43 262.782C1096.44 262.782 1101.87 260.344 1105.82 256.409C1109.75 252.475 1112.19 247.035 1112.19 241.021C1112.19 235.007 1109.75 229.577 1105.82 225.633Z" fill="#4B4B4B"/>
<path fill-rule="evenodd" clip-rule="evenodd" d="M918.393 231.921L930.387 231.677L936.301 249.99L910.328 249.365C910.14 249.374 909.944 249.394 909.752 249.392C909.645 249.389 909.548 249.383 909.454 249.388L762.697 249.389C757.945 249.389 754.05 245.501 754.05 240.749C754.049 235.998 757.938 232.102 762.689 232.102L901.121 232.104L901.176 143.765C901.176 139.014 905.064 135.119 909.816 135.118C914.567 135.118 918.462 139.006 918.463 143.758L918.405 231.928L918.393 231.921Z" fill="#4B4B4B"/>
<path fill-rule="evenodd" clip-rule="evenodd" d="M964.671 71.3924L920.576 234.792C921.211 237.691 919.926 247.711 923 248.5C923.113 248.531 923.847 249.5 924.5 249.5L935 250L945.82 250.109C945.492 248.07 945.328 243.111 945.328 241.021C945.328 230.633 949.426 220.746 956.772 213.4C964.118 206.054 974.005 201.956 984.393 201.956C994.782 201.956 1004.67 206.054 1012.01 213.4C1019.36 220.746 1023.46 230.633 1023.46 241.021C1023.46 242.804 1023.33 244.566 1023.1 246.308L1051.7 245.969C1051.5 244.341 1051.39 242.691 1051.39 241.021C1051.39 230.633 1055.48 220.746 1062.83 213.4C1070.18 206.054 1080.06 201.956 1090.45 201.956C1100.84 201.956 1110.73 206.054 1118.07 213.4C1125.42 220.746 1129.52 230.633 1129.52 241.021C1129.52 242.394 1129.44 243.757 1129.3 245.109L1180.04 244.781C1180.2 244.791 1180.36 244.802 1180.52 244.802C1183.7 244.802 1186.28 242.22 1186.28 239.034V141.049C1186.28 137.863 1183.7 135.281 1180.52 135.281H1100.92V30.9856C1100.92 27.7994 1098.34 25.2176 1095.15 25.2176H1012.05C1011.43 25.2074 1010.79 25.2894 1010.17 25.4943V25.5147C971.669 37.8909 965.337 67.6837 964.692 71.3822L964.671 71.3924ZM991.032 129.564C987.846 129.564 985.264 126.983 985.264 123.796C985.264 123.171 985.366 122.557 985.551 121.993L999.238 71.2593C999.587 69.3229 1001.05 62.7353 1005.55 55.1027C1006.64 53.2483 1008.59 52.2341 1010.6 52.2648H1033.07C1039.38 52.2648 1045.13 54.8465 1049.28 58.9958C1053.44 63.1553 1056.01 68.8926 1056.01 75.2036V106.615C1056.01 112.936 1053.42 118.674 1049.28 122.823C1045.12 126.983 1039.38 129.554 1033.07 129.554H991.042L991.032 129.564Z" fill="#4B4B4B"/>
<rect y="227" width="385" height="10.0164" fill="#4B4B4B"/>
<rect y="263.983" width="385" height="10.0164" fill="#4B4B4B"/>
<rect x="18.332" y="234.013" width="50.4056" height="32.9757" fill="#4B4B4B"/>
<rect x="167.665" y="234.013" width="50.4056" height="32.9757" fill="#4B4B4B"/>
<rect x="316.997" y="234.013" width="50.4056" height="32.9757" fill="#4B4B4B"/>
<rect x="24.0005" y="86" width="133" height="133" fill="#D9D9D9"/>
<rect x="165" y="86" width="133" height="133" fill="#D9D9D9"/>
<rect x="557" y="141" width="133" height="133" fill="#D9D9D9"/>
<rect x="458" width="133" height="133" fill="#D9D9D9"/>
<rect x="416" y="141" width="133" height="133" fill="#D9D9D9"/>
<rect x="760" y="91" width="133" height="133" fill="#D9D9D9"/>
</svg>
