<svg width="174" height="174" viewBox="0 0 174 174" fill="none" xmlns="http://www.w3.org/2000/svg">
<g clip-path="url(#clip0_104_1770)">
<path d="M69.3739 0H62.4365V6.93736H69.3739V0Z" fill="#222222"/>
<path d="M104.06 0H97.123V6.93736H104.06V0Z" fill="#222222"/>
<path d="M117.935 0H110.998V6.93736H117.935V0Z" fill="#222222"/>
<path d="M62.4369 6.9375H55.4995V13.8749H62.4369V6.9375Z" fill="#222222"/>
<path d="M69.3739 6.9375H62.4365V13.8749H69.3739V6.9375Z" fill="#222222"/>
<path d="M83.2499 6.9375H76.3125V13.8749H83.2499V6.9375Z" fill="#222222"/>
<path d="M90.1864 6.9375H83.249V13.8749H90.1864V6.9375Z" fill="#222222"/>
<path d="M97.1239 6.9375H90.1865V13.8749H97.1239V6.9375Z" fill="#222222"/>
<path d="M104.06 6.9375H97.123V13.8749H104.06V6.9375Z" fill="#222222"/>
<path d="M69.3739 13.875H62.4365V20.8124H69.3739V13.875Z" fill="#222222"/>
<path d="M76.3109 13.875H69.3735V20.8124H76.3109V13.875Z" fill="#222222"/>
<path d="M83.2494 13.875H76.312V20.8124H83.2494V13.875Z" fill="#222222"/>
<path d="M62.4369 20.8115H55.4995V27.7489H62.4369V20.8115Z" fill="#222222"/>
<path d="M69.3739 20.8115H62.4365V27.7489H69.3739V20.8115Z" fill="#222222"/>
<path d="M83.2499 20.8115H76.3125V27.7489H83.2499V20.8115Z" fill="#222222"/>
<path d="M97.1239 20.8115H90.1865V27.7489H97.1239V20.8115Z" fill="#222222"/>
<path d="M110.998 20.8115H104.061V27.7489H110.998V20.8115Z" fill="#222222"/>
<path d="M117.934 20.8115H110.997V27.7489H117.934V20.8115Z" fill="#222222"/>
<path d="M76.3109 27.749H69.3735V34.6864H76.3109V27.749Z" fill="#222222"/>
<path d="M90.1864 27.749H83.249V34.6864H90.1864V27.749Z" fill="#222222"/>
<path d="M110.998 27.749H104.061V34.6864H110.998V27.749Z" fill="#222222"/>
<path d="M117.935 27.749H110.998V34.6864H117.935V27.749Z" fill="#222222"/>
<path d="M62.4369 34.6865H55.4995V41.6239H62.4369V34.6865Z" fill="#222222"/>
<path d="M76.3109 34.6865H69.3735V41.6239H76.3109V34.6865Z" fill="#222222"/>
<path d="M97.1234 34.6865H90.186V41.6239H97.1234V34.6865Z" fill="#222222"/>
<path d="M104.06 34.6865H97.123V41.6239H104.06V34.6865Z" fill="#222222"/>
<path d="M110.998 34.6865H104.061V41.6239H110.998V34.6865Z" fill="#222222"/>
<path d="M62.4369 41.625H55.4995V48.5624H62.4369V41.625Z" fill="#222222"/>
<path d="M76.3109 41.625H69.3735V48.5624H76.3109V41.625Z" fill="#222222"/>
<path d="M90.1864 41.625H83.249V48.5624H90.1864V41.625Z" fill="#222222"/>
<path d="M104.06 41.625H97.123V48.5624H104.06V41.625Z" fill="#222222"/>
<path d="M117.934 41.625H110.997V48.5624H117.934V41.625Z" fill="#222222"/>
<path d="M90.1864 48.5605H83.249V55.4979H90.1864V48.5605Z" fill="#222222"/>
<path d="M117.934 48.5605H110.997V55.4979H117.934V48.5605Z" fill="#222222"/>
<path d="M6.93736 55.499H0V62.4364H6.93736V55.499Z" fill="#222222"/>
<path d="M13.8744 55.499H6.93701V62.4364H13.8744V55.499Z" fill="#222222"/>
<path d="M20.8114 55.499H13.874V62.4364H20.8114V55.499Z" fill="#222222"/>
<path d="M27.7499 55.499H20.8125V62.4364H27.7499V55.499Z" fill="#222222"/>
<path d="M34.6874 55.499H27.75V62.4364H34.6874V55.499Z" fill="#222222"/>
<path d="M48.5614 55.499H41.624V62.4364H48.5614V55.499Z" fill="#222222"/>
<path d="M55.4979 55.499H48.5605V62.4364H55.4979V55.499Z" fill="#222222"/>
<path d="M62.4369 55.499H55.4995V62.4364H62.4369V55.499Z" fill="#222222"/>
<path d="M69.3739 55.499H62.4365V62.4364H69.3739V55.499Z" fill="#222222"/>
<path d="M76.3109 55.499H69.3735V62.4364H76.3109V55.499Z" fill="#222222"/>
<path d="M90.1864 55.499H83.249V62.4364H90.1864V55.499Z" fill="#222222"/>
<path d="M97.1239 55.499H90.1865V62.4364H97.1239V55.499Z" fill="#222222"/>
<path d="M104.06 55.499H97.123V62.4364H104.06V55.499Z" fill="#222222"/>
<path d="M110.998 55.499H104.061V62.4364H110.998V55.499Z" fill="#222222"/>
<path d="M124.872 55.499H117.935V62.4364H124.872V55.499Z" fill="#222222"/>
<path d="M138.747 55.499H131.81V62.4364H138.747V55.499Z" fill="#222222"/>
<path d="M152.623 55.499H145.686V62.4364H152.623V55.499Z" fill="#222222"/>
<path d="M166.495 55.499H159.558V62.4364H166.495V55.499Z" fill="#222222"/>
<path d="M20.8114 62.4365H13.874V69.3739H20.8114V62.4365Z" fill="#222222"/>
<path d="M34.6874 62.4365H27.75V69.3739H34.6874V62.4365Z" fill="#222222"/>
<path d="M41.6224 62.4365H34.6851V69.3739H41.6224V62.4365Z" fill="#222222"/>
<path d="M55.4984 62.4365H48.561V69.3739H55.4984V62.4365Z" fill="#222222"/>
<path d="M69.3739 62.4365H62.4365V69.3739H69.3739V62.4365Z" fill="#222222"/>
<path d="M104.06 62.4365H97.123V69.3739H104.06V62.4365Z" fill="#222222"/>
<path d="M110.998 62.4365H104.061V69.3739H110.998V62.4365Z" fill="#222222"/>
<path d="M117.935 62.4365H110.998V69.3739H117.935V62.4365Z" fill="#222222"/>
<path d="M124.872 62.4365H117.935V69.3739H124.872V62.4365Z" fill="#222222"/>
<path d="M138.747 62.4365H131.81V69.3739H138.747V62.4365Z" fill="#222222"/>
<path d="M145.684 62.4365H138.747V69.3739H145.684V62.4365Z" fill="#222222"/>
<path d="M173.432 62.4365H166.495V69.3739H173.432V62.4365Z" fill="#222222"/>
<path d="M20.8114 69.373H13.874V76.3104H20.8114V69.373Z" fill="#222222"/>
<path d="M34.6874 69.373H27.75V76.3104H34.6874V69.373Z" fill="#222222"/>
<path d="M48.5614 69.373H41.624V76.3104H48.5614V69.373Z" fill="#222222"/>
<path d="M55.4979 69.373H48.5605V76.3104H55.4979V69.373Z" fill="#222222"/>
<path d="M69.3739 69.373H62.4365V76.3104H69.3739V69.373Z" fill="#222222"/>
<path d="M83.2499 69.373H76.3125V76.3104H83.2499V69.373Z" fill="#222222"/>
<path d="M90.1864 69.373H83.249V76.3104H90.1864V69.373Z" fill="#222222"/>
<path d="M104.06 69.373H97.123V76.3104H104.06V69.373Z" fill="#222222"/>
<path d="M110.998 69.373H104.061V76.3104H110.998V69.373Z" fill="#222222"/>
<path d="M124.872 69.373H117.935V76.3104H124.872V69.373Z" fill="#222222"/>
<path d="M131.81 69.373H124.873V76.3104H131.81V69.373Z" fill="#222222"/>
<path d="M145.684 69.373H138.747V76.3104H145.684V69.373Z" fill="#222222"/>
<path d="M159.56 69.373H152.623V76.3104H159.56V69.373Z" fill="#222222"/>
<path d="M6.93736 76.3115H0V83.2489H6.93736V76.3115Z" fill="#222222"/>
<path d="M27.7504 76.3115H20.813V83.2489H27.7504V76.3115Z" fill="#222222"/>
<path d="M34.6874 76.3115H27.75V83.2489H34.6874V76.3115Z" fill="#222222"/>
<path d="M55.4984 76.3115H48.561V83.2489H55.4984V76.3115Z" fill="#222222"/>
<path d="M62.4369 76.3115H55.4995V83.2489H62.4369V76.3115Z" fill="#222222"/>
<path d="M69.3739 76.3115H62.4365V83.2489H69.3739V76.3115Z" fill="#222222"/>
<path d="M76.3109 76.3115H69.3735V83.2489H76.3109V76.3115Z" fill="#222222"/>
<path d="M83.2494 76.3115H76.312V83.2489H83.2494V76.3115Z" fill="#222222"/>
<path d="M97.1234 76.3115H90.186V83.2489H97.1234V76.3115Z" fill="#222222"/>
<path d="M117.935 76.3115H110.998V83.2489H117.935V76.3115Z" fill="#222222"/>
<path d="M124.872 76.3115H117.935V83.2489H124.872V76.3115Z" fill="#222222"/>
<path d="M13.8744 83.2471H6.93701V90.1844H13.8744V83.2471Z" fill="#222222"/>
<path d="M20.8114 83.2471H13.874V90.1844H20.8114V83.2471Z" fill="#222222"/>
<path d="M34.6874 83.2471H27.75V90.1844H34.6874V83.2471Z" fill="#222222"/>
<path d="M48.5614 83.2471H41.624V90.1844H48.5614V83.2471Z" fill="#222222"/>
<path d="M69.3739 83.2471H62.4365V90.1844H69.3739V83.2471Z" fill="#222222"/>
<path d="M83.2499 83.2471H76.3125V90.1844H83.2499V83.2471Z" fill="#222222"/>
<path d="M104.06 83.2471H97.123V90.1844H104.06V83.2471Z" fill="#222222"/>
<path d="M110.998 83.2471H104.061V90.1844H110.998V83.2471Z" fill="#222222"/>
<path d="M131.81 83.2471H124.873V90.1844H131.81V83.2471Z" fill="#222222"/>
<path d="M138.747 83.2471H131.81V90.1844H138.747V83.2471Z" fill="#222222"/>
<path d="M145.684 83.2471H138.747V90.1844H145.684V83.2471Z" fill="#222222"/>
<path d="M152.623 83.2471H145.686V90.1844H152.623V83.2471Z" fill="#222222"/>
<path d="M166.495 83.2471H159.558V90.1844H166.495V83.2471Z" fill="#222222"/>
<path d="M173.432 83.2471H166.495V90.1844H173.432V83.2471Z" fill="#222222"/>
<path d="M6.93736 90.1855H0V97.1229H6.93736V90.1855Z" fill="#222222"/>
<path d="M20.8114 90.1855H13.874V97.1229H20.8114V90.1855Z" fill="#222222"/>
<path d="M34.6874 90.1855H27.75V97.1229H34.6874V90.1855Z" fill="#222222"/>
<path d="M55.4984 90.1855H48.561V97.1229H55.4984V90.1855Z" fill="#222222"/>
<path d="M76.3109 90.1855H69.3735V97.1229H76.3109V90.1855Z" fill="#222222"/>
<path d="M90.1864 90.1855H83.249V97.1229H90.1864V90.1855Z" fill="#222222"/>
<path d="M117.935 90.1855H110.998V97.1229H117.935V90.1855Z" fill="#222222"/>
<path d="M124.872 90.1855H117.935V97.1229H124.872V90.1855Z" fill="#222222"/>
<path d="M131.81 90.1855H124.873V97.1229H131.81V90.1855Z" fill="#222222"/>
<path d="M138.747 90.1855H131.81V97.1229H138.747V90.1855Z" fill="#222222"/>
<path d="M145.684 90.1855H138.747V97.1229H145.684V90.1855Z" fill="#222222"/>
<path d="M6.93736 97.123H0V104.06H6.93736V97.123Z" fill="#222222"/>
<path d="M20.8114 97.123H13.874V104.06H20.8114V97.123Z" fill="#222222"/>
<path d="M27.7504 97.123H20.813V104.06H27.7504V97.123Z" fill="#222222"/>
<path d="M48.5614 97.123H41.624V104.06H48.5614V97.123Z" fill="#222222"/>
<path d="M69.3739 97.123H62.4365V104.06H69.3739V97.123Z" fill="#222222"/>
<path d="M97.1234 97.123H90.186V104.06H97.1234V97.123Z" fill="#222222"/>
<path d="M104.06 97.123H97.123V104.06H104.06V97.123Z" fill="#222222"/>
<path d="M124.872 97.123H117.935V104.06H124.872V97.123Z" fill="#222222"/>
<path d="M131.81 97.123H124.873V104.06H131.81V97.123Z" fill="#222222"/>
<path d="M145.684 97.123H138.747V104.06H145.684V97.123Z" fill="#222222"/>
<path d="M159.56 97.123H152.623V104.06H159.56V97.123Z" fill="#222222"/>
<path d="M166.495 97.123H159.558V104.06H166.495V97.123Z" fill="#222222"/>
<path d="M173.432 97.123H166.495V104.06H173.432V97.123Z" fill="#222222"/>
<path d="M6.93736 104.061H0V110.998H6.93736V104.061Z" fill="#222222"/>
<path d="M34.6874 104.061H27.75V110.998H34.6874V104.061Z" fill="#222222"/>
<path d="M41.6229 104.061H34.6855V110.998H41.6229V104.061Z" fill="#222222"/>
<path d="M55.4979 104.061H48.5605V110.998H55.4979V104.061Z" fill="#222222"/>
<path d="M62.4369 104.061H55.4995V110.998H62.4369V104.061Z" fill="#222222"/>
<path d="M69.3739 104.061H62.4365V110.998H69.3739V104.061Z" fill="#222222"/>
<path d="M90.1864 104.061H83.249V110.998H90.1864V104.061Z" fill="#222222"/>
<path d="M124.872 104.061H117.935V110.998H124.872V104.061Z" fill="#222222"/>
<path d="M166.495 104.061H159.558V110.998H166.495V104.061Z" fill="#222222"/>
<path d="M173.432 104.061H166.495V110.998H173.432V104.061Z" fill="#222222"/>
<path d="M6.93736 110.997H0V117.934H6.93736V110.997Z" fill="#222222"/>
<path d="M20.8114 110.997H13.874V117.934H20.8114V110.997Z" fill="#222222"/>
<path d="M27.7504 110.997H20.813V117.934H27.7504V110.997Z" fill="#222222"/>
<path d="M34.6874 110.997H27.75V117.934H34.6874V110.997Z" fill="#222222"/>
<path d="M48.5614 110.997H41.624V117.934H48.5614V110.997Z" fill="#222222"/>
<path d="M55.4984 110.997H48.561V117.934H55.4984V110.997Z" fill="#222222"/>
<path d="M62.4369 110.997H55.4995V117.934H62.4369V110.997Z" fill="#222222"/>
<path d="M69.3739 110.997H62.4365V117.934H69.3739V110.997Z" fill="#222222"/>
<path d="M90.1864 110.997H83.249V117.934H90.1864V110.997Z" fill="#222222"/>
<path d="M97.1234 110.997H90.186V117.934H97.1234V110.997Z" fill="#222222"/>
<path d="M110.998 110.997H104.061V117.934H110.998V110.997Z" fill="#222222"/>
<path d="M117.935 110.997H110.998V117.934H117.935V110.997Z" fill="#222222"/>
<path d="M124.872 110.997H117.935V117.934H124.872V110.997Z" fill="#222222"/>
<path d="M131.81 110.997H124.873V117.934H131.81V110.997Z" fill="#222222"/>
<path d="M138.747 110.997H131.81V117.934H138.747V110.997Z" fill="#222222"/>
<path d="M145.684 110.997H138.747V117.934H145.684V110.997Z" fill="#222222"/>
<path d="M152.623 110.997H145.686V117.934H152.623V110.997Z" fill="#222222"/>
<path d="M173.432 110.997H166.495V117.934H173.432V110.997Z" fill="#222222"/>
<path d="M62.4369 117.936H55.4995V124.873H62.4369V117.936Z" fill="#222222"/>
<path d="M69.3739 117.936H62.4365V124.873H69.3739V117.936Z" fill="#222222"/>
<path d="M76.3109 117.936H69.3735V124.873H76.3109V117.936Z" fill="#222222"/>
<path d="M117.934 117.936H110.997V124.873H117.934V117.936Z" fill="#222222"/>
<path d="M145.684 117.936H138.747V124.873H145.684V117.936Z" fill="#222222"/>
<path d="M173.432 117.936H166.495V124.873H173.432V117.936Z" fill="#222222"/>
<path d="M62.4369 124.873H55.4995V131.81H62.4369V124.873Z" fill="#222222"/>
<path d="M76.3109 124.873H69.3735V131.81H76.3109V124.873Z" fill="#222222"/>
<path d="M83.2494 124.873H76.312V131.81H83.2494V124.873Z" fill="#222222"/>
<path d="M90.1864 124.873H83.249V131.81H90.1864V124.873Z" fill="#222222"/>
<path d="M97.1234 124.873H90.186V131.81H97.1234V124.873Z" fill="#222222"/>
<path d="M104.06 124.873H97.123V131.81H104.06V124.873Z" fill="#222222"/>
<path d="M117.935 124.873H110.998V131.81H117.935V124.873Z" fill="#222222"/>
<path d="M131.81 124.873H124.873V131.81H131.81V124.873Z" fill="#222222"/>
<path d="M145.684 124.873H138.747V131.81H145.684V124.873Z" fill="#222222"/>
<path d="M159.56 124.873H152.623V131.81H159.56V124.873Z" fill="#222222"/>
<path d="M166.495 124.873H159.558V131.81H166.495V124.873Z" fill="#222222"/>
<path d="M173.432 124.873H166.495V131.81H173.432V124.873Z" fill="#222222"/>
<path d="M69.3739 131.81H62.4365V138.747H69.3739V131.81Z" fill="#222222"/>
<path d="M76.3109 131.81H69.3735V138.747H76.3109V131.81Z" fill="#222222"/>
<path d="M83.2499 131.81H76.3125V138.747H83.2499V131.81Z" fill="#222222"/>
<path d="M104.06 131.81H97.123V138.747H104.06V131.81Z" fill="#222222"/>
<path d="M117.934 131.81H110.997V138.747H117.934V131.81Z" fill="#222222"/>
<path d="M145.684 131.81H138.747V138.747H145.684V131.81Z" fill="#222222"/>
<path d="M152.623 131.81H145.686V138.747H152.623V131.81Z" fill="#222222"/>
<path d="M62.4369 138.748H55.4995V145.685H62.4369V138.748Z" fill="#222222"/>
<path d="M83.2499 138.748H76.3125V145.685H83.2499V138.748Z" fill="#222222"/>
<path d="M90.1864 138.748H83.249V145.685H90.1864V138.748Z" fill="#222222"/>
<path d="M117.934 138.748H110.997V145.685H117.934V138.748Z" fill="#222222"/>
<path d="M124.872 138.748H117.935V145.685H124.872V138.748Z" fill="#222222"/>
<path d="M131.81 138.748H124.873V145.685H131.81V138.748Z" fill="#222222"/>
<path d="M138.747 138.748H131.81V145.685H138.747V138.748Z" fill="#222222"/>
<path d="M145.684 138.748H138.747V145.685H145.684V138.748Z" fill="#222222"/>
<path d="M152.623 138.748H145.686V145.685H152.623V138.748Z" fill="#222222"/>
<path d="M62.4369 145.684H55.4995V152.621H62.4369V145.684Z" fill="#222222"/>
<path d="M69.3739 145.684H62.4365V152.621H69.3739V145.684Z" fill="#222222"/>
<path d="M76.3109 145.684H69.3735V152.621H76.3109V145.684Z" fill="#222222"/>
<path d="M90.1864 145.684H83.249V152.621H90.1864V145.684Z" fill="#222222"/>
<path d="M110.998 145.684H104.061V152.621H110.998V145.684Z" fill="#222222"/>
<path d="M117.934 145.684H110.997V152.621H117.934V145.684Z" fill="#222222"/>
<path d="M131.81 145.684H124.873V152.621H131.81V145.684Z" fill="#222222"/>
<path d="M145.684 145.684H138.747V152.621H145.684V145.684Z" fill="#222222"/>
<path d="M166.495 145.684H159.558V152.621H166.495V145.684Z" fill="#222222"/>
<path d="M173.432 145.684H166.495V152.621H173.432V145.684Z" fill="#222222"/>
<path d="M62.4369 152.622H55.4995V159.559H62.4369V152.622Z" fill="#222222"/>
<path d="M69.3739 152.622H62.4365V159.559H69.3739V152.622Z" fill="#222222"/>
<path d="M90.1864 152.622H83.249V159.559H90.1864V152.622Z" fill="#222222"/>
<path d="M97.1239 152.622H90.1865V159.559H97.1239V152.622Z" fill="#222222"/>
<path d="M104.06 152.622H97.123V159.559H104.06V152.622Z" fill="#222222"/>
<path d="M145.684 152.622H138.747V159.559H145.684V152.622Z" fill="#222222"/>
<path d="M159.56 152.622H152.623V159.559H159.56V152.622Z" fill="#222222"/>
<path d="M173.432 152.622H166.495V159.559H173.432V152.622Z" fill="#222222"/>
<path d="M62.4369 159.56H55.4995V166.497H62.4369V159.56Z" fill="#222222"/>
<path d="M76.3109 159.56H69.3735V166.497H76.3109V159.56Z" fill="#222222"/>
<path d="M90.1864 159.56H83.249V166.497H90.1864V159.56Z" fill="#222222"/>
<path d="M117.935 159.56H110.998V166.497H117.935V159.56Z" fill="#222222"/>
<path d="M124.872 159.56H117.935V166.497H124.872V159.56Z" fill="#222222"/>
<path d="M131.81 159.56H124.873V166.497H131.81V159.56Z" fill="#222222"/>
<path d="M138.747 159.56H131.81V166.497H138.747V159.56Z" fill="#222222"/>
<path d="M145.684 159.56H138.747V166.497H145.684V159.56Z" fill="#222222"/>
<path d="M152.623 159.56H145.686V166.497H152.623V159.56Z" fill="#222222"/>
<path d="M166.495 159.56H159.558V166.497H166.495V159.56Z" fill="#222222"/>
<path d="M62.4369 166.497H55.4995V173.434H62.4369V166.497Z" fill="#222222"/>
<path d="M110.998 166.497H104.061V173.434H110.998V166.497Z" fill="#222222"/>
<path d="M159.56 166.497H152.623V173.434H159.56V166.497Z" fill="#222222"/>
<path d="M166.495 166.497H159.558V173.434H166.495V166.497Z" fill="#222222"/>
<path d="M173.432 166.497H166.495V173.434H173.432V166.497Z" fill="#222222"/>
<g clip-path="url(#clip1_104_1770)">
<path d="M1.47082 -0.0078125C0.659151 -0.0078125 -0.00683594 0.658175 -0.00683594 1.46985V6.93649V13.8739V20.8112V27.7486V34.6859V41.6233V47.0899C-0.00683594 47.9016 0.652214 48.5676 1.47082 48.5676H47.0909C47.9026 48.5676 48.5686 47.9086 48.5686 47.0899V41.6233V34.6859V27.7486V20.8112V13.8739V6.93649V1.46985C48.5686 0.658175 47.9095 -0.0078125 47.0909 -0.0078125H1.47082ZM41.6243 13.8739V20.8112V27.7486V34.6859V40.7769C41.6243 41.2487 41.2427 41.6233 40.7779 41.6233H7.78382C7.31208 41.6233 6.93746 41.2417 6.93746 40.7769V34.6859V27.7486V20.8112V13.8739V7.78285C6.93746 7.31111 7.31902 6.93649 7.78382 6.93649H40.7779C41.2497 6.93649 41.6243 7.31804 41.6243 7.78285V13.8739Z" fill="#222222"/>
</g>
<path d="M34.6867 27.7489V20.8115V15.3448C34.6867 14.5332 34.0277 13.8672 33.209 13.8672H15.3453C14.5337 13.8672 13.8677 14.5262 13.8677 15.3448V20.8115V27.7489V33.2155C13.8677 34.0272 14.5267 34.6932 15.3453 34.6932H33.209C34.0207 34.6932 34.6867 34.0341 34.6867 33.2155V27.7489Z" fill="#222222"/>
<g clip-path="url(#clip2_104_1770)">
<path d="M126.344 -0.00683594C125.532 -0.00683594 124.866 0.659151 124.866 1.47082V6.93747V13.8748V20.8122V27.7496V34.6869V41.6243V47.0909C124.866 47.9026 125.525 48.5686 126.344 48.5686H171.964C172.776 48.5686 173.442 47.9095 173.442 47.0909V41.6243V34.6869V27.7496V20.8122V13.8748V6.93747V1.47082C173.442 0.659151 172.783 -0.00683594 171.964 -0.00683594H126.344ZM166.497 13.8748V20.8122V27.7496V34.6869V40.7779C166.497 41.2497 166.116 41.6243 165.651 41.6243H132.657C132.185 41.6243 131.811 41.2427 131.811 40.7779V34.6869V27.7496V20.8122V13.8748V7.78382C131.811 7.31208 132.192 6.93747 132.657 6.93747H165.651C166.123 6.93747 166.497 7.31902 166.497 7.78382V13.8748Z" fill="#222222"/>
</g>
<path d="M159.559 27.7489V20.8115V15.3448C159.559 14.5332 158.9 13.8672 158.082 13.8672H140.218C139.406 13.8672 138.74 14.5262 138.74 15.3448V20.8115V27.7489V33.2155C138.74 34.0272 139.399 34.6932 140.218 34.6932H158.082C158.893 34.6932 159.559 34.0341 159.559 33.2155V27.7489Z" fill="#222222"/>
<g clip-path="url(#clip3_104_1770)">
<path d="M1.47131 124.865C0.659639 124.865 -0.00634766 125.531 -0.00634766 126.343V131.81V138.747V145.684V152.622V159.559V166.496V171.963C-0.00634766 172.775 0.652702 173.441 1.47131 173.441H47.0914C47.9031 173.441 48.5691 172.782 48.5691 171.963V166.496V159.559V152.622V145.684V138.747V131.81V126.343C48.5691 125.531 47.91 124.865 47.0914 124.865H1.47131ZM41.6248 138.747V145.684V152.622V159.559V165.65C41.6248 166.122 41.2432 166.496 40.7784 166.496H7.78431C7.31257 166.496 6.93795 166.115 6.93795 165.65V159.559V152.622V145.684V138.747V132.656C6.93795 132.184 7.31951 131.81 7.78431 131.81H40.7784C41.2501 131.81 41.6248 132.191 41.6248 132.656V138.747Z" fill="#222222"/>
</g>
<path d="M34.6867 152.621V145.684V140.217C34.6867 139.405 34.0277 138.739 33.209 138.739H15.3453C14.5337 138.739 13.8677 139.398 13.8677 140.217V145.684V152.621V158.088C13.8677 158.899 14.5267 159.565 15.3453 159.565H33.209C34.0207 159.565 34.6867 158.906 34.6867 158.088V152.621Z" fill="#222222"/>
</g>
<defs>
<clipPath id="clip0_104_1770">
<rect width="173.435" height="173.434" fill="white"/>
</clipPath>
<clipPath id="clip1_104_1770">
<rect width="48.5615" height="48.5615" fill="white"/>
</clipPath>
<clipPath id="clip2_104_1770">
<rect width="48.5615" height="48.5615" fill="white" transform="translate(124.873)"/>
</clipPath>
<clipPath id="clip3_104_1770">
<rect width="48.5615" height="48.5615" fill="white" transform="translate(0 124.873)"/>
</clipPath>
</defs>
</svg>
