<svg width="1200" height="505" viewBox="0 0 1200 505" fill="none" xmlns="http://www.w3.org/2000/svg">
<path fill-rule="evenodd" clip-rule="evenodd" d="M92.5712 398.272L160.943 424.387C161.971 424.78 163.063 424.981 164.164 424.98L185.091 424.957C189.449 424.952 193.118 421.8 194.341 417.617C202.838 388.561 229.684 367.341 261.483 367.341C295.472 367.341 323.803 391.586 330.115 423.729C330.253 424.432 330.865 424.949 331.582 424.949C332.298 424.949 332.91 424.432 333.049 423.729C339.36 391.586 367.691 367.341 401.681 367.341C433.476 367.341 460.321 388.558 468.82 417.609C470.045 421.796 473.719 424.949 478.081 424.949H688.915C693.886 424.949 697.915 428.978 697.915 433.949V463.107C697.915 468.485 702.315 472.885 707.693 472.885H907.998C914.533 472.885 919.878 467.539 919.878 461.005V427.954C919.878 426.294 921.223 424.949 922.883 424.949C924.379 424.949 925.648 426.05 925.858 427.532L926.12 429.387C926.288 430.574 926.864 431.665 927.749 432.474L930.434 434.928C932.093 436.444 934.259 437.285 936.506 437.285H955.44C960.411 437.285 964.38 433.235 965.01 428.304C969.419 393.857 998.846 367.227 1034.5 367.227C1070.15 367.227 1099.58 393.851 1103.99 428.304C1104.62 433.235 1108.59 437.285 1113.56 437.285H1185.73C1189.01 437.285 1191.71 434.679 1191.81 431.394L1191.86 430.113C1191.94 427.618 1193.95 425.601 1196.44 425.601C1198.4 425.601 1199.3 424.468 1199.52 423.718C1199.75 422.969 1200.27 355.649 1199.82 350.238C1199.42 345.401 1194.01 340.853 1194.07 336L1194.81 275.984L1194.73 273.601C1194.68 272.231 1194.34 270.919 1193.75 269.681C1187.03 255.55 1153.47 179.346 1150.69 174.001C1148.12 169.059 1146.61 167.285 1144.17 166.655C1143.7 166.533 1143.21 166.505 1142.72 166.505H997.294C988.64 167.54 988.754 172.722 988.754 172.722C988.566 301.946 988.615 318.001 988.639 330.587C988.649 335.611 992.755 339.641 997.776 339.811C1039.88 341.235 1097.41 357.062 1107.9 409.386C1087.11 341.381 995.485 348.837 938.488 348.837L101.561 348.232C96.5884 348.228 92.5549 352.259 92.5549 357.232V398.245C92.5549 398.257 92.5612 398.267 92.5712 398.272Z" fill="#EBEBEB"/>
<path fill-rule="evenodd" clip-rule="evenodd" d="M1148.2 183.505C1148.21 183.505 1148.21 183.508 1148.21 183.512L1185.08 265.705C1185.4 266.411 1184.83 267.193 1184.06 267.108L1175.36 266.144C1173.36 265.989 1170.33 264.27 1168.68 260.375L1140.03 192.72C1136.08 183.546 1148.2 183.505 1148.2 183.505Z" fill="#222222"/>
<path fill-rule="evenodd" clip-rule="evenodd" d="M1050.63 191.384C1050.63 187.542 1053.73 184.418 1057.57 184.385L1122.67 183.818L1122.69 183.809C1127.69 183.761 1131.33 185.708 1131.76 189.733C1131.53 190.181 1132.51 237.302 1132.51 237.302C1137.42 237.05 1136.98 240.203 1132.28 239.934V252.01C1132.28 252.01 1141.57 254.389 1140.92 244.155H1150.07C1150.37 245.192 1150.71 246.283 1151.06 247.403C1153.81 256.158 1157.08 266.603 1142.53 265.837L1057.26 261.339C1053.54 261.143 1050.63 258.071 1050.63 254.349V191.384ZM1141.12 240.57L1148.89 240.633L1140.97 217.11L1141.12 240.57ZM1023.58 191.639C1023.57 187.783 1026.67 184.641 1030.53 184.611L1035.45 184.573C1039.34 184.543 1042.51 187.686 1042.51 191.573V253.186C1042.51 257.197 1039.14 260.388 1035.14 260.176L1030.46 259.929C1026.75 259.733 1023.84 256.678 1023.83 252.966L1023.58 191.639Z" fill="#222222"/>
<path fill-rule="evenodd" clip-rule="evenodd" d="M1140.92 244.155H1150.07L1148.89 240.633L1141.12 240.57L1140.97 217.11L1131.76 189.733C1131.53 190.181 1132.51 237.302 1132.51 237.302C1137.42 237.05 1136.98 240.203 1132.28 239.934V252.01C1132.28 252.01 1141.57 254.389 1140.92 244.155Z" fill="#222222"/>
<path d="M394.709 497.404C361.5 493.55 337.703 463.504 341.557 430.295C345.411 397.085 375.457 373.288 408.666 377.142C441.875 380.997 465.672 411.043 461.818 444.252C457.964 477.461 427.918 501.258 394.709 497.404Z" fill="#EBEBEB"/>
<path d="M392.682 471.292C373.915 466.309 362.74 447.055 367.724 428.288C372.707 409.52 391.96 398.346 410.728 403.329C429.495 408.312 440.67 427.566 435.687 446.333C430.704 465.101 411.45 476.275 392.682 471.292Z" fill="#222222"/>
<path fill-rule="evenodd" clip-rule="evenodd" d="M401.686 407.202C385.082 407.202 371.618 420.666 371.618 437.27C371.618 453.874 385.082 467.337 401.686 467.337C418.29 467.337 431.753 453.874 431.753 437.27C431.753 420.666 418.29 407.202 401.686 407.202Z" fill="#222222"/>
<path fill-rule="evenodd" clip-rule="evenodd" d="M401.679 429.347C397.305 429.347 393.765 432.894 393.765 437.261C393.765 441.628 397.312 445.175 401.679 445.175C406.046 445.175 409.593 441.628 409.593 437.261C409.593 432.894 406.046 429.347 401.679 429.347Z" fill="#EBEBEB"/>
<path fill-rule="evenodd" clip-rule="evenodd" d="M401.686 414.479C400.179 414.479 398.96 415.698 398.96 417.205C398.96 418.713 400.179 419.932 401.686 419.932C403.194 419.932 404.413 418.713 404.413 417.205C404.413 415.698 403.194 414.479 401.686 414.479Z" fill="#EBEBEB"/>
<path fill-rule="evenodd" clip-rule="evenodd" d="M401.686 454.589C400.179 454.589 398.96 455.808 398.96 457.316C398.96 458.823 400.179 460.042 401.686 460.042C403.194 460.042 404.413 458.823 404.413 457.316C404.413 455.808 403.194 454.589 401.686 454.589Z" fill="#EBEBEB"/>
<path fill-rule="evenodd" clip-rule="evenodd" d="M424.471 437.27C424.471 435.762 423.251 434.543 421.744 434.543C420.237 434.543 419.017 435.762 419.017 437.27C419.017 438.777 420.237 439.996 421.744 439.996C423.251 439.996 424.471 438.777 424.471 437.27Z" fill="#EBEBEB"/>
<path fill-rule="evenodd" clip-rule="evenodd" d="M384.361 437.27C384.361 435.762 383.142 434.543 381.634 434.543C380.127 434.543 378.907 435.762 378.907 437.27C378.907 438.777 380.127 439.996 381.634 439.996C383.142 439.996 384.361 438.777 384.361 437.27Z" fill="#EBEBEB"/>
<path fill-rule="evenodd" clip-rule="evenodd" d="M417.792 453.379C418.856 452.315 418.856 450.586 417.792 449.522C416.728 448.458 414.999 448.458 413.935 449.522C412.87 450.586 412.87 452.315 413.935 453.379C414.999 454.443 416.728 454.443 417.792 453.379Z" fill="#EBEBEB"/>
<path fill-rule="evenodd" clip-rule="evenodd" d="M389.429 425.016C390.493 423.952 390.493 422.222 389.429 421.158C388.365 420.094 386.636 420.094 385.572 421.158C384.508 422.222 384.508 423.952 385.572 425.016C386.636 426.08 388.365 426.08 389.429 425.016Z" fill="#EBEBEB"/>
<path fill-rule="evenodd" clip-rule="evenodd" d="M385.572 453.379C386.636 454.443 388.365 454.443 389.429 453.379C390.493 452.315 390.493 450.586 389.429 449.522C388.365 448.458 386.636 448.458 385.572 449.522C384.508 450.586 384.508 452.315 385.572 453.379Z" fill="#EBEBEB"/>
<path fill-rule="evenodd" clip-rule="evenodd" d="M413.935 425.016C414.999 426.08 416.728 426.08 417.792 425.016C418.856 423.952 418.856 422.222 417.792 421.158C416.728 420.094 414.999 420.094 413.935 421.158C412.87 422.222 412.87 423.952 413.935 425.016Z" fill="#EBEBEB"/>
<path d="M1028.13 497.403C994.925 493.549 971.128 463.503 974.982 430.294C978.836 397.084 1008.88 373.287 1042.09 377.141C1075.3 380.996 1099.1 411.042 1095.24 444.251C1091.39 477.46 1061.34 501.257 1028.13 497.403Z" fill="#EBEBEB"/>
<path d="M1026.11 471.292C1007.34 466.309 996.166 447.055 1001.15 428.288C1006.13 409.52 1025.39 398.346 1044.15 403.329C1062.92 408.312 1074.1 427.566 1069.11 446.333C1064.13 465.101 1044.88 476.275 1026.11 471.292Z" fill="#222222"/>
<path fill-rule="evenodd" clip-rule="evenodd" d="M1035.11 407.201C1018.51 407.201 1005.04 420.665 1005.04 437.269C1005.04 453.873 1018.51 467.336 1035.11 467.336C1051.72 467.336 1065.18 453.873 1065.18 437.269C1065.18 420.665 1051.72 407.201 1035.11 407.201Z" fill="#222222"/>
<path fill-rule="evenodd" clip-rule="evenodd" d="M1035.1 429.346C1030.73 429.346 1027.19 432.893 1027.19 437.26C1027.19 441.627 1030.74 445.174 1035.1 445.174C1039.47 445.174 1043.02 441.627 1043.02 437.26C1043.02 432.893 1039.47 429.346 1035.1 429.346Z" fill="#EBEBEB"/>
<path fill-rule="evenodd" clip-rule="evenodd" d="M1035.11 414.478C1033.6 414.478 1032.38 415.697 1032.38 417.204C1032.38 418.712 1033.6 419.931 1035.11 419.931C1036.62 419.931 1037.84 418.712 1037.84 417.204C1037.84 415.697 1036.62 414.478 1035.11 414.478Z" fill="#EBEBEB"/>
<path fill-rule="evenodd" clip-rule="evenodd" d="M1035.11 454.588C1033.6 454.588 1032.38 455.807 1032.38 457.315C1032.38 458.822 1033.6 460.041 1035.11 460.041C1036.62 460.041 1037.84 458.822 1037.84 457.315C1037.84 455.807 1036.62 454.588 1035.11 454.588Z" fill="#EBEBEB"/>
<path fill-rule="evenodd" clip-rule="evenodd" d="M1057.9 437.27C1057.9 435.762 1056.68 434.543 1055.17 434.543C1053.66 434.543 1052.44 435.762 1052.44 437.27C1052.44 438.777 1053.66 439.996 1055.17 439.996C1056.68 439.996 1057.9 438.777 1057.9 437.27Z" fill="#EBEBEB"/>
<path fill-rule="evenodd" clip-rule="evenodd" d="M1017.79 437.27C1017.79 435.762 1016.57 434.543 1015.06 434.543C1013.55 434.543 1012.33 435.762 1012.33 437.27C1012.33 438.777 1013.55 439.996 1015.06 439.996C1016.57 439.996 1017.79 438.777 1017.79 437.27Z" fill="#EBEBEB"/>
<path fill-rule="evenodd" clip-rule="evenodd" d="M1051.22 453.379C1052.28 452.315 1052.28 450.586 1051.22 449.522C1050.15 448.458 1048.42 448.458 1047.36 449.522C1046.3 450.586 1046.3 452.315 1047.36 453.379C1048.42 454.443 1050.15 454.443 1051.22 453.379Z" fill="#EBEBEB"/>
<path fill-rule="evenodd" clip-rule="evenodd" d="M1022.85 425.016C1023.92 423.952 1023.92 422.222 1022.85 421.158C1021.79 420.094 1020.06 420.094 1019 421.158C1017.93 422.222 1017.93 423.952 1019 425.016C1020.06 426.08 1021.79 426.08 1022.85 425.016Z" fill="#EBEBEB"/>
<path fill-rule="evenodd" clip-rule="evenodd" d="M1019 453.379C1020.06 454.443 1021.79 454.443 1022.85 453.379C1023.92 452.315 1023.92 450.586 1022.85 449.522C1021.79 448.458 1020.06 448.458 1019 449.522C1017.93 450.586 1017.93 452.315 1019 453.379Z" fill="#EBEBEB"/>
<path fill-rule="evenodd" clip-rule="evenodd" d="M1047.36 425.016C1048.42 426.08 1050.15 426.08 1051.22 425.016C1052.28 423.952 1052.28 422.222 1051.22 421.158C1050.15 420.094 1048.42 420.094 1047.36 421.158C1046.3 422.222 1046.3 423.952 1047.36 425.016Z" fill="#EBEBEB"/>
<path d="M254.134 497.405C220.925 493.551 197.128 463.505 200.982 430.296C204.836 397.086 234.882 373.289 268.091 377.143C301.301 380.998 325.098 411.044 321.244 444.253C317.389 477.462 287.343 501.259 254.134 497.405Z" fill="#EBEBEB"/>
<path d="M252.108 471.294C233.34 466.311 222.166 447.057 227.149 428.29C232.132 409.522 251.386 398.348 270.153 403.331C288.921 408.314 300.095 427.568 295.112 446.335C290.129 465.103 270.875 476.277 252.108 471.294Z" fill="#222222"/>
<path fill-rule="evenodd" clip-rule="evenodd" d="M261.111 407.203C244.507 407.203 231.043 420.667 231.043 437.271C231.043 453.875 244.507 467.338 261.111 467.338C277.715 467.338 291.179 453.875 291.179 437.271C291.179 420.667 277.715 407.203 261.111 407.203Z" fill="#222222"/>
<path fill-rule="evenodd" clip-rule="evenodd" d="M261.104 429.348C256.73 429.348 253.19 432.895 253.19 437.262C253.19 441.629 256.737 445.176 261.104 445.176C265.472 445.176 269.019 441.629 269.019 437.262C269.019 432.895 265.472 429.348 261.104 429.348Z" fill="#EBEBEB"/>
<path fill-rule="evenodd" clip-rule="evenodd" d="M261.112 414.479C259.604 414.479 258.385 415.699 258.385 417.206C258.385 418.714 259.604 419.933 261.112 419.933C262.619 419.933 263.838 418.714 263.838 417.206C263.838 415.699 262.619 414.479 261.112 414.479Z" fill="#EBEBEB"/>
<path fill-rule="evenodd" clip-rule="evenodd" d="M261.112 454.59C259.604 454.59 258.385 455.809 258.385 457.317C258.385 458.824 259.604 460.043 261.112 460.043C262.619 460.043 263.838 458.824 263.838 457.317C263.838 455.809 262.619 454.59 261.112 454.59Z" fill="#EBEBEB"/>
<path fill-rule="evenodd" clip-rule="evenodd" d="M283.896 437.271C283.896 435.763 282.677 434.544 281.169 434.544C279.662 434.544 278.443 435.763 278.443 437.271C278.443 438.778 279.662 439.997 281.169 439.997C282.677 439.997 283.896 438.778 283.896 437.271Z" fill="#EBEBEB"/>
<path fill-rule="evenodd" clip-rule="evenodd" d="M243.786 437.271C243.786 435.763 242.567 434.544 241.059 434.544C239.552 434.544 238.333 435.763 238.333 437.271C238.333 438.778 239.552 439.997 241.059 439.997C242.567 439.997 243.786 438.778 243.786 437.271Z" fill="#EBEBEB"/>
<path fill-rule="evenodd" clip-rule="evenodd" d="M277.217 453.381C278.281 452.317 278.281 450.588 277.217 449.524C276.153 448.46 274.424 448.46 273.36 449.524C272.296 450.588 272.296 452.317 273.36 453.381C274.424 454.445 276.153 454.445 277.217 453.381Z" fill="#EBEBEB"/>
<path fill-rule="evenodd" clip-rule="evenodd" d="M248.854 425.018C249.918 423.954 249.918 422.224 248.854 421.16C247.79 420.096 246.061 420.096 244.997 421.16C243.933 422.224 243.933 423.954 244.997 425.018C246.061 426.082 247.79 426.082 248.854 425.018Z" fill="#EBEBEB"/>
<path fill-rule="evenodd" clip-rule="evenodd" d="M244.997 453.381C246.061 454.445 247.79 454.445 248.854 453.381C249.918 452.317 249.918 450.588 248.854 449.524C247.79 448.46 246.061 448.46 244.997 449.524C243.933 450.588 243.933 452.317 244.997 453.381Z" fill="#EBEBEB"/>
<path fill-rule="evenodd" clip-rule="evenodd" d="M273.36 425.018C274.424 426.082 276.153 426.082 277.217 425.018C278.281 423.954 278.281 422.224 277.217 421.16C276.153 420.096 274.424 420.096 273.36 421.16C272.296 422.224 272.296 423.954 273.36 425.018Z" fill="#EBEBEB"/>
<path d="M0.00012207 0H968.085V325.87H0.00012207V0Z" fill="#FFBB0E"/>
</svg>
