<svg width="1210" height="63" viewBox="0 0 1210 63" fill="none" xmlns="http://www.w3.org/2000/svg">
<path d="M171.889 0H11.2086C7.07235 0 5.0009 5.0009 7.92568 7.92568L54.9631 54.9631C57.2269 57.2269 60.2973 58.4987 63.4987 58.4987H224.179C228.315 58.4987 230.387 53.4978 227.462 50.573L180.424 3.53556C178.161 1.27178 175.09 0 171.889 0Z" fill="#EBEBEB"/>
<path d="M231.208 0H209.81C205.674 0 203.603 5.0009 206.527 7.92568L253.565 54.9631C255.829 57.2269 258.899 58.4987 262.101 58.4987H283.498C287.634 58.4987 289.706 53.4978 286.781 50.573L239.744 3.53556C237.48 1.27178 234.41 0 231.208 0Z" fill="#4B4B4B"/>
<path d="M364.811 0H269.13C264.993 0 262.922 5.0009 265.847 7.92568L312.884 54.9631C315.148 57.2269 318.218 58.4987 321.42 58.4987H417.102C421.238 58.4987 423.309 53.4978 420.385 50.573L373.347 3.53556C371.083 1.27178 368.013 0 364.811 0Z" fill="#EBEBEB"/>
<path d="M424.131 0H402.733C398.597 0 396.525 5.0009 399.45 7.92568L446.488 54.9631C448.751 57.2269 451.822 58.4987 455.023 58.4987H476.421C480.557 58.4987 482.629 53.4978 479.704 50.573L432.666 3.53556C430.402 1.27178 427.332 0 424.131 0Z" fill="#4B4B4B"/>
<path d="M557.734 0H462.052C457.916 0 455.844 5.0009 458.769 7.92568L505.807 54.9631C508.07 57.2269 511.141 58.4987 514.342 58.4987H610.024C614.16 58.4987 616.232 53.4978 613.307 50.573L566.269 3.53556C564.006 1.27178 560.935 0 557.734 0Z" fill="#EBEBEB"/>
<path d="M617.053 0H595.655C591.519 0 589.448 5.0009 592.372 7.92568L639.41 54.9631C641.674 57.2269 644.744 58.4987 647.946 58.4987H669.343C673.479 58.4987 675.551 53.4978 672.626 50.573L625.589 3.53556C623.325 1.27178 620.255 0 617.053 0Z" fill="#4B4B4B"/>
<path d="M760.656 0H654.975C650.838 0 648.767 5.0009 651.692 7.92568L698.729 54.9631C700.993 57.2269 704.063 58.4987 707.265 58.4987H812.947C817.083 58.4987 819.154 53.4978 816.23 50.573L769.192 3.53556C766.928 1.27178 763.858 0 760.656 0Z" fill="#EBEBEB"/>
<path d="M819.975 0H798.578C794.441 0 792.37 5.0009 795.295 7.92568L842.332 54.9631C844.596 57.2269 847.666 58.4987 850.868 58.4987H872.266C876.402 58.4987 878.473 53.4978 875.548 50.573L828.511 3.53556C826.247 1.27178 823.177 0 819.975 0Z" fill="#4B4B4B"/>
<path d="M953.579 0H857.897C853.761 0 851.689 5.0009 854.614 7.92568L901.652 54.9631C903.915 57.2269 906.986 58.4987 910.187 58.4987H1005.87C1010.01 58.4987 1012.08 53.4978 1009.15 50.573L962.114 3.53556C959.851 1.27178 956.78 0 953.579 0Z" fill="#EBEBEB"/>
<path d="M1012.9 0H991.501C987.364 0 985.293 5.0009 988.218 7.92568L1035.26 54.9631C1037.52 57.2269 1040.59 58.4987 1043.79 58.4987H1065.19C1069.32 58.4987 1071.4 53.4978 1068.47 50.573L1021.43 3.53556C1019.17 1.27178 1016.1 0 1012.9 0Z" fill="#4B4B4B"/>
<path d="M1146.5 0H1050.82C1046.68 0 1044.61 5.0009 1047.54 7.92568L1094.57 54.9631C1096.84 57.2269 1099.91 58.4987 1103.11 58.4987H1198.79C1202.93 58.4987 1205 53.4978 1202.07 50.573L1155.04 3.53556C1152.77 1.27178 1149.7 0 1146.5 0Z" fill="#EBEBEB"/>
</svg>
