<svg width="1202" height="927" viewBox="0 0 1202 927" fill="none" xmlns="http://www.w3.org/2000/svg">
<path d="M593.143 183H615.628C615.25 183.95 614.755 184.843 614.139 185.639L546.794 272.624H523.754L593.143 183ZM553.72 183H576.205C575.828 183.95 575.332 184.843 574.716 185.639L507.371 272.624H484.331L553.72 183ZM514.297 183H536.782C536.405 183.95 535.909 184.843 535.293 185.639L467.948 272.624H444.908L514.297 183ZM474.875 183H497.359C496.982 183.95 496.487 184.843 495.871 185.639L428.525 272.624H405.485L474.875 183ZM435.452 183H457.938C457.56 183.95 457.064 184.843 456.448 185.639L389.104 272.624H366.063L435.452 183ZM396.029 183H418.515C418.137 183.95 417.642 184.843 417.025 185.639L349.681 272.624H326.641L396.029 183ZM356.606 183H379.092C378.714 183.95 378.219 184.843 377.603 185.639L310.258 272.624H287.218L356.606 183ZM317.185 183H339.669C339.292 183.95 338.797 184.843 338.181 185.639L270.835 272.624H247.795L317.185 183ZM277.762 183H300.247C299.87 183.95 299.374 184.843 298.758 185.639L231.413 272.624H208.373L277.762 183ZM238.339 183H260.824C260.447 183.95 259.951 184.843 259.335 185.639L191.99 272.624H168.95L238.339 183ZM198.917 183H221.401C221.024 183.95 220.529 184.843 219.913 185.639L152.567 272.624H129.527L198.917 183ZM159.494 183H181.979C181.602 183.95 181.106 184.843 180.49 185.639L113.145 272.624H90.1045L159.494 183ZM120.071 183H142.557C142.179 183.95 141.684 184.843 141.067 185.639L73.7227 272.624H50.6826L120.071 183ZM80.6484 183H103.134C102.756 183.95 102.261 184.843 101.645 185.639L34.2998 272.624H11.2598L80.6484 183ZM0 236.249L41.2266 183H63.7109C63.3335 183.95 62.8388 184.843 62.2227 185.639L0 266.008V236.249ZM0 185.33L1.80371 183H24.2891C23.9116 183.95 23.416 184.843 22.7998 185.639L0 215.088V185.33ZM620 199.23V228.988L586.216 272.624H563.176L620 199.23ZM620 250.148V272.624H602.599L620 250.148Z" fill="#FFBB0E"/>
<g clip-path="url(#clip0_107_4623)">
<path d="M1074.48 313.884L1074.02 302.282C1044.21 303.486 1024.52 291.981 1017.07 269.012C1004.7 230.834 1052.51 195.903 1052.99 195.555L1046.22 186.119C1045.66 186.52 1032.41 196.096 1020.78 211.249C1004.84 231.998 999.746 253.208 1006.03 272.591C1015.11 300.636 1039.43 315.3 1074.48 313.884Z" fill="#4B4B4B"/>
<path d="M857.463 162.142C857.081 161.218 848.092 139.204 847.325 112.38C846.278 75.7556 861.091 48.0764 890.163 32.3357C911.399 20.8372 934.179 18.4683 956.042 25.4868C981.256 33.5802 1000.61 52.9611 1005.75 63.511L993.239 69.6059C989.813 62.5726 973.642 45.7503 951.789 38.7362C933.369 32.8231 914.864 34.7868 896.789 44.5727C872.298 57.8333 860.336 80.5134 861.235 111.983C861.929 136.275 870.238 156.619 870.322 156.822L857.463 162.142Z" fill="#4B4B4B"/>
<path d="M878.228 406.916L809.163 467.515C810.079 468.61 810.593 469.998 810.449 471.417C809.734 478.447 806.255 485.441 800.21 490.671L785.07 503.789C785.007 503.844 784.942 503.896 784.878 503.947L785.548 504.736C786.972 506.413 786.759 508.927 785.072 510.351L779.064 515.418C777.376 516.841 774.853 516.635 773.429 514.957L739.207 474.661C737.783 472.983 737.996 470.469 739.683 469.046L745.691 463.978C747.357 462.574 749.835 462.756 751.269 464.374L766.031 451.585C772.105 446.33 779.592 443.875 786.721 444.173C788.197 444.235 789.54 444.979 790.507 446.089L790.553 446.143L859.769 385.411L878.228 406.916Z" fill="#4B4B4B"/>
<path d="M742.574 469.204L781.437 513.479C781.664 513.739 781.923 513.973 782.192 514.195C784.402 516.014 785.97 518.624 786.41 521.649L794.046 574.093C795.747 585.018 788.04 594.72 777.504 595.908C776.628 596.007 775.77 596.241 775.024 596.676L721.718 627.765C719.567 629.02 716.745 628.615 715.069 626.811L713.84 625.488C712.062 623.574 712.15 620.716 714.041 618.929L754.005 581.167C755.144 580.091 755.631 578.573 755.576 577.054C755.534 575.901 755.595 574.729 755.768 573.547L761.532 533.884C761.726 532.551 761.314 531.198 760.396 530.152L725.452 490.341C724.294 489.022 722.485 488.364 720.688 488.607L681.592 493.899C680.279 494.078 679.034 494.626 678.209 495.594L642.023 538.038C640.157 540.227 636.681 540.455 634.471 538.533L633.32 537.533C631.648 536.079 631.181 533.782 632.17 531.875L658.978 480.179C659.476 479.218 659.597 478.128 659.447 477.064C659.359 476.442 659.301 475.809 659.273 475.168C658.75 463.032 669.388 453.633 681.399 455.619L733.848 463.757C736.504 464.169 738.831 465.448 740.579 467.26C740.765 467.453 740.961 467.638 741.166 467.814C741.661 468.237 742.132 468.701 742.574 469.204Z" fill="#4B4B4B"/>
<path d="M862.139 398.174L838.012 306.552C837.451 304.422 835.261 303.128 833.12 303.663L809.272 309.625C807.131 310.16 805.851 312.321 806.412 314.452L830.539 406.074C831.1 408.204 833.29 409.498 835.431 408.963L859.279 403.001C861.419 402.466 862.7 400.305 862.139 398.174Z" fill="#4B4B4B"/>
<path d="M793.328 327.258C791.19 327.8 789.006 326.512 788.451 324.38L772.623 263.589C767.569 244.178 778.967 224.515 798.082 219.67C817.197 214.825 836.79 226.633 841.844 246.043L857.672 306.834C858.227 308.966 856.944 311.133 854.805 311.675L793.328 327.258Z" fill="#4B4B4B"/>
<path d="M811.802 410.711L800.966 368.942C800.413 366.81 801.698 364.64 803.836 364.096L865.336 348.441C867.474 347.897 869.655 349.185 870.208 351.317L881.043 393.086C886.086 412.526 874.674 432.231 855.554 437.098C836.433 441.965 816.845 430.151 811.802 410.711Z" fill="#4B4B4B"/>
<path d="M867.901 365.979L866.537 360.777C866.688 360.737 882.016 356.594 895.052 344.923C912.284 329.496 917.619 308.723 910.908 283.182C904.744 259.724 889.299 243.549 865.003 235.107C846.637 228.726 829.836 229.39 829.668 229.397L829.424 224.024C830.144 223.991 847.281 223.295 866.6 229.969C892.421 238.888 909.54 256.816 916.109 281.815C925.185 316.355 911.536 337.45 898.488 349.064C884.483 361.53 868.571 365.803 867.901 365.979Z" fill="#4B4B4B"/>
<path d="M904.31 124.571L947.385 177.471C950.623 181.447 956.271 182.215 960.002 179.186L961.151 178.253C964.882 175.224 965.282 169.545 962.044 165.569L918.969 112.669C915.731 108.693 910.082 107.926 906.352 110.954L905.203 111.887C901.472 114.916 901.072 120.595 904.31 124.571Z" fill="#4B4B4B"/>
<path d="M1043.31 57.127C1051.57 67.2397 1049.97 82.0488 1039.74 90.2039L926.469 180.615L896.583 143.993L1009.86 53.5822C1020.08 45.4274 1035.06 47.0143 1043.31 57.127Z" fill="#4B4B4B"/>
<path d="M909.134 112.688C905.87 108.706 899.943 108.267 896.146 111.726L781.899 215.828C766.319 230.024 764.602 253.749 777.978 269.989C791.355 286.229 815.207 289.378 832.43 277.176L958.338 187.837C962.576 184.83 963.371 178.854 960.068 174.825L909.134 112.688Z" fill="#4B4B4B"/>
<path d="M792.983 225.061C803.995 216.198 820.238 217.833 829.191 228.705C838.144 239.578 836.47 255.634 825.458 264.498C814.446 273.361 798.204 271.726 789.25 260.853C780.297 249.981 781.971 233.924 792.983 225.061ZM818.623 256.197C824.998 251.065 825.968 241.768 820.784 235.473C815.599 229.177 806.195 228.231 799.819 233.362C793.443 238.494 792.473 247.791 797.657 254.087C802.841 260.382 812.247 261.329 818.623 256.197Z" fill="#4B4B4B"/>
<path d="M1209 271.247C1238.29 246.051 1240.6 202.555 1214.15 174.096L1080.08 31.6548C1053.63 3.1957 1008.44 0.549795 979.152 25.7452C949.859 50.9406 947.552 94.4364 973.999 122.895L1108.07 265.337C1134.52 293.796 1179.71 296.442 1209 271.247Z" fill="#4B4B4B"/>
<path d="M1110.76 250.153L1234.76 250.153C1243.04 250.153 1249.76 256.869 1249.76 265.153L1249.76 292.153C1249.76 300.438 1243.04 307.153 1234.76 307.153L1110.76 307.153C1102.47 307.153 1095.76 300.438 1095.76 292.153L1095.76 265.153C1095.76 256.869 1102.47 250.153 1110.76 250.153Z" fill="#4B4B4B"/>
<path d="M1309.76 331.653L1309.76 434.485L1035.21 434.485L1035.21 331.653C1035.21 257.69 1309.76 257.69 1309.76 331.653Z" fill="#4B4B4B"/>
<path d="M1046.76 409.153L1297.76 409.153C1311.01 409.153 1321.76 419.898 1321.76 433.153L1321.76 445.153C1321.76 447.363 1319.96 449.153 1317.76 449.153L1026.76 449.153C1024.55 449.153 1022.76 447.362 1022.76 445.153L1022.76 433.153C1022.76 419.898 1033.5 409.153 1046.76 409.153Z" fill="#4B4B4B"/>
<path d="M1198.14 351.132C1202.22 351.132 1205.52 347.826 1205.52 343.747C1205.52 339.669 1202.22 336.362 1198.14 336.362C1194.06 336.362 1190.75 339.669 1190.75 343.747C1190.75 347.826 1194.06 351.132 1198.14 351.132Z" fill="#4B4B4B"/>
<path d="M1173.11 351.132C1177.18 351.132 1180.49 347.826 1180.49 343.747C1180.49 339.669 1177.18 336.362 1173.11 336.362C1169.03 336.362 1165.72 339.669 1165.72 343.747C1165.72 347.826 1169.03 351.132 1173.11 351.132Z" fill="#4B4B4B"/>
<path d="M1148.07 351.132C1152.15 351.132 1155.46 347.826 1155.46 343.747C1155.46 339.669 1152.15 336.362 1148.07 336.362C1143.99 336.362 1140.69 339.669 1140.69 343.747C1140.69 347.826 1143.99 351.132 1148.07 351.132Z" fill="#4B4B4B"/>
<path d="M1123.05 351.132C1127.12 351.132 1130.43 347.826 1130.43 343.747C1130.43 339.669 1127.12 336.362 1123.05 336.362C1118.97 336.362 1115.66 339.669 1115.66 343.747C1115.66 347.826 1118.97 351.132 1123.05 351.132Z" fill="#4B4B4B"/>
</g>
<rect width="145" height="490" transform="matrix(-1 0 0 1 1202 437)" fill="#4B4B4B"/>
<rect x="9.5" y="842.5" width="1155" height="64" rx="32" stroke="#4B4B4B" stroke-width="9"/>
<path d="M34.5674 909.324C36.8063 909.767 39.124 910 41.5 910V914C38.8617 914 36.2845 913.738 33.791 913.245L34.5674 909.324ZM50.3877 910V914H41.5V910H50.3877ZM85.9365 910V914H68.1621V910H85.9365ZM121.484 910V914H103.71V910H121.484ZM157.033 910V914H139.259V910H157.033ZM192.581 910V914H174.807V910H192.581ZM228.13 910V914H210.355V910H228.13ZM263.678 910V914H245.903V910H263.678ZM299.227 910V914H281.452V910H299.227ZM334.774 910V914H317V910H334.774ZM370.322 910V914H352.549V910H370.322ZM405.871 910V914H388.097V910H405.871ZM441.42 910V914H423.646V910H441.42ZM476.968 910V914H459.193V910H476.968ZM512.517 910V914H494.742V910H512.517ZM548.064 910V914H530.29V910H548.064ZM583.613 910V914H565.839V910H583.613ZM619.161 910V914H601.387V910H619.161ZM654.71 910V914H636.936V910H654.71ZM690.258 910V914H672.483V910H690.258ZM725.807 910V914H708.032V910H725.807ZM761.354 910V914H743.58V910H761.354ZM796.903 910V914H779.129V910H796.903ZM832.451 910V914H814.678V910H832.451ZM868 910V914H850.226V910H868ZM903.549 910V914H885.774V910H903.549ZM939.097 910V914H921.322V910H939.097ZM974.646 910V914H956.871V910H974.646ZM1010.19 910V914H992.419V910H1010.19ZM1045.74 910V914H1027.97V910H1045.74ZM1081.29 910V914H1063.52V910H1081.29ZM1116.84 910V914H1099.06V910H1116.84ZM1143.5 910V914H1134.61V910H1143.5ZM1151.21 913.245C1148.71 913.738 1146.14 914 1143.5 914V910C1145.88 910 1148.19 909.767 1150.43 909.324L1151.21 913.245ZM11.9766 894.222C14.5695 898.095 17.9053 901.43 21.7783 904.023L19.5537 907.345C15.2463 904.461 11.538 900.753 8.6543 896.445L11.9766 894.222ZM1176.34 896.445C1173.46 900.753 1169.75 904.461 1165.45 907.345L1163.22 904.023C1167.09 901.43 1170.43 898.095 1173.02 894.222L1176.34 896.445ZM2 874.5C2 871.862 2.2606 869.284 2.75391 866.791L6.67578 867.567C6.23285 869.806 6 872.124 6 874.5C6 876.876 6.23285 879.194 6.67578 881.433L2.75391 882.208C2.26072 879.715 2 877.138 2 874.5ZM1183 874.5C1183 877.138 1182.74 879.715 1182.25 882.208L1178.32 881.433C1178.77 879.194 1179 876.876 1179 874.5C1179 872.124 1178.77 869.806 1178.32 867.567L1182.25 866.791C1182.74 869.284 1183 871.862 1183 874.5ZM21.7783 844.977C17.9053 847.57 14.5695 850.905 11.9766 854.778L8.6543 852.554C11.5381 848.246 15.2463 844.538 19.5537 841.654L21.7783 844.977ZM1165.45 841.654C1169.75 844.538 1173.46 848.246 1176.34 852.554L1173.02 854.778C1170.43 850.905 1167.09 847.57 1163.22 844.977L1165.45 841.654ZM50.3867 835V839H41.5C39.124 839 36.8064 839.233 34.5674 839.676L33.791 835.754C36.2844 835.261 38.8618 835 41.5 835H50.3867ZM1144.52 835.013C1146.8 835.071 1149.04 835.324 1151.21 835.754L1150.43 839.676C1148.19 839.233 1145.88 839 1143.5 839H1134.61V835H1143.5L1144.52 835.013ZM85.9355 835V839H68.1611V835H85.9355ZM121.483 835V839H103.71V835H121.483ZM157.032 835V839H139.258V835H157.032ZM192.581 835V839H174.807V835H192.581ZM228.129 835V839H210.354V835H228.129ZM263.678 835V839H245.903V835H263.678ZM299.226 835V839H281.452V835H299.226ZM334.774 835V839H317V835H334.774ZM370.322 835V839H352.549V835H370.322ZM405.871 835V839H388.097V835H405.871ZM441.42 835V839H423.646V835H441.42ZM476.968 835V839H459.193V835H476.968ZM512.517 835V839H494.742V835H512.517ZM548.064 835V839H530.29V835H548.064ZM583.613 835V839H565.839V835H583.613ZM619.161 835V839H601.388V835H619.161ZM654.71 835V839H636.936V835H654.71ZM690.258 835V839H672.483V835H690.258ZM725.807 835V839H708.032V835H725.807ZM761.354 835V839H743.58V835H761.354ZM796.903 835V839H779.129V835H796.903ZM832.451 835V839H814.678V835H832.451ZM868 835V839H850.226V835H868ZM903.548 835V839H885.773V835H903.548ZM939.097 835V839H921.322V835H939.097ZM974.645 835V839H956.87V835H974.645ZM1010.19 835V839H992.419V835H1010.19ZM1045.74 835V839H1027.97V835H1045.74ZM1081.29 835V839H1063.52V835H1081.29ZM1116.84 835V839H1099.06V835H1116.84Z" fill="#4B4B4B"/>
<rect x="55.5" y="859.5" width="30" height="30" rx="15" stroke="#4B4B4B" stroke-width="9"/>
<rect x="40.5" y="844.5" width="60" height="60" rx="30" stroke="#4B4B4B" stroke-width="7"/>
<rect x="227.5" y="859.5" width="30" height="30" rx="15" stroke="#4B4B4B" stroke-width="9"/>
<rect x="212.5" y="844.5" width="60" height="60" rx="30" stroke="#4B4B4B" stroke-width="7"/>
<rect x="399.5" y="859.5" width="30" height="30" rx="15" stroke="#4B4B4B" stroke-width="9"/>
<rect x="384.5" y="844.5" width="60" height="60" rx="30" stroke="#4B4B4B" stroke-width="7"/>
<rect x="571.5" y="859.5" width="30" height="30" rx="15" stroke="#4B4B4B" stroke-width="9"/>
<rect x="556.5" y="844.5" width="60" height="60" rx="30" stroke="#4B4B4B" stroke-width="7"/>
<rect x="743.5" y="859.5" width="30" height="30" rx="15" stroke="#4B4B4B" stroke-width="9"/>
<rect x="728.5" y="844.5" width="60" height="60" rx="30" stroke="#4B4B4B" stroke-width="7"/>
<rect x="915.5" y="859.5" width="30" height="30" rx="15" stroke="#4B4B4B" stroke-width="9"/>
<rect x="900.5" y="844.5" width="60" height="60" rx="30" stroke="#4B4B4B" stroke-width="7"/>
<path d="M677.6 839H621.2V716.6H677.6V753.8H737.6V716.6H794V839H737.6V799.64H677.6V839ZM629.36 724.28V831.32H669.44V791.96H745.76V831.32H785.84V724.28H745.76V761.48H669.44V724.28H629.36Z" fill="#EBEBEB"/>
<path d="M451.6 843.08C428.24 843.08 409.68 841 395.92 836.84C382.32 832.52 372.4 825.64 366.16 816.2C359.92 806.76 356.8 793.96 356.8 777.8C356.8 761.64 359.92 748.84 366.16 739.4C372.4 729.96 382.32 723.16 395.92 719C409.68 714.68 428.24 712.52 451.6 712.52C474.96 712.52 493.44 714.68 507.04 719C520.8 723.16 530.8 729.96 537.04 739.4C543.28 748.84 546.4 761.64 546.4 777.8C546.4 793.96 543.28 806.76 537.04 816.2C530.8 825.64 520.8 832.52 507.04 836.84C493.44 841 474.96 843.08 451.6 843.08ZM451.6 835.4C473.52 835.4 490.72 833.56 503.2 829.88C515.68 826.2 524.64 820.28 530.08 812.12C535.52 803.8 538.24 792.36 538.24 777.8C538.24 763.24 535.52 751.88 530.08 743.72C524.64 735.4 515.68 729.4 503.2 725.72C490.72 722.04 473.52 720.2 451.6 720.2C429.68 720.2 412.48 722.04 400 725.72C387.52 729.4 378.56 735.4 373.12 743.72C367.68 751.88 364.96 763.24 364.96 777.8C364.96 792.36 367.68 803.8 373.12 812.12C378.56 820.28 387.52 826.2 400 829.88C412.48 833.56 429.68 835.4 451.6 835.4ZM496 804.68H407.2V750.92H496V804.68ZM415.36 758.6V797H487.84V758.6H415.36Z" fill="#EBEBEB"/>
<path d="M188.84 839H132.2V716.6H188.84V757.64H196.04L234.92 716.6H297.56V723.08L242.84 776.6L301.64 832.28V839H234.68L195.8 798.92H188.84V839ZM140.36 724.28V831.32H180.68V791.24H199.16L238.04 831.32H288.92L231.32 776.6L285.08 724.28H238.76L199.88 765.32H180.68V724.28H140.36Z" fill="#EBEBEB"/>
<path d="M948 730.601V506.899C948 505.043 948.737 503.263 950.05 501.95L996.45 455.55C997.763 454.238 998.5 452.457 998.5 450.601V386.5C998.5 382.634 1001.63 379.5 1005.5 379.5H1194.5C1198.37 379.5 1201.5 382.634 1201.5 386.5V920C1201.5 923.866 1198.37 927 1194.5 927H1005.5C1001.63 927 998.5 923.866 998.5 920V786.899C998.5 785.043 997.763 783.263 996.45 781.95L950.05 735.55C948.737 734.237 948 732.457 948 730.601Z" fill="#4B4B4B"/>
<defs>
<clipPath id="clip0_107_4623">
<rect width="938" height="838" fill="white" transform="translate(264)"/>
</clipPath>
</defs>
</svg>
