<svg width="1198" height="630" viewBox="0 0 1198 630" fill="none" xmlns="http://www.w3.org/2000/svg">
<rect x="-4.5" y="4.5" width="1155" height="64" rx="32" transform="matrix(-1 0 0 1 1185.5 540.741)" stroke="#4B4B4B" stroke-width="9"/>
<path d="M1164.93 612.065C1162.69 612.508 1160.38 612.741 1158 612.741V616.741C1160.64 616.741 1163.22 616.48 1165.71 615.986L1164.93 612.065ZM1149.11 612.741V616.741H1158V612.741H1149.11ZM1113.56 612.741V616.741H1131.34V612.741H1113.56ZM1078.02 612.741V616.741H1095.79V612.741H1078.02ZM1042.47 612.741V616.741H1060.24V612.741H1042.47ZM1006.92 612.741V616.741H1024.69V612.741H1006.92ZM971.37 612.741V616.741H989.145V612.741H971.37ZM935.822 612.741V616.741H953.597V612.741H935.822ZM900.273 612.741V616.741H918.048V612.741H900.273ZM864.726 612.741V616.741H882.5V612.741H864.726ZM829.178 612.741V616.741H846.951V612.741H829.178ZM793.629 612.741V616.741H811.403V612.741H793.629ZM758.08 612.741V616.741H775.854V612.741H758.08ZM722.532 612.741V616.741H740.307V612.741H722.532ZM686.983 612.741V616.741H704.758V612.741H686.983ZM651.436 612.741V616.741H669.21V612.741H651.436ZM615.887 612.741V616.741H633.661V612.741H615.887ZM580.339 612.741V616.741H598.113V612.741H580.339ZM544.79 612.741V616.741H562.564V612.741H544.79ZM509.242 612.741V616.741H527.017V612.741H509.242ZM473.693 612.741V616.741H491.468V612.741H473.693ZM438.146 612.741V616.741H455.92V612.741H438.146ZM402.597 612.741V616.741H420.371V612.741H402.597ZM367.049 612.741V616.741H384.822V612.741H367.049ZM331.5 612.741V616.741H349.274V612.741H331.5ZM295.951 612.741V616.741H313.726V612.741H295.951ZM260.403 612.741V616.741H278.178V612.741H260.403ZM224.854 612.741V616.741H242.629V612.741H224.854ZM189.307 612.741V616.741H207.081V612.741H189.307ZM153.758 612.741V616.741H171.532V612.741H153.758ZM118.21 612.741V616.741H135.983V612.741H118.21ZM82.6611 612.741V616.741H100.436V612.741H82.6611ZM56 612.741V616.741H64.8867V612.741H56ZM48.292 615.986C50.7852 616.48 53.3621 616.741 56 616.741V612.741C53.624 612.741 51.3064 612.508 49.0674 612.065L48.292 615.986ZM1187.52 596.963C1184.93 600.836 1181.59 604.172 1177.72 606.765L1179.95 610.086C1184.25 607.202 1187.96 603.494 1190.85 599.187L1187.52 596.963ZM23.1553 599.187C26.0391 603.494 29.7471 607.202 34.0547 610.086L36.2783 606.765C32.4053 604.172 29.0695 600.836 26.4766 596.963L23.1553 599.187ZM1197.5 577.241C1197.5 574.603 1197.24 572.026 1196.75 569.532L1192.82 570.309C1193.27 572.548 1193.5 574.865 1193.5 577.241C1193.5 579.617 1193.27 581.935 1192.82 584.174L1196.75 584.949C1197.24 582.456 1197.5 579.879 1197.5 577.241ZM16.5 577.241C16.5 579.879 16.7617 582.456 17.2549 584.949L21.1758 584.174C20.7328 581.935 20.5 579.617 20.5 577.241C20.5 574.865 20.7328 572.548 21.1758 570.309L17.2549 569.532C16.7616 572.026 16.5 574.603 16.5 577.241ZM1177.72 547.718C1181.59 550.311 1184.93 553.646 1187.52 557.52L1190.85 555.295C1187.96 550.988 1184.25 547.279 1179.95 544.396L1177.72 547.718ZM34.0547 544.396C29.7471 547.279 26.0392 550.987 23.1553 555.295L26.4766 557.52C29.0695 553.646 32.4053 550.311 36.2783 547.718L34.0547 544.396ZM1149.11 537.741V541.741H1158C1160.38 541.741 1162.69 541.974 1164.93 542.417L1165.71 538.495C1163.22 538.002 1160.64 537.741 1158 537.741H1149.11ZM54.9805 537.754C52.6974 537.812 50.4629 538.066 48.292 538.495L49.0674 542.417C51.3063 541.974 53.624 541.741 56 541.741H64.8877V537.741H56L54.9805 537.754ZM1113.56 537.741V541.741H1131.34V537.741H1113.56ZM1078.02 537.741V541.741H1095.79V537.741H1078.02ZM1042.47 537.741V541.741H1060.24V537.741H1042.47ZM1006.92 537.741V541.741H1024.69V537.741H1006.92ZM971.371 537.741V541.741H989.146V537.741H971.371ZM935.822 537.741V541.741H953.597V537.741H935.822ZM900.274 537.741V541.741H918.048V537.741H900.274ZM864.726 537.741V541.741H882.5V537.741H864.726ZM829.178 537.741V541.741H846.951V537.741H829.178ZM793.629 537.741V541.741H811.403V537.741H793.629ZM758.08 537.741V541.741H775.854V537.741H758.08ZM722.532 537.741V541.741H740.307V537.741H722.532ZM686.983 537.741V541.741H704.758V537.741H686.983ZM651.436 537.741V541.741H669.21V537.741H651.436ZM615.887 537.741V541.741H633.661V537.741H615.887ZM580.339 537.741V541.741H598.112V537.741H580.339ZM544.79 537.741V541.741H562.564V537.741H544.79ZM509.242 537.741V541.741H527.017V537.741H509.242ZM473.693 537.741V541.741H491.468V537.741H473.693ZM438.146 537.741V541.741H455.92V537.741H438.146ZM402.597 537.741V541.741H420.371V537.741H402.597ZM367.049 537.741V541.741H384.822V537.741H367.049ZM331.5 537.741V541.741H349.274V537.741H331.5ZM295.952 537.741V541.741H313.727V537.741H295.952ZM260.403 537.741V541.741H278.178V537.741H260.403ZM224.855 537.741V541.741H242.63V537.741H224.855ZM189.307 537.741V541.741H207.081V537.741H189.307ZM153.759 537.741V541.741H171.533V537.741H153.759ZM118.21 537.741V541.741H135.984V537.741H118.21ZM82.6621 537.741V541.741H100.437V537.741H82.6621Z" fill="#4B4B4B"/>
<rect x="-4.5" y="4.5" width="30" height="30" rx="15" transform="matrix(-1 0 0 1 1139.5 557.741)" stroke="#4B4B4B" stroke-width="9"/>
<rect x="-3.5" y="3.5" width="60" height="60" rx="30" transform="matrix(-1 0 0 1 1155.5 543.741)" stroke="#4B4B4B" stroke-width="7"/>
<rect x="-4.5" y="4.5" width="30" height="30" rx="15" transform="matrix(-1 0 0 1 967.5 557.741)" stroke="#4B4B4B" stroke-width="9"/>
<rect x="-3.5" y="3.5" width="60" height="60" rx="30" transform="matrix(-1 0 0 1 983.5 543.741)" stroke="#4B4B4B" stroke-width="7"/>
<rect x="-4.5" y="4.5" width="30" height="30" rx="15" transform="matrix(-1 0 0 1 795.5 557.741)" stroke="#4B4B4B" stroke-width="9"/>
<rect x="-3.5" y="3.5" width="60" height="60" rx="30" transform="matrix(-1 0 0 1 811.5 543.741)" stroke="#4B4B4B" stroke-width="7"/>
<rect x="-4.5" y="4.5" width="30" height="30" rx="15" transform="matrix(-1 0 0 1 623.5 557.741)" stroke="#4B4B4B" stroke-width="9"/>
<rect x="-3.5" y="3.5" width="60" height="60" rx="30" transform="matrix(-1 0 0 1 639.5 543.741)" stroke="#4B4B4B" stroke-width="7"/>
<rect x="-4.5" y="4.5" width="30" height="30" rx="15" transform="matrix(-1 0 0 1 451.5 557.741)" stroke="#4B4B4B" stroke-width="9"/>
<rect x="-3.5" y="3.5" width="60" height="60" rx="30" transform="matrix(-1 0 0 1 467.5 543.741)" stroke="#4B4B4B" stroke-width="7"/>
<rect x="-4.5" y="4.5" width="30" height="30" rx="15" transform="matrix(-1 0 0 1 279.5 557.741)" stroke="#4B4B4B" stroke-width="9"/>
<rect x="-3.5" y="3.5" width="60" height="60" rx="30" transform="matrix(-1 0 0 1 295.5 543.741)" stroke="#4B4B4B" stroke-width="7"/>
<path d="M213.5 433.342V209.641C213.5 207.784 212.763 206.004 211.45 204.691L165.05 158.291C163.737 156.979 163 155.198 163 153.342V89.2412C163 85.3752 159.866 82.2412 156 82.2412H7C3.134 82.2412 0 85.3752 0 89.2412V622.741C0 626.607 3.134 629.741 7 629.741H156C159.866 629.741 163 626.607 163 622.741V489.641C163 487.784 163.737 486.004 165.05 484.691L211.45 438.291C212.763 436.979 213.5 435.198 213.5 433.342Z" fill="#4B4B4B"/>
<path d="M439.617 541.204H274.026V328.858H439.617V541.204ZM388.966 502.241C403.641 502.241 414.291 500.098 420.915 495.812C427.538 491.397 430.85 484.578 430.85 475.357C430.85 462.889 424.616 455.096 412.148 451.979C422.019 447.953 426.954 440.486 426.954 429.576C426.954 420.485 423.642 413.796 417.019 409.51C410.395 405.095 399.745 402.887 385.069 402.887H290.585V502.241H388.966ZM387.407 442.239H327.599V428.212H387.407V442.239ZM391.303 476.916H327.599V461.72H391.303V476.916Z" fill="#EBEBEB"/>
<path d="M655.422 541.204H490.026V328.858H655.422V541.204ZM571.458 505.553C579.51 505.553 590.744 505.163 605.16 504.384C619.576 503.735 630.096 503.02 636.72 502.241L638.279 472.24C622.953 473.928 608.732 475.097 595.615 475.747C582.627 476.266 564.834 476.526 542.236 476.526V462.499H647.63C648.279 459.253 648.604 456.006 648.604 452.759C648.604 439.382 646.201 428.927 641.396 421.394C636.72 413.731 628.992 408.212 618.213 404.835C607.563 401.328 592.887 399.575 574.185 399.575C555.353 399.575 540.612 401.328 529.963 404.835C519.313 408.341 511.585 414.121 506.78 422.173C502.104 430.225 499.767 441.33 499.767 455.486C499.767 467.954 501.974 477.825 506.39 485.098C510.936 492.241 518.339 497.436 528.599 500.683C538.989 503.93 553.275 505.553 571.458 505.553ZM608.083 443.018H542.236V428.797H608.083V443.018Z" fill="#EBEBEB"/>
<path d="M871.422 541.204H706.026V328.858H871.422V541.204ZM787.458 505.553C795.51 505.553 806.744 505.163 821.16 504.384C835.576 503.735 846.096 503.02 852.72 502.241L854.279 472.24C838.953 473.928 824.732 475.097 811.615 475.747C798.627 476.266 780.834 476.526 758.236 476.526V462.499H863.63C864.279 459.253 864.604 456.006 864.604 452.759C864.604 439.382 862.201 428.927 857.396 421.394C852.72 413.731 844.992 408.212 834.213 404.835C823.563 401.328 808.887 399.575 790.185 399.575C771.353 399.575 756.612 401.328 745.963 404.835C735.313 408.341 727.585 414.121 722.78 422.173C718.104 430.225 715.767 441.33 715.767 455.486C715.767 467.954 717.974 477.825 722.39 485.098C726.936 492.241 734.339 497.436 744.599 500.683C754.989 503.93 769.275 505.553 787.458 505.553ZM824.083 443.018H758.236V428.797H824.083V443.018Z" fill="#EBEBEB"/>
<path d="M922.026 541.204V328.858H1096.97V541.204H980.47V502.241H1033.65C1053.01 502.241 1066.77 498.15 1074.95 489.968C1083.14 481.656 1087.23 468.863 1087.23 451.59C1087.23 433.667 1083.46 420.55 1075.93 412.238C1068.4 403.796 1056.25 399.575 1039.5 399.575C1023.13 399.575 1001.9 403.341 975.794 410.874L970.729 402.887H938.585V541.204H922.026ZM980.47 440.096C1003.59 434.771 1024.69 432.109 1043.78 432.109V471.071H980.47V440.096Z" fill="#EBEBEB"/>
<path d="M56.9265 38.1681C57.9754 26.4687 67.7798 17.5039 79.5262 17.5039H93.8302C105.577 17.5039 115.381 26.4687 116.43 38.1681L120.39 82.3335H52.9668L56.9265 38.1681Z" fill="#FFBB0E"/>
<path d="M102.885 3.48205C101.667 3.32311 100.426 3.24121 99.1666 3.24121H74.1879C73.1517 3.24121 72.1274 3.29671 71.1182 3.40499M102.885 3.48205V82.3333M102.885 3.48205C115.978 5.19057 126.405 15.8012 127.583 29.282L133.355 82.3333H102.885M102.885 82.3333H71.1182M71.1182 82.3333V3.40499M71.1182 82.3333H40L45.7713 29.282C46.9692 15.5795 57.7223 4.84224 71.1182 3.40499" stroke="#4B4B4B" stroke-width="6.48296"/>
<path d="M130.115 66.1253L43.2436 66.1253M47.7481 45.3799L127.863 45.3799" stroke="#4B4B4B" stroke-width="6.48296"/>
</svg>
