<svg width="210" height="446" viewBox="0 0 210 446" fill="none" xmlns="http://www.w3.org/2000/svg">
<circle cx="105.389" cy="104.998" r="92.6455" fill="#D8D8D8"/>
<circle cx="105.392" cy="104.998" r="70.2561" fill="#EBEBEB"/>
<circle cx="105.39" cy="104.998" r="55.5873" fill="#D8D8D8"/>
<rect x="67.2271" y="120.395" width="75.7474" height="32.4259" rx="8.69736" transform="rotate(-45 67.2271 120.395)" fill="#EBEBEB"/>
<rect x="81.8726" width="46.2579" height="24.9646" rx="12.4823" fill="#D8D8D8"/>
<rect x="81.8726" y="185.031" width="46.2579" height="24.9646" rx="12.4823" fill="#D8D8D8"/>
<rect x="162.889" y="14.3979" width="46.2579" height="24.9646" rx="12.4823" transform="rotate(45 162.889 14.3979)" fill="#D8D8D8"/>
<rect x="32.0503" y="145.235" width="46.2579" height="24.9646" rx="12.4823" transform="rotate(45 32.0503 145.235)" fill="#D8D8D8"/>
<rect x="209.998" y="81.8682" width="46.2579" height="24.9646" rx="12.4823" transform="rotate(90 209.998 81.8682)" fill="#D8D8D8"/>
<rect x="24.9648" y="81.8701" width="46.2579" height="24.9646" rx="12.4823" transform="rotate(90 24.9648 81.8701)" fill="#D8D8D8"/>
<rect x="195.599" y="162.887" width="46.2579" height="24.9646" rx="12.4823" transform="rotate(135 195.599 162.887)" fill="#D8D8D8"/>
<rect x="64.7661" y="32.0513" width="46.2579" height="24.9646" rx="12.4823" transform="rotate(135 64.7661 32.0513)" fill="#D8D8D8"/>
<circle cx="105.389" cy="340.471" r="92.6455" fill="#D8D8D8"/>
<circle cx="105.392" cy="340.471" r="70.2561" fill="#EBEBEB"/>
<circle cx="105.39" cy="340.471" r="55.5873" fill="#D8D8D8"/>
<rect x="73.0811" y="315.089" width="75.7474" height="32.4259" rx="8.69736" transform="rotate(15 73.0811 315.089)" fill="#EBEBEB"/>
<rect x="81.8726" y="235.472" width="46.2579" height="24.9646" rx="12.4823" fill="#D8D8D8"/>
<rect x="81.8726" y="420.504" width="46.2579" height="24.9646" rx="12.4823" fill="#D8D8D8"/>
<rect x="162.895" y="249.871" width="46.2579" height="24.9646" rx="12.4823" transform="rotate(45 162.895 249.871)" fill="#D8D8D8"/>
<rect x="32.0557" y="380.708" width="46.2579" height="24.9646" rx="12.4823" transform="rotate(45 32.0557 380.708)" fill="#D8D8D8"/>
<rect x="210" y="317.341" width="46.2579" height="24.9646" rx="12.4823" transform="rotate(90 210 317.341)" fill="#D8D8D8"/>
<rect x="24.9702" y="317.342" width="46.2579" height="24.9646" rx="12.4823" transform="rotate(90 24.9702 317.342)" fill="#D8D8D8"/>
<rect x="195.604" y="398.36" width="46.2579" height="24.9646" rx="12.4823" transform="rotate(135 195.604 398.36)" fill="#D8D8D8"/>
<rect x="64.7661" y="267.523" width="46.2579" height="24.9646" rx="12.4823" transform="rotate(135 64.7661 267.523)" fill="#D8D8D8"/>
</svg>
