<svg width="725" height="610" viewBox="0 0 725 610" fill="none" xmlns="http://www.w3.org/2000/svg">
<rect width="724.966" height="609.799" rx="21.4094" fill="#FFBB0E"/>
<g opacity="0.56">
<path d="M243.185 163.382V186.787M254.877 174.879H231.075" stroke="#222222" stroke-width="0.836711"/>
<path d="M243.185 274.743V298.147M254.877 286.24H231.075" stroke="#222222" stroke-width="0.836711"/>
<path d="M243.185 386.326V409.73M254.877 397.823H231.075" stroke="#222222" stroke-width="0.836711"/>
<path d="M378.379 163.382V186.787M390.071 174.879H366.269" stroke="#222222" stroke-width="0.836711"/>
<path d="M378.379 274.743V298.147M390.071 286.24H366.269" stroke="#222222" stroke-width="0.836711"/>
<path d="M378.379 386.326V409.73M390.071 397.823H366.269" stroke="#222222" stroke-width="0.836711"/>
<path d="M524.282 163.382V186.787M535.974 174.879H512.172" stroke="#222222" stroke-width="0.836711"/>
<path d="M524.282 274.743V298.147M535.974 286.24H512.172" stroke="#222222" stroke-width="0.836711"/>
<path d="M524.282 386.326V409.73M535.974 397.823H512.172" stroke="#222222" stroke-width="0.836711"/>
</g>
<path d="M70.5698 529.843H659.205M659.205 529.843L650.29 514.401M659.205 529.843L650.29 545.285" stroke="#222222" stroke-width="9.28725" stroke-linecap="round" stroke-linejoin="round"/>
<path d="M86.0115 544.788L86.0116 63.137M86.0116 63.137L70.5698 72.0523M86.0116 63.137L101.453 72.0523" stroke="#222222" stroke-width="9.28725" stroke-linecap="round" stroke-linejoin="round"/>
<path d="M169.062 517.516V539.663" stroke="#222222" stroke-width="3.69128" stroke-linecap="round"/>
<path d="M308.838 517.516V539.663" stroke="#222222" stroke-width="3.69128" stroke-linecap="round"/>
<path d="M448.614 517.516V539.663" stroke="#222222" stroke-width="3.69128" stroke-linecap="round"/>
<path d="M588.39 517.516V539.663" stroke="#222222" stroke-width="3.69128" stroke-linecap="round"/>
<path d="M97.4507 125.502H75.303" stroke="#222222" stroke-width="3.69128" stroke-linecap="round"/>
<path d="M97.4507 233.534H75.303" stroke="#222222" stroke-width="3.69128" stroke-linecap="round"/>
<path d="M97.4507 341.565H75.303" stroke="#222222" stroke-width="3.69128" stroke-linecap="round"/>
<path d="M97.4507 449.597H75.303" stroke="#222222" stroke-width="3.69128" stroke-linecap="round"/>
</svg>
