<svg width="148" height="425" viewBox="0 0 148 425" fill="none" xmlns="http://www.w3.org/2000/svg">
<rect width="32.398" height="424.856" rx="16.199" transform="matrix(-1 0 0 1 89.834 0)" fill="#D8D8D8"/>
<ellipse cx="74" cy="74" rx="74" ry="74" transform="matrix(-1 0 0 1 148 256.239)" fill="#EBEBEB"/>
<circle cx="65.1377" cy="65.1377" r="65.1377" transform="matrix(-1 0 0 1 139.141 265.101)" fill="#D8D8D8"/>
<circle cx="46.527" cy="46.527" r="46.527" transform="matrix(-1 0 0 1 120.529 283.711)" fill="#EBEBEB"/>
<circle cx="32.3473" cy="32.3473" r="32.3473" transform="matrix(-1 0 0 1 106.35 297.891)" fill="#D8D8D8"/>
<rect width="29.4527" height="14.9308" rx="7.46539" transform="matrix(-1 0 0 1 135.482 37.5522)" fill="#D8D8D8"/>
<rect width="29.4527" height="14.9308" rx="7.46539" transform="matrix(-1 0 0 1 135.482 88.9805)" fill="#D8D8D8"/>
<rect width="29.4527" height="14.9308" rx="7.46539" transform="matrix(-1 0 0 1 135.482 140.409)" fill="#D8D8D8"/>
<rect width="29.4527" height="14.9308" rx="7.46539" transform="matrix(-1 0 0 1 135.482 191.837)" fill="#D8D8D8"/>
<rect width="29.4527" height="14.9308" rx="7.46539" transform="matrix(-1 0 0 1 135.482 243.265)" fill="#D8D8D8"/>
</svg>
