<svg width="1200" height="224" viewBox="0 0 1200 224" fill="none" xmlns="http://www.w3.org/2000/svg">
<path d="M51.9814 223.999H8.45996C9.19056 221.623 10.151 219.394 11.3438 217.404L141.689 0H186.281L51.9814 223.999ZM128.284 223.999H84.7617C85.4924 221.623 86.4536 219.394 87.6465 217.404L217.991 0H262.584L128.284 223.999ZM204.586 223.999H161.063C161.794 221.623 162.755 219.394 163.948 217.404L294.294 0H338.886L204.586 223.999ZM280.888 223.999H237.365C238.096 221.623 239.057 219.394 240.25 217.404L370.596 0H415.188L280.888 223.999ZM357.189 223.999H313.667C314.398 221.623 315.359 219.394 316.552 217.404L446.897 0H491.489L357.189 223.999ZM433.491 223.999H389.969C390.699 221.623 391.661 219.394 392.854 217.404L523.199 0H567.791L433.491 223.999ZM509.793 223.999H466.271C467.002 221.623 467.962 219.394 469.155 217.404L599.501 0H644.093L509.793 223.999ZM586.095 223.999H542.573C543.304 221.623 544.264 219.394 545.457 217.404L675.803 0H720.395L586.095 223.999ZM662.396 223.999H618.875C619.606 221.623 620.566 219.394 621.759 217.404L752.104 0H796.696L662.396 223.999ZM738.698 223.999H695.177C695.907 221.623 696.868 219.394 698.061 217.404L828.406 0H872.998L738.698 223.999ZM815 223.999H771.479C772.209 221.623 773.17 219.394 774.362 217.404L904.708 0H949.3L815 223.999ZM891.302 223.999H847.78C848.511 221.623 849.471 219.394 850.664 217.404L981.01 0H1025.6L891.302 223.999ZM967.604 223.999H924.082C924.813 221.623 925.773 219.394 926.966 217.404L1057.31 0H1101.9L967.604 223.999ZM1043.91 223.999H1000.38C1001.11 221.623 1002.08 219.394 1003.27 217.404L1133.61 0H1178.21L1043.91 223.999ZM1200 90.9131L1120.21 223.999H1076.69C1077.42 221.623 1078.38 219.394 1079.57 217.404L1200 16.5391V90.9131ZM1200 218.178L1196.51 223.999H1152.99C1153.72 221.623 1154.68 219.394 1155.87 217.404L1200 143.803V218.178ZM0 183.435V109.061L65.3877 0H109.979L0 183.435ZM0 56.1709V0H33.6777L0 56.1709Z" fill="#EBEBEB"/>
</svg>
