<svg width="1200" height="732" viewBox="0 0 1200 732" fill="none" xmlns="http://www.w3.org/2000/svg">
<path d="M496.714 281.169L499.206 284.074C530.666 257.209 557.184 245.928 580.275 249.587C611.705 254.569 631.496 286.928 648.957 315.478C658.759 331.506 668.018 346.644 678.301 355.068C686.017 361.39 694.266 363.884 702.817 362.481C722.215 359.299 736.172 337.279 736.757 336.343L733.505 334.32C733.371 334.534 719.863 355.818 702.184 358.71C694.773 359.923 687.555 357.703 680.732 352.113C670.951 344.1 661.856 329.23 652.228 313.487C634.335 284.23 614.054 251.069 580.875 245.811C556.609 241.965 529.079 253.53 496.714 281.169Z" fill="#EBEBEB"/>
<path d="M205.908 92.7451L214.165 105.63C247.34 84.4603 277.441 84.4655 301.213 105.646C340.726 140.851 309.493 212.332 309.174 213.05L323.169 219.285C323.539 218.459 332.268 198.766 335.443 173.802C339.79 139.621 331.482 112.111 311.421 94.2376C282.397 68.3773 244.925 67.8474 205.908 92.7451Z" fill="#EBEBEB"/>
<path d="M497.228 418.379C497.485 419.448 503.704 444.836 520.363 469.198C543.111 502.462 574.217 517.533 610.318 512.781C636.689 509.311 658.533 496.721 673.49 476.369C690.74 452.899 695.465 423.167 693.228 410.464L678.132 413.112C679.624 421.581 676.082 446.983 661.131 467.324C648.529 484.471 630.759 494.663 608.314 497.618C577.901 501.621 552.57 489.158 533.024 460.576C517.936 438.513 512.191 415.05 512.134 414.815L497.228 418.379Z" fill="#EBEBEB"/>
<path d="M707.67 414.14L665.566 420.986L663.683 409.453L705.787 402.607L707.67 414.14Z" fill="#EBEBEB"/>
<path d="M938.611 442.895L917.379 428.337L984.386 333.256L1005.62 347.814L938.611 442.895Z" fill="#EBEBEB"/>
<path d="M987.638 378.384L963.148 361.33C961.22 354.807 962.126 347.559 966.254 341.615L978.348 324.231L1017 351.253L1004.91 368.636C1000.8 374.555 994.374 377.917 987.638 378.384Z" fill="#EBEBEB"/>
<path d="M1020.73 353.832L975.563 321.952L979.298 316.479L1024.46 348.359L1020.73 353.832Z" fill="#EBEBEB"/>
<path d="M1036.82 216.162L1029.71 209.573L967.766 250.573L987.18 268.542L1036.82 216.162Z" fill="#EBEBEB"/>
<path d="M1116.15 273.434L1123.95 279.246L1093.7 346.71L1072.42 330.859L1116.15 273.434Z" fill="#EBEBEB"/>
<path d="M1040.51 329.027L994.828 296.96C989.263 293.053 981.615 294.375 977.833 299.897C974.051 305.419 975.511 313.134 981.076 317.041L1026.76 349.108C1032.32 353.015 1039.97 351.693 1043.75 346.171C1047.53 340.649 1046.07 332.934 1040.51 329.027Z" fill="#EBEBEB"/>
<path d="M989.324 317.419C983.736 318.638 978.101 315.195 976.616 309.653L964.153 263.145C961.189 252.506 968.648 241.999 979.667 241.291C990.147 240.618 999.062 249.162 998.769 259.599L997.46 307.615C997.33 312.378 993.993 316.4 989.324 317.419Z" fill="#EBEBEB"/>
<path d="M975.044 259.916C974.701 255.259 979.005 251.774 983.545 253.034C986.295 253.797 988.342 256.279 988.55 259.1C988.894 263.757 984.589 267.242 980.05 265.982C977.3 265.218 975.252 262.737 975.044 259.916Z" fill="#EBEBEB"/>
<path d="M981.035 306.347C980.77 302.769 984.078 300.091 987.566 301.059C989.679 301.645 991.252 303.551 991.412 305.719C991.677 309.297 988.37 311.975 984.882 311.007C982.769 310.421 981.195 308.515 981.035 306.347Z" fill="#EBEBEB"/>
<path d="M1022.35 340.842C1022.4 346.549 1027 351.267 1032.74 351.48L1080.88 353.267C1091.92 353.787 1100.51 344.195 1098.76 333.317C1097.09 322.97 1086.78 316.196 1076.66 318.801L1030.1 330.747C1025.49 331.932 1022.3 336.073 1022.35 340.842Z" fill="#EBEBEB"/>
<path d="M1029.16 338.524C1030.58 335.262 1034.79 334.433 1037.46 336.887C1039.08 338.374 1039.61 340.771 1038.74 342.747C1037.31 346.009 1033.1 346.838 1030.43 344.383C1028.81 342.897 1028.29 340.5 1029.16 338.524Z" fill="#EBEBEB"/>
<path d="M1074.3 332.87C1076.16 328.625 1081.64 327.546 1085.12 330.741C1087.22 332.676 1087.9 335.795 1086.78 338.368C1084.92 342.613 1079.44 343.692 1075.96 340.498C1073.86 338.562 1073.18 335.443 1074.3 332.87Z" fill="#EBEBEB"/>
<path d="M928.578 443.393L852.249 389.724L868.999 365.361L945.328 419.03L928.578 443.393Z" fill="#EBEBEB"/>
<path d="M889.09 357.374L839.347 322.618C824.412 312.183 804.047 315.654 793.86 330.371C783.672 345.088 787.521 365.478 802.456 375.913L852.199 410.669L889.09 357.374Z" fill="#EBEBEB"/>
<path d="M952.251 402.485L917.134 377.985L880.163 431.268L915.28 455.769C930.242 466.207 950.647 462.741 960.856 448.027C971.065 433.313 967.213 412.924 952.251 402.485Z" fill="#EBEBEB"/>
<path d="M948.92 420.871C943.73 412.814 932.992 410.339 924.984 415.355C916.977 420.371 914.684 431.007 919.874 439.065C925.064 447.123 935.802 449.598 943.81 444.582C951.818 439.566 954.11 428.929 948.92 420.871ZM925.988 435.236C922.982 430.57 924.31 424.411 928.947 421.507C933.583 418.602 939.801 420.036 942.806 424.701C945.811 429.367 944.484 435.526 939.847 438.43C935.21 441.334 928.993 439.901 925.988 435.236Z" fill="#EBEBEB"/>
<path d="M928.695 438.705L924.299 436.571C924.237 436.698 917.825 449.601 905.108 459.132C888.298 471.732 868.833 472.802 847.253 462.311C827.434 452.675 815.753 436.073 812.536 412.965C810.104 395.496 813.676 380.667 813.712 380.519L808.966 379.351C808.809 379.986 805.149 395.108 807.672 413.476C811.044 438.025 823.991 456.428 845.112 466.696C874.295 480.883 895.522 472.474 908.19 462.922C921.788 452.67 928.419 439.27 928.695 438.705Z" fill="#EBEBEB"/>
<path d="M641.865 314.606L651.659 409.493L630.974 411.649L621.18 316.762L641.865 314.606Z" fill="#EBEBEB"/>
<path d="M482.156 380.471C483.613 394.744 496.4 405.003 510.714 403.384L669.342 385.517L664.064 333.83L505.436 351.698C491.121 353.317 480.698 366.199 482.156 380.471Z" fill="#EBEBEB"/>
<path d="M628.868 308.92L809.317 300.44C832.506 299.35 852.333 316.442 854.578 339.458C856.823 362.475 840.711 383.47 817.797 387.387L639.736 417.689L628.868 308.92Z" fill="#EBEBEB"/>
<path d="M807.888 316.231C792.41 317.911 781.041 331.812 782.546 347.219C784.05 362.627 797.867 373.796 813.345 372.116C828.824 370.437 840.192 356.536 838.688 341.128C837.183 325.72 823.367 314.552 807.888 316.231ZM812.197 360.353C803.234 361.326 795.234 354.859 794.363 345.937C793.492 337.016 800.075 328.967 809.037 327.994C817.999 327.022 825.999 333.489 826.871 342.41C827.742 351.332 821.159 359.381 812.197 360.353Z" fill="#EBEBEB"/>
<path d="M260.827 183.094C230.219 218.316 234.02 271.63 269.317 302.172L429.532 440.809C464.828 471.352 518.255 467.559 548.863 432.337C579.471 397.115 575.67 343.802 540.373 313.259L380.159 174.622C344.862 144.08 291.435 147.872 260.827 183.094Z" fill="#EBEBEB"/>
<path d="M522.355 409.402C506.241 427.946 478.112 429.94 459.529 413.86C440.946 397.779 438.942 369.711 455.057 351.167C471.174 332.621 499.302 330.626 517.885 346.707C536.469 362.787 538.473 390.856 522.355 409.402ZM468.584 362.872C458.948 373.96 460.145 390.744 471.259 400.362C482.373 409.979 499.193 408.785 508.829 397.697C518.467 386.607 517.27 369.822 506.156 360.205C495.042 350.587 478.221 351.781 468.584 362.872Z" fill="#EBEBEB"/>
<path d="M245.327 152.663L245.327 306.06L311.273 306.06C353.723 306.06 388.135 271.721 388.135 229.362C388.135 187.002 353.723 152.663 311.273 152.663L245.327 152.663Z" fill="#EBEBEB"/>
<path d="M338.807 251.361C326.159 265.917 304.08 267.482 289.494 254.86C274.907 242.238 273.334 220.207 285.983 205.651C298.634 191.094 320.713 189.529 335.299 202.15C349.885 214.772 351.458 236.804 338.807 251.361ZM296.601 214.839C289.038 223.542 289.977 236.717 298.701 244.266C307.424 251.814 320.627 250.877 328.19 242.174C335.755 233.469 334.815 220.294 326.092 212.746C317.368 205.197 304.165 206.134 296.601 214.839Z" fill="#EBEBEB"/>
<path d="M253.095 127.383L253.095 323.498L195.351 323.498L195.351 127.383L253.095 127.383Z" fill="#EBEBEB"/>
<path d="M172.544 60.5413L172.544 409.074C170.942 409.257 169.314 409.353 167.658 409.353L0.0126636 409.353L0.0126459 60.2618L167.658 60.2618C169.314 60.2618 170.942 60.3575 172.544 60.5413Z" fill="#EBEBEB"/>
<path d="M225.304 135.779L225.304 332.276C213.854 374.319 194.145 405.085 166.175 408.294L166.175 59.7614C194.145 62.9705 213.854 93.736 225.304 135.779Z" fill="#EBEBEB"/>
<path d="M51.0127 40.4137L51.0127 416.472L-0.00305939 416.472L-0.00307595 40.4137L51.0127 40.4137Z" fill="#EBEBEB"/>
<path d="M124.059 267.254C124.059 272.44 128.272 276.644 133.469 276.644C138.666 276.644 142.879 272.44 142.879 267.254C142.879 262.068 138.666 257.864 133.469 257.864C128.272 257.864 124.059 262.068 124.059 267.254Z" fill="#EBEBEB"/>
<path d="M124.059 235.428C124.059 240.614 128.272 244.818 133.469 244.818C138.666 244.818 142.879 240.614 142.879 235.428C142.879 230.242 138.666 226.038 133.469 226.038C128.272 226.038 124.059 230.242 124.059 235.428Z" fill="#EBEBEB"/>
<path d="M124.059 203.602C124.059 208.788 128.272 212.992 133.469 212.992C138.666 212.992 142.879 208.788 142.879 203.602C142.879 198.416 138.666 194.212 133.469 194.212C128.272 194.213 124.059 198.416 124.059 203.602Z" fill="#EBEBEB"/>
<path d="M124.059 171.776C124.059 176.962 128.272 181.166 133.469 181.166C138.666 181.166 142.879 176.962 142.879 171.776C142.879 166.59 138.666 162.386 133.469 162.386C128.272 162.386 124.059 166.59 124.059 171.776Z" fill="#EBEBEB"/>
<path d="M59.1505 313.062L59.1505 369.362L110.96 369.362L110.96 313.062L59.1505 313.062ZM60.0232 368.491L60.0232 313.933L110.088 313.933L110.088 368.491L60.0232 368.491Z" fill="#EBEBEB"/>
<path d="M195.019 352.193C203.273 346.468 209.09 337.889 214.209 329.378L214.209 333.511C209.09 342.027 203.273 350.605 195.019 356.337L195.019 352.193Z" fill="#EBEBEB"/>
<path d="M195.019 342.353C203.273 336.642 209.09 328.063 214.209 319.562L214.209 323.695C209.09 332.2 203.273 340.779 195.019 346.496L195.019 342.353Z" fill="#EBEBEB"/>
<path d="M195.019 332.514C203.274 326.816 209.089 318.237 214.209 309.746L214.209 313.879C209.089 322.374 203.274 330.953 195.019 336.657L195.019 332.514Z" fill="#EBEBEB"/>
<path d="M195.019 322.674C203.274 316.99 209.089 308.411 214.209 299.931L214.209 304.064C209.089 312.548 203.274 321.127 195.019 326.818L195.019 322.674Z" fill="#EBEBEB"/>
<path d="M195.019 312.835C203.274 307.164 209.088 298.584 214.209 290.115L214.209 294.248C209.089 302.721 203.274 311.301 195.019 316.978L195.019 312.835Z" fill="#EBEBEB"/>
<path d="M195.019 302.996C203.274 297.338 209.088 288.758 214.209 280.299L214.209 284.432C209.088 292.895 203.274 301.475 195.019 307.138L195.019 302.996Z" fill="#EBEBEB"/>
<path d="M195.019 293.156C203.274 287.512 209.087 278.931 214.209 270.483L214.209 274.616C209.088 283.069 203.274 291.649 195.019 297.298L195.019 293.156Z" fill="#EBEBEB"/>
</svg>
