<svg width="1200" height="1517" viewBox="0 0 1200 1517" fill="none" xmlns="http://www.w3.org/2000/svg">
<path d="M816.847 361.011C816.173 369.585 845.621 380.375 843.754 404.099C841.32 435.033 824.418 440.836 802.344 439.098C773.408 436.821 773.557 397.691 773.81 392.222C774.065 386.759 788.275 390.483 788.94 395.044C789.601 399.605 790.043 413.894 802.344 415.023C813.549 416.053 819.477 403.968 816.777 395.963C812.506 383.314 792.716 371.69 793.447 362.402C794.121 353.834 795.315 341.418 795.315 341.418L818.247 343.223C818.247 343.223 817.522 352.436 816.847 361.011Z" fill="#D8D8D8"/>
<path d="M769.877 294.781C769.877 315.081 786.329 331.532 806.627 331.532C826.912 331.532 843.358 315.081 843.358 294.781C843.358 274.494 826.911 258.049 806.627 258.049C786.329 258.048 769.877 274.494 769.877 294.781Z" fill="#D8D8D8"/>
<path d="M792.162 332.161C792.162 340.019 798.53 346.386 806.384 346.386C814.243 346.386 820.608 340.019 820.608 332.161C820.608 324.309 814.242 317.94 806.384 317.94C798.531 317.94 792.162 324.309 792.162 332.161Z" fill="#D8D8D8"/>
<path d="M754.001 519.946L808.501 425.549L863.001 519.946" stroke="#D8D8D8" stroke-width="5"/>
<path d="M786.001 345.198C786.83 346.94 788.587 348.049 790.515 348.049H823.201C825.13 348.049 826.887 346.94 827.716 345.198L845.873 307.069C846.192 306.397 846.358 305.663 846.358 304.919V284.049C846.358 281.287 844.12 279.049 841.358 279.049H772.358C769.597 279.049 767.358 281.287 767.358 284.049V304.919C767.358 305.663 767.524 306.397 767.844 307.069L786.001 345.198Z" fill="#D9D9D9"/>
<path d="M831.358 91.0488V298.049H781.358V91.0488" stroke="#D8D8D8" stroke-width="5"/>
<path d="M310.511 497.011C311.185 505.585 281.737 516.375 283.604 540.099C286.038 571.033 302.94 576.836 325.014 575.098C353.95 572.821 353.801 533.691 353.548 528.222C353.293 522.759 339.083 526.483 338.418 531.044C337.757 535.605 337.315 549.894 325.014 551.023C313.809 552.053 307.88 539.968 310.581 531.963C314.852 519.314 334.642 507.69 333.911 498.402C333.237 489.834 332.043 477.418 332.043 477.418L309.111 479.223C309.111 479.223 309.836 488.436 310.511 497.011Z" fill="#D8D8D8"/>
<path d="M357.481 430.781C357.481 451.081 341.029 467.532 320.731 467.532C300.446 467.532 284 451.081 284 430.781C284 410.494 300.447 394.049 320.731 394.049C341.029 394.048 357.481 410.494 357.481 430.781Z" fill="#D8D8D8"/>
<path d="M335.196 468.161C335.196 476.019 328.828 482.386 320.974 482.386C313.115 482.386 306.75 476.019 306.75 468.161C306.75 460.309 313.116 453.94 320.974 453.94C328.827 453.94 335.196 460.309 335.196 468.161Z" fill="#D8D8D8"/>
<path d="M341.357 481.198C340.528 482.94 338.772 484.049 336.843 484.049H304.157C302.228 484.049 300.472 482.94 299.643 481.198L281.486 443.069C281.166 442.397 281 441.663 281 440.919V420.049C281 417.287 283.239 415.049 286 415.049H355C357.761 415.049 360 417.287 360 420.049V440.919C360 441.663 359.834 442.397 359.514 443.069L341.357 481.198Z" fill="#D9D9D9"/>
<path d="M296 183.049V434.049H346V183.049" stroke="#D8D8D8" stroke-width="5"/>
<g clip-path="url(#clip0_86_610)">
<path d="M1405.02 0C1409.93 0.000195432 1413.91 3.97957 1413.91 8.8877V17.3555C1413.91 19.9805 1412.75 22.4725 1410.74 24.1611L1291.91 123.997H1405.02C1409.93 123.997 1413.91 127.977 1413.91 132.885V139.693C1413.91 144.601 1409.93 148.58 1405.02 148.58H1259.2C1258.77 148.63 1258.28 148.663 1257.77 148.663C1257.27 148.663 1256.78 148.633 1256.31 148.58H1112.18C1111.74 148.63 1111.26 148.663 1110.74 148.663C1110.24 148.663 1109.75 148.633 1109.28 148.58H965.15C964.712 148.63 964.23 148.663 963.714 148.663C963.215 148.663 962.729 148.633 962.258 148.58H818.124C817.686 148.63 817.205 148.663 816.688 148.663C816.19 148.663 815.703 148.633 815.232 148.58H671.617C671.179 148.63 670.697 148.663 670.181 148.663C669.682 148.663 669.196 148.633 668.726 148.58H524.59C524.152 148.63 523.67 148.663 523.154 148.663C522.655 148.663 522.169 148.633 521.698 148.58H377.564C377.126 148.63 376.645 148.663 376.128 148.663C375.629 148.663 375.143 148.633 374.672 148.58H230.538C230.1 148.63 229.618 148.663 229.102 148.663C228.603 148.663 228.116 148.633 227.646 148.58H84.5508C84.1125 148.63 83.6301 148.663 83.1133 148.663C82.6146 148.663 82.1287 148.633 81.6582 148.58H-62.4756C-62.9138 148.63 -63.3954 148.663 -63.9121 148.663C-64.411 148.663 -64.8975 148.633 -65.3682 148.58H-205.026C-209.934 148.58 -213.914 144.601 -213.914 139.693V126.538C-213.914 123.913 -212.753 121.422 -210.743 119.733L-97.4893 24.583H-205.026C-209.934 24.583 -213.914 20.6043 -213.914 15.6963V8.8877C-213.914 3.97945 -209.935 0 -205.026 0H1405.02ZM-176.798 123.997H-76.6973V39.8975L-176.798 123.997ZM-29.7725 123.997H70.3291V39.8965L-29.7725 123.997ZM117.255 123.997H216.316V40.7715L117.255 123.997ZM263.242 123.997H363.343V39.8984L263.242 123.997ZM410.269 123.997H510.37V39.8975L410.269 123.997ZM557.295 123.997H657.396V39.8975L557.295 123.997ZM704.322 123.997H803.902V40.334L704.322 123.997ZM850.829 123.997H950.93V39.8975L850.829 123.997ZM997.855 123.997H1097.96L1097.96 39.8984L997.855 123.997ZM1144.88 123.997H1244.98L1244.98 39.8975L1144.88 123.997ZM-51.127 109.155L49.5361 24.583H-51.127V109.155ZM95.8994 109.155L196.563 24.583H95.8994V109.155ZM241.888 109.155L342.552 24.583H241.888V109.155ZM388.914 109.155L489.578 24.583H388.914V109.155ZM976.501 109.155L1077.17 24.583H976.501V109.155ZM1123.53 109.155L1224.19 24.583H1123.53V109.155ZM1270.55 109.155L1371.22 24.583H1270.55V109.155ZM535.94 109.154L636.604 24.583H535.94V109.154ZM682.968 109.154L783.631 24.583H682.968V109.154ZM829.475 109.154L930.138 24.583H829.475V109.154Z" fill="#D9D9D9"/>
<path d="M664.571 164.348C666.918 164.348 668.821 166.25 668.821 168.597V172.647C668.821 173.902 668.266 175.093 667.305 175.901L610.482 223.64H664.571C666.918 223.64 668.821 225.543 668.821 227.89V231.146C668.821 233.493 666.918 235.395 664.571 235.395H594.844C594.634 235.419 594.404 235.435 594.157 235.435C593.919 235.435 593.686 235.42 593.461 235.395H524.539C524.33 235.419 524.099 235.435 523.853 235.435C523.614 235.435 523.381 235.42 523.156 235.395H454.234C454.025 235.419 453.795 235.435 453.548 235.435C453.309 235.435 453.077 235.42 452.852 235.395H383.931C383.721 235.419 383.491 235.435 383.244 235.435C383.006 235.435 382.773 235.42 382.548 235.395H313.874C313.665 235.419 313.434 235.435 313.188 235.435C312.949 235.435 312.716 235.42 312.491 235.395H243.569C243.36 235.419 243.129 235.435 242.883 235.435C242.644 235.435 242.412 235.42 242.188 235.395H173.266C173.056 235.419 172.826 235.435 172.579 235.435C172.341 235.435 172.108 235.42 171.883 235.395H102.961C102.751 235.419 102.521 235.435 102.274 235.435C102.036 235.435 101.803 235.42 101.578 235.395H33.1543C32.9447 235.419 32.7139 235.435 32.4668 235.435C32.2283 235.435 31.9955 235.42 31.7705 235.395H-37.1504C-37.3598 235.419 -37.59 235.435 -37.8369 235.435C-38.0754 235.435 -38.3082 235.42 -38.5332 235.395H-105.315C-107.662 235.395 -109.564 233.493 -109.564 231.146V224.855C-109.564 223.6 -109.01 222.409 -108.049 221.602L-53.8936 176.103H-105.315C-107.662 176.103 -109.564 174.2 -109.564 171.853V168.597C-109.564 166.251 -107.662 164.348 -105.315 164.348H664.571ZM-91.8164 223.64H-43.9512V183.426L-91.8164 223.64ZM-21.5127 223.64H26.3535V183.425L-21.5127 223.64ZM48.792 223.64H96.1611V183.843L48.792 223.64ZM118.6 223.64H166.465V183.426L118.6 223.64ZM188.904 223.64H236.77V183.426L188.904 223.64ZM259.208 223.64H307.074V183.426L259.208 223.64ZM329.513 223.64H377.13V183.635L329.513 223.64ZM399.569 223.64H447.435V183.426L399.569 223.64ZM469.873 223.64H517.739L517.738 183.426L469.873 223.64ZM540.178 223.64H588.044L588.043 183.426L540.178 223.64ZM-31.7236 216.543L16.4111 176.103H-31.7236V216.543ZM38.5811 216.543L86.7158 176.103H38.5811V216.543ZM108.389 216.543L156.523 176.103H108.389V216.543ZM178.692 216.543L226.828 176.103H178.692V216.543ZM459.662 216.543L507.797 176.103H459.662V216.543ZM529.967 216.543L578.102 176.103H529.967V216.543ZM600.271 216.543L648.405 176.103H600.271V216.543ZM248.997 216.542L297.132 176.103H248.997V216.542ZM319.302 216.542L367.437 176.103H319.302V216.542ZM389.357 216.542L437.492 176.103H389.357V216.542Z" fill="#D9D9D9"/>
<path d="M1367.14 164.348C1369.48 164.348 1371.39 166.25 1371.39 168.597V172.647C1371.39 173.902 1370.83 175.093 1369.87 175.901L1313.05 223.64H1367.14C1369.48 223.64 1371.39 225.543 1371.39 227.89V231.146C1371.39 233.493 1369.48 235.395 1367.14 235.395H1297.41C1297.2 235.419 1296.97 235.435 1296.72 235.435C1296.48 235.435 1296.25 235.42 1296.03 235.395H1227.1C1226.89 235.419 1226.66 235.435 1226.42 235.435C1226.18 235.435 1225.95 235.42 1225.72 235.395H1156.8C1156.59 235.419 1156.36 235.435 1156.11 235.435C1155.87 235.435 1155.64 235.42 1155.42 235.395H1086.5C1086.29 235.419 1086.06 235.435 1085.81 235.435C1085.57 235.435 1085.34 235.42 1085.11 235.395H1016.44C1016.23 235.419 1016 235.435 1015.75 235.435C1015.51 235.435 1015.28 235.42 1015.06 235.395H946.135C945.925 235.419 945.695 235.435 945.448 235.435C945.21 235.435 944.977 235.42 944.752 235.395H875.831C875.622 235.419 875.391 235.435 875.144 235.435C874.905 235.435 874.672 235.42 874.447 235.395H805.526C805.317 235.419 805.087 235.435 804.84 235.435C804.601 235.435 804.369 235.42 804.144 235.395H735.719C735.509 235.419 735.278 235.435 735.031 235.435C734.793 235.435 734.561 235.42 734.336 235.395H665.414C665.205 235.419 664.974 235.435 664.728 235.435C664.489 235.435 664.256 235.42 664.031 235.395H597.25C594.903 235.395 593 233.493 593 231.146V224.855C593 223.6 593.556 222.409 594.517 221.602L648.672 176.103H597.25C594.903 176.103 593 174.2 593 171.853V168.597C593 166.25 594.903 164.348 597.25 164.348H1367.14ZM610.748 223.64H658.614V183.426L610.748 223.64ZM681.053 223.64H728.918V183.425L681.053 223.64ZM751.357 223.64H798.726V183.843L751.357 223.64ZM821.164 223.64H869.03V183.426L821.164 223.64ZM891.469 223.64H939.335V183.426L891.469 223.64ZM961.773 223.64H1009.64V183.426L961.773 223.64ZM1032.08 223.64H1079.7V183.635L1032.08 223.64ZM1102.13 223.64H1150L1150 183.426L1102.13 223.64ZM1172.44 223.64H1220.3V183.426L1172.44 223.64ZM1242.74 223.64H1290.61V183.426L1242.74 223.64ZM670.841 216.543L718.976 176.103H670.841V216.543ZM741.146 216.543L789.28 176.103H741.146V216.543ZM810.953 216.543L859.089 176.103H810.953V216.543ZM881.258 216.543L929.393 176.103H881.258V216.543ZM1162.23 216.543L1210.36 176.103H1162.23V216.543ZM1232.53 216.543L1280.67 176.103H1232.53V216.543ZM1302.84 216.543L1350.97 176.103H1302.84V216.543ZM951.562 216.542L999.697 176.103H951.562V216.542ZM1021.87 216.542L1070 176.103H1021.87V216.542ZM1091.92 216.542L1140.06 176.103H1091.92V216.542Z" fill="#D9D9D9"/>
<rect x="1221.52" y="158.479" width="41.087" height="1329.78" transform="rotate(90 1221.52 158.479)" fill="#D9D9D9"/>
</g>
<rect x="127" y="930.049" width="385" height="10.0164" rx="4" fill="#D8D8D8"/>
<rect x="127" y="967.032" width="385" height="10.0164" rx="4" fill="#D8D8D8"/>
<rect x="145.332" y="937.061" width="50.4056" height="32.9757" fill="#D8D8D8"/>
<rect x="294.665" y="937.061" width="50.4056" height="32.9757" fill="#D8D8D8"/>
<rect x="443.997" y="937.061" width="50.4056" height="32.9757" fill="#D8D8D8"/>
<rect x="741" y="1441.05" width="385" height="10.0164" rx="4" fill="#D8D8D8"/>
<rect x="741" y="1478.03" width="385" height="10.0164" rx="4" fill="#D8D8D8"/>
<rect x="759.332" y="1448.06" width="50.4056" height="32.9757" fill="#D8D8D8"/>
<rect x="908.665" y="1448.06" width="50.4056" height="32.9757" fill="#D8D8D8"/>
<rect x="1058" y="1448.06" width="50.4056" height="32.9757" fill="#D8D8D8"/>
<path d="M256.232 1405.68C244.569 1405.68 233.998 1410.41 226.352 1418.06C218.707 1425.7 213.974 1436.26 213.974 1447.94C213.974 1459.62 218.707 1470.17 226.352 1477.82C233.998 1485.46 244.556 1490.2 256.232 1490.2C267.909 1490.2 278.467 1485.46 286.113 1477.82C293.758 1470.17 298.491 1459.62 298.491 1447.94C298.491 1436.26 293.758 1425.7 286.113 1418.06C278.467 1410.41 267.909 1405.68 256.232 1405.68ZM236.702 1428.41C241.695 1423.42 248.6 1420.32 256.232 1420.32C263.865 1420.32 270.756 1423.42 275.762 1428.41C280.756 1433.4 283.85 1440.31 283.85 1447.94C283.85 1455.57 280.756 1462.46 275.762 1467.47C270.769 1472.46 263.865 1475.56 256.232 1475.56C248.6 1475.56 241.708 1472.46 236.702 1467.47C231.709 1462.48 228.615 1455.57 228.615 1447.94C228.615 1440.31 231.709 1433.41 236.702 1428.41Z" fill="#D8D8D8"/>
<path d="M121.652 1405.68C109.989 1405.68 99.4177 1410.41 91.7721 1418.06C84.1265 1425.7 79.3935 1436.26 79.3935 1447.94C79.3935 1459.62 84.1265 1470.17 91.7721 1477.82C99.4177 1485.46 109.976 1490.2 121.652 1490.2C133.329 1490.2 143.887 1485.46 151.533 1477.82C159.178 1470.17 163.911 1459.62 163.911 1447.94C163.911 1436.26 159.178 1425.7 151.533 1418.06C143.887 1410.41 133.329 1405.68 121.652 1405.68ZM102.122 1428.41C107.115 1423.42 114.02 1420.32 121.652 1420.32C129.285 1420.32 136.176 1423.42 141.182 1428.41C146.175 1433.4 149.27 1440.31 149.27 1447.94C149.27 1455.57 146.175 1462.46 141.182 1467.47C136.189 1472.46 129.285 1475.56 121.652 1475.56C114.02 1475.56 107.128 1472.46 102.122 1467.47C97.1292 1462.48 94.0345 1455.57 94.0345 1447.94C94.0345 1440.31 97.1292 1433.41 102.122 1428.41Z" fill="#D8D8D8"/>
<path fill-rule="evenodd" clip-rule="evenodd" d="M339.994 1436.39L324.772 1436.08L317.265 1459.32L350.229 1458.53C350.469 1458.54 350.717 1458.57 350.96 1458.56C351.096 1458.56 351.219 1458.55 351.339 1458.56L537.597 1458.56C543.628 1458.56 548.571 1453.62 548.572 1447.59C548.572 1441.56 543.637 1436.62 537.607 1436.62L361.914 1436.62L361.845 1324.51C361.845 1318.47 356.91 1313.53 350.88 1313.53C344.849 1313.53 339.906 1318.47 339.905 1324.5L339.979 1436.4L339.994 1436.39Z" fill="#D8D8D8"/>
<path fill-rule="evenodd" clip-rule="evenodd" d="M281.262 1232.65L337.226 1440.03C336.419 1443.71 337.109 1458.29 333.208 1459.29C333.065 1459.33 332.09 1459.81 331.946 1459.81L305.187 1459.47C305.603 1456.89 305.811 1450.59 305.811 1447.94C305.811 1434.75 300.61 1422.21 291.287 1412.88C281.964 1403.56 269.416 1398.36 256.232 1398.36C243.047 1398.36 230.499 1403.56 221.176 1412.88C211.853 1422.21 206.652 1434.75 206.652 1447.94C206.652 1450.2 206.808 1452.44 207.107 1454.65L170.804 1454.22C171.064 1452.15 171.207 1450.06 171.207 1447.94C171.207 1434.75 166.006 1422.21 156.683 1412.88C147.36 1403.56 134.812 1398.36 121.627 1398.36C108.443 1398.36 95.8951 1403.56 86.5722 1412.88C77.2492 1422.21 72.0481 1434.75 72.0481 1447.94C72.0481 1449.68 72.1391 1451.41 72.3212 1453.13L7.91869 1452.71C7.72365 1452.72 7.51558 1452.74 7.32054 1452.74C3.27669 1452.74 7.76167e-05 1449.46 7.76167e-05 1445.42V1321.06C7.76167e-05 1317.01 3.27669 1313.74 7.32054 1313.74H108.339V1181.37C108.339 1177.33 111.615 1174.05 115.659 1174.05H221.124C221.917 1174.04 222.724 1174.14 223.517 1174.4V1174.43C272.381 1190.13 280.417 1227.95 281.236 1232.64L281.262 1232.65ZM247.806 1306.48C251.85 1306.48 255.126 1303.21 255.126 1299.16C255.126 1298.37 254.996 1297.59 254.762 1296.87L237.391 1232.48C236.949 1230.03 235.089 1221.67 229.381 1211.98C228.003 1209.63 225.519 1208.34 222.971 1208.38H194.456C186.446 1208.38 179.152 1211.65 173.885 1216.92C168.606 1222.2 165.343 1229.48 165.343 1237.49V1277.36C165.343 1285.38 168.619 1292.66 173.885 1297.93C179.165 1303.21 186.446 1306.47 194.456 1306.47H247.793L247.806 1306.48Z" fill="#D8D8D8"/>
<path d="M0 979.049L1200 979.049" stroke="#D8D8D8" stroke-width="5"/>
<path d="M0 1488.05L1200 1488.05" stroke="#D8D8D8" stroke-width="5"/>
<defs>
<clipPath id="clip0_86_610">
<rect width="1200" height="235.435" fill="white"/>
</clipPath>
</defs>
</svg>
