<svg width="1016" height="886" viewBox="0 0 1016 886" fill="none" xmlns="http://www.w3.org/2000/svg">
<path d="M580.305 229.155H870.529M580.305 229.155V223.681M580.305 229.155V234.629M870.529 229.155V223.681M870.529 229.155V234.629" stroke="#FFBB0E" stroke-width="5" stroke-linejoin="round"/>
<path d="M2.5 164C1.11929 164 0 165.119 0 166.5C0 167.881 1.11929 169 2.5 169V166.5V164ZM122.167 186.5C122.167 193.864 128.136 199.833 135.5 199.833C142.864 199.833 148.833 193.864 148.833 186.5C148.833 179.136 142.864 173.167 135.5 173.167C128.136 173.167 122.167 179.136 122.167 186.5ZM117.924 169.103L116.165 170.88L117.924 169.103ZM2.5 166.5V169H111.593V166.5V164H2.5V166.5ZM117.924 169.103L116.165 170.88L133.741 188.277L135.5 186.5L137.259 184.723L119.683 167.327L117.924 169.103ZM111.593 166.5V169C113.305 169 114.948 169.676 116.165 170.88L117.924 169.103L119.683 167.327C117.529 165.195 114.622 164 111.593 164V166.5Z" fill="#FFBB0E"/>
<path d="M654.731 32.8791C654.731 40.2429 660.7 46.2125 668.064 46.2125C675.428 46.2125 681.397 40.2429 681.397 32.8791C681.397 25.5153 675.428 19.5458 668.064 19.5458C660.7 19.5458 654.731 25.5153 654.731 32.8791ZM382.5 0C381.119 0 380 1.11929 380 2.5C380 3.88071 381.119 5 382.5 5V2.5V0ZM551.506 30.2431L549.738 32.0109L551.506 30.2431ZM526.399 5.13604L528.167 3.36827L526.399 5.13604ZM526.399 5.13604L524.631 6.90381L549.738 32.0109L551.506 30.2431L553.274 28.4753L528.167 3.36827L526.399 5.13604ZM557.87 32.8791V35.3791H668.064V32.8791V30.3791H557.87V32.8791ZM520.035 2.5V0H382.5V2.5V5H520.035V2.5ZM551.506 30.2431L549.738 32.0109C551.895 34.1675 554.82 35.3791 557.87 35.3791V32.8791V30.3791C556.146 30.3791 554.493 29.6943 553.274 28.4753L551.506 30.2431ZM526.399 5.13604L528.167 3.36827C526.01 1.2116 523.085 0 520.035 0V2.5V5C521.759 5 523.412 5.68482 524.631 6.90381L526.399 5.13604Z" fill="#FFBB0E"/>
<path d="M578.5 348C577.119 348 576 349.119 576 350.5C576 351.881 577.119 353 578.5 353V350.5V348ZM804.167 267.5C804.167 274.864 810.136 280.833 817.5 280.833C824.864 280.833 830.833 274.864 830.833 267.5C830.833 260.136 824.864 254.167 817.5 254.167C810.136 254.167 804.167 260.136 804.167 267.5ZM578.5 350.5V353H729.878V350.5V348H578.5V350.5ZM736.206 347.899L737.964 349.677L819.258 269.278L817.5 267.5L815.742 265.722L734.448 346.122L736.206 347.899ZM729.878 350.5V353C732.906 353 735.811 351.806 737.964 349.677L736.206 347.899L734.448 346.122C733.231 347.325 731.589 348 729.878 348V350.5Z" fill="#FFBB0E"/>
<path d="M467.559 626C468.939 626 470.059 627.119 470.059 628.5C470.059 629.881 468.939 631 467.559 631V628.5V626ZM314.136 681.638C314.136 689.002 308.166 694.972 300.802 694.972C293.438 694.972 287.469 689.002 287.469 681.638C287.469 674.275 293.438 668.305 300.802 668.305C308.166 668.305 314.136 674.275 314.136 681.638ZM351.305 631.136L353.072 632.904L351.305 631.136ZM467.559 628.5V631H357.669V628.5V626H467.559V628.5ZM351.305 631.136L353.072 632.904L302.57 683.406L300.802 681.638L299.034 679.871L349.537 629.368L351.305 631.136ZM357.669 628.5V631C355.945 631 354.291 631.685 353.072 632.904L351.305 631.136L349.537 629.368C351.693 627.212 354.619 626 357.669 626V628.5Z" fill="#FFBB0E"/>
<path d="M746.805 653.663C746.805 661.027 752.775 666.996 760.139 666.996C767.502 666.996 773.472 661.027 773.472 653.663C773.472 646.299 767.502 640.33 760.139 640.33C752.775 640.33 746.805 646.299 746.805 653.663ZM1013.2 579C1014.58 579 1015.7 577.881 1015.7 576.5C1015.7 575.119 1014.58 574 1013.2 574V576.5V579ZM834.666 579.136L836.433 580.904L834.666 579.136ZM760.139 653.663L761.906 655.431L836.433 580.904L834.666 579.136L832.898 577.368L758.371 651.895L760.139 653.663ZM841.03 576.5V579H1013.2V576.5V574H841.03V576.5ZM834.666 579.136L836.433 580.904C837.652 579.685 839.306 579 841.03 579V576.5V574C837.98 574 835.055 575.212 832.898 577.368L834.666 579.136Z" fill="#FFBB0E"/>
<path d="M704.219 663.231L704.267 663.202C691.903 670.698 682.404 680.459 675.768 692.484C665.585 711.388 660.494 738.252 660.494 773.075C660.494 807.899 665.585 834.762 675.768 853.666C682.381 865.493 691.839 875.171 704.141 882.699M962.485 663.262C974.743 670.75 984.102 680.491 990.562 692.484C1000.99 711.388 1006.21 738.252 1006.21 773.075C1006.21 807.899 1000.99 834.762 990.562 853.666C984.102 865.502 974.743 875.185 962.485 882.715M704.141 882.699L704.186 882.726L704.256 882.769C704.218 882.746 704.179 882.722 704.141 882.699Z" stroke="#FFBB0E" stroke-width="5.46825"/>
<path d="M331.73 810.5V748.5H394.55V810.5H331.73Z" fill="#FFBB0E"/>
<path d="M394.55 709.808V728.5H394.5V655.015H456.5V709.808H394.55Z" fill="#FFBB0E"/>
<path d="M175.717 148.18H267.853L310.323 233.5H243.959L222.832 189.362H221.087L199.804 233.5H133.626L175.717 148.18Z" fill="#FFBB0E"/>
</svg>
