<svg width="1200" height="854" viewBox="0 0 1200 854" fill="none" xmlns="http://www.w3.org/2000/svg">
<path d="M149.961 119.107V118.627L184.809 53.8272H200.073L235.209 118.627V119.107H224.073L192.585 59.6832H192.393L160.617 119.107H149.961ZM165.897 102.691L170.409 93.8592H214.569L219.081 102.691H165.897Z" fill="#EBEBEB"/>
<path d="M294.991 119.107V53.8272H346.351C352.175 53.8272 356.847 54.4352 360.367 55.6512C363.887 56.8032 366.447 58.6912 368.047 61.3152C369.711 63.8752 370.543 67.2992 370.543 71.5872C370.543 75.7472 369.711 79.0752 368.047 81.5712C366.383 84.0672 363.727 85.8912 360.079 87.0432C356.431 88.1952 351.567 88.7712 345.487 88.7712L347.407 83.1072C353.359 83.1072 358.095 83.7152 361.615 84.9312C365.135 86.1472 367.695 88.0672 369.295 90.6912C370.959 93.2512 371.791 96.6752 371.791 100.963C371.791 105.379 370.991 108.899 369.391 111.523C367.791 114.147 365.263 116.067 361.807 117.283C358.351 118.499 353.743 119.107 347.983 119.107H294.991ZM305.071 110.371H360.751V90.4032H300.943V81.6672H359.503V62.5632H305.071V110.371Z" fill="#EBEBEB"/>
<path d="M461.985 119.107V62.6592H428.097V53.8272H506.049V62.6592H472.065V119.107H461.985Z" fill="#EBEBEB"/>
<path d="M603.165 120.163C590.941 120.163 581.917 119.299 576.093 117.571C570.333 115.843 566.365 112.675 564.189 108.067C562.013 103.395 560.925 96.1952 560.925 86.4672C560.925 76.7392 562.013 69.5712 564.189 64.9632C566.365 60.2912 570.333 57.0912 576.093 55.3632C581.917 53.6352 590.941 52.7712 603.165 52.7712C615.389 52.7712 624.381 53.6352 630.141 55.3632C635.965 57.0912 639.965 60.2912 642.141 64.9632C644.317 69.5712 645.405 76.7392 645.405 86.4672C645.405 96.1952 644.317 103.395 642.141 108.067C639.965 112.675 635.965 115.843 630.141 117.571C624.381 119.299 615.389 120.163 603.165 120.163ZM603.165 110.947C608.797 110.947 614.173 110.787 619.293 110.467C624.413 110.083 629.405 109.475 634.269 108.643V64.2912C629.405 63.3952 624.413 62.7872 619.293 62.4672C614.237 62.0832 608.861 61.8912 603.165 61.8912C597.469 61.8912 592.061 62.0832 586.941 62.4672C581.885 62.7872 576.925 63.3952 572.061 64.2912V108.643C576.925 109.475 581.917 110.083 587.037 110.467C592.157 110.787 597.533 110.947 603.165 110.947Z" fill="#EBEBEB"/>
<path d="M577.118 249.258V241.674H628.094V249.258H577.118Z" fill="#EBEBEB"/>
<path d="M498.853 517.896H440.773V504.936H498.853V517.896ZM444.037 508.008V514.824H495.589V508.008H444.037Z" fill="#EBEBEB"/>
<path d="M701.559 119.107V53.8272H711.639V119.107H701.559ZM705.687 90.4992V81.5712H772.119V90.4992H705.687ZM768.375 119.107V53.8272H778.455V119.107H768.375Z" fill="#EBEBEB"/>
<path d="M875.086 120.163C862.862 120.163 853.838 119.299 848.014 117.571C842.254 115.843 838.286 112.675 836.11 108.067C833.934 103.395 832.846 96.1952 832.846 86.4672C832.846 76.7392 833.934 69.5712 836.11 64.9632C838.286 60.2912 842.254 57.0912 848.014 55.3632C853.838 53.6352 862.862 52.7712 875.086 52.7712C887.31 52.7712 896.302 53.6352 902.062 55.3632C907.886 57.0912 911.886 60.2912 914.062 64.9632C916.238 69.5712 917.326 76.7392 917.326 86.4672C917.326 96.1952 916.238 103.395 914.062 108.067C911.886 112.675 907.886 115.843 902.062 117.571C896.302 119.299 887.31 120.163 875.086 120.163ZM875.086 110.947C880.718 110.947 886.094 110.787 891.214 110.467C896.334 110.083 901.326 109.475 906.19 108.643V64.2912C901.326 63.3952 896.334 62.7872 891.214 62.4672C886.158 62.0832 880.782 61.8912 875.086 61.8912C869.39 61.8912 863.982 62.0832 858.862 62.4672C853.806 62.7872 848.846 63.3952 843.982 64.2912V108.643C848.846 109.475 853.838 110.083 858.958 110.467C864.078 110.787 869.454 110.947 875.086 110.947Z" fill="#EBEBEB"/>
<path d="M965.599 119.107V53.8272H983.167L1010.53 96.6432H1010.72L1038.27 53.8272H1055.55V119.107H1045.47V59.6832H1045.28L1016.67 103.939H1004.19L975.871 59.6832H975.679V119.107H965.599Z" fill="#EBEBEB"/>
<path d="M155.09 249.813V184.533H165.17V249.813H155.09ZM159.218 221.205V212.277H225.65V221.205H159.218ZM221.906 249.813V184.533H231.986V249.813H221.906Z" fill="#EBEBEB"/>
<path d="M327.96 250.869C315.736 250.869 306.712 250.005 300.888 248.277C295.128 246.549 291.16 243.381 288.984 238.773C286.808 234.101 285.72 226.901 285.72 217.173C285.72 207.445 286.808 200.277 288.984 195.669C291.16 190.997 295.128 187.797 300.888 186.069C306.712 184.341 315.736 183.477 327.96 183.477C340.184 183.477 349.176 184.341 354.936 186.069C360.76 187.797 364.76 190.997 366.936 195.669C369.112 200.277 370.2 207.445 370.2 217.173C370.2 226.901 369.112 234.101 366.936 238.773C364.76 243.381 360.76 246.549 354.936 248.277C349.176 250.005 340.184 250.869 327.96 250.869ZM327.96 241.653C333.592 241.653 338.968 241.493 344.088 241.173C349.208 240.789 354.2 240.181 359.064 239.349V194.997C354.2 194.101 349.208 193.493 344.088 193.173C339.032 192.789 333.656 192.597 327.96 192.597C322.264 192.597 316.856 192.789 311.736 193.173C306.68 193.493 301.72 194.101 296.856 194.997V239.349C301.72 240.181 306.712 240.789 311.832 241.173C316.952 241.493 322.328 241.653 327.96 241.653Z" fill="#EBEBEB"/>
<path d="M434.893 249.813V184.533H504.205V193.365H444.973V212.373H489.325V221.109H444.973V240.885H504.781V249.813H434.893Z" fill="#EBEBEB"/>
<path d="M693.824 249.813V184.533H773.504V249.813H751.424V202.773H715.904V249.813H693.824Z" fill="#EBEBEB"/>
<path d="M837.666 249.813V184.533H890.946C897.346 184.533 902.594 185.429 906.69 187.221C910.786 188.949 913.826 191.573 915.81 195.093C917.794 198.549 918.786 202.869 918.786 208.053C918.786 213.237 917.794 217.589 915.81 221.109C913.826 224.565 910.786 227.189 906.69 228.981C902.594 230.709 897.346 231.573 890.946 231.573H859.746V249.813H837.666ZM859.746 214.773H895.554V201.333H859.746V214.773Z" fill="#EBEBEB"/>
<path d="M1012.1 251.445C1000.71 251.445 991.687 250.325 985.031 248.085C978.375 245.845 973.543 242.261 970.535 237.333C967.527 232.405 966.023 225.685 966.023 217.173C966.023 208.661 967.527 201.941 970.535 197.013C973.543 192.085 978.375 188.501 985.031 186.261C991.687 184.021 1000.71 182.901 1012.1 182.901C1023.49 182.901 1032.52 184.021 1039.17 186.261C1045.83 188.501 1050.66 192.085 1053.67 197.013C1056.68 201.941 1058.18 208.661 1058.18 217.173C1058.18 225.685 1056.68 232.405 1053.67 237.333C1050.66 242.261 1045.83 245.845 1039.17 248.085C1032.52 250.325 1023.49 251.445 1012.1 251.445ZM1012.1 232.245C1015.88 232.245 1019.56 232.245 1023.14 232.245C1026.73 232.245 1030.34 232.245 1033.99 232.245V202.101C1030.34 202.101 1026.73 202.101 1023.14 202.101C1019.56 202.101 1015.88 202.101 1012.1 202.101C1008.33 202.101 1004.65 202.101 1001.06 202.101C997.479 202.101 993.863 202.101 990.215 202.101V232.245C993.863 232.245 997.479 232.245 1001.06 232.245C1004.65 232.245 1008.33 232.245 1012.1 232.245Z" fill="#EBEBEB"/>
<path d="M329.016 520.082C317.624 520.082 308.6 518.962 301.944 516.722C295.288 514.482 290.456 510.898 287.448 505.97C284.44 501.042 282.936 494.322 282.936 485.81C282.936 477.298 284.44 470.578 287.448 465.65C290.456 460.722 295.288 457.138 301.944 454.898C308.6 452.658 317.624 451.538 329.016 451.538C340.408 451.538 349.432 452.658 356.088 454.898C362.744 457.138 367.576 460.722 370.584 465.65C373.592 470.578 375.096 477.298 375.096 485.81C375.096 494.322 373.592 501.042 370.584 505.97C367.576 510.898 362.744 514.482 356.088 516.722C349.432 518.962 340.408 520.082 329.016 520.082ZM329.016 500.882C332.792 500.882 336.472 500.882 340.056 500.882C343.64 500.882 347.256 500.882 350.904 500.882V470.738C347.256 470.738 343.64 470.738 340.056 470.738C336.472 470.738 332.792 470.738 329.016 470.738C325.24 470.738 321.56 470.738 317.976 470.738C314.392 470.738 310.776 470.738 307.128 470.738V500.882C310.776 500.882 314.392 500.882 317.976 500.882C321.56 500.882 325.24 500.882 329.016 500.882Z" fill="#EBEBEB"/>
<path d="M690.918 402.7V367.18H790.758V402.7H770.598V384.46H711.078V402.7H690.918ZM696.102 376.684C698.918 374.636 701.286 371.66 703.206 367.756C705.19 363.788 706.662 358.476 707.622 351.82L712.23 319.18H775.878V371.02H754.758V336.46H730.758L728.646 352.78C727.814 359.18 726.374 364.332 724.326 368.236C722.342 372.14 720.166 374.956 717.798 376.684H696.102Z" fill="#EBEBEB"/>
<path d="M875.51 386.092C865.91 386.092 858.294 384.972 852.662 382.732C847.03 380.428 842.934 376.812 840.374 371.884C837.878 366.892 836.63 360.204 836.63 351.82C836.63 343.436 837.878 336.78 840.374 331.852C842.934 326.86 847.03 323.244 852.662 321.004C858.294 318.7 865.91 317.548 875.51 317.548C881.206 317.548 887.606 317.708 894.71 318.028C901.814 318.284 908.502 318.668 914.774 319.18L915.446 338.572C902.774 337.036 891.638 335.916 882.038 335.212C875.83 334.764 868.758 334.38 860.822 334.06V369.58C869.27 369.26 876.342 368.876 882.038 368.428C893.878 367.532 905.174 366.412 915.926 365.068L915.254 384.46C909.238 384.972 902.582 385.356 895.286 385.612C888.054 385.932 881.462 386.092 875.51 386.092Z" fill="#EBEBEB"/>
<path d="M1001.79 384.46V337.42H970.595V319.18H1055.07V337.42H1023.87V384.46H1001.79Z" fill="#EBEBEB"/>
<path d="M157.206 518.45V453.17H212.31C218.454 453.17 223.542 453.81 227.574 455.09C231.606 456.37 234.582 458.322 236.502 460.946C238.486 463.506 239.478 466.834 239.478 470.93C239.478 474.578 238.582 477.618 236.79 480.05C234.998 482.418 232.118 484.21 228.15 485.426C224.246 486.642 219.062 487.25 212.598 487.25L214.518 484.274C221.174 484.274 226.486 484.85 230.454 486.002C234.486 487.154 237.398 488.914 239.19 491.282C240.982 493.586 241.878 496.626 241.878 500.402C241.878 504.562 240.886 507.986 238.902 510.674C236.982 513.298 234.07 515.25 230.166 516.53C226.326 517.81 221.43 518.45 215.478 518.45H157.206ZM178.806 501.65H219.318V492.338H168.534V478.898H216.918V469.97H178.806V501.65Z" fill="#EBEBEB"/>
<path d="M642.272 518.45H569.504V498.866H595.52V481.394H575.936V462.77H595.52V453.17H618.944V498.866H642.272V518.45ZM572.768 501.938V515.378H639.008V501.938H615.68V456.242H598.784V465.842H579.2V478.322H598.784V501.938H572.768Z" fill="#EBEBEB"/>
<path d="M603.892 655.386C594.1 655.386 586.196 654.714 580.18 653.37C574.228 652.026 569.844 649.882 567.028 646.938C564.212 643.994 562.804 640.122 562.804 635.322C562.804 628.538 565.908 623.578 572.116 620.442C567.444 617.37 565.108 612.858 565.108 606.906C565.108 602.17 566.452 598.33 569.14 595.386C571.828 592.442 575.988 590.298 581.62 588.954C587.316 587.546 594.74 586.842 603.892 586.842C613.044 586.842 620.436 587.546 626.068 588.954C631.764 590.298 635.956 592.442 638.644 595.386C641.332 598.33 642.676 602.17 642.676 606.906C642.676 612.858 640.34 617.37 635.668 620.442C641.876 623.578 644.98 628.538 644.98 635.322C644.98 640.122 643.572 643.994 640.756 646.938C637.94 649.882 633.524 652.026 627.508 653.37C621.556 654.714 613.684 655.386 603.892 655.386ZM603.892 652.314C613.108 652.314 620.468 651.738 625.972 650.586C631.476 649.434 635.476 647.642 637.972 645.21C640.468 642.714 641.716 639.418 641.716 635.322C641.716 632.058 640.884 629.37 639.22 627.258C637.556 625.082 634.932 623.354 631.348 622.074V619.29C634.1 618.01 636.116 616.378 637.396 614.394C638.74 612.41 639.412 609.914 639.412 606.906C639.412 602.81 638.228 599.546 635.86 597.114C633.492 594.618 629.716 592.794 624.532 591.642C619.348 590.49 612.468 589.914 603.892 589.914C595.316 589.914 588.436 590.49 583.252 591.642C578.068 592.794 574.292 594.618 571.924 597.114C569.556 599.546 568.372 602.81 568.372 606.906C568.372 609.85 569.012 612.346 570.292 614.394C571.572 616.378 573.556 618.01 576.244 619.29V622.074C572.724 623.354 570.132 625.082 568.468 627.258C566.868 629.37 566.068 632.058 566.068 635.322C566.068 639.418 567.316 642.714 569.812 645.21C572.308 647.642 576.308 649.434 581.812 650.586C587.316 651.738 594.676 652.314 603.892 652.314ZM620.5 616.218H587.284V603.354H620.5V616.218ZM590.548 606.426V613.146H617.236V606.426H590.548ZM622.804 638.874H584.98V626.01H622.804V638.874ZM588.244 629.082V635.802H619.54V629.082H588.244Z" fill="#EBEBEB"/>
<path d="M610.759 789.937C602.375 789.937 594.407 789.745 586.855 789.361C579.367 788.977 572.679 788.433 566.791 787.729L566.119 770.257C578.407 771.921 588.455 773.009 596.263 773.521C603.047 773.969 611.879 774.353 622.759 774.673V764.113L587.911 761.425C582.663 760.977 578.343 759.985 574.951 758.449C571.623 756.913 569.127 754.769 567.463 752.017C565.863 749.265 565.063 745.873 565.063 741.841C565.063 737.169 566.183 733.361 568.423 730.417C570.663 727.409 574.087 725.201 578.695 723.793C583.303 722.321 589.255 721.585 596.551 721.585C602.567 721.585 608.775 721.745 615.175 722.065C621.639 722.321 629.543 722.833 638.887 723.601L639.463 741.073C627.111 739.409 615.879 738.257 605.767 737.617C598.983 737.169 592.295 736.913 585.703 736.849V747.121L618.727 749.713C624.423 750.161 629.063 751.153 632.647 752.689C636.295 754.161 638.983 756.305 640.711 759.121C642.503 761.873 643.399 765.393 643.399 769.681C643.399 774.225 642.311 778.001 640.135 781.009C638.023 783.953 634.567 786.193 629.767 787.729C625.031 789.201 618.695 789.937 610.759 789.937ZM600.295 800.785V785.521H609.703V800.785H600.295ZM600.295 725.041V711.121H609.703V725.041H600.295Z" fill="#EBEBEB"/>
<path d="M696.825 498.674C696.825 492.53 698.777 487.826 702.681 484.562C706.649 481.234 712.601 479.218 720.537 478.514L747.513 476.306V470.45C739.257 470.706 731.641 471.122 724.665 471.698C721.913 471.89 718.969 472.21 715.833 472.658C712.697 473.106 708.057 473.842 701.913 474.866L702.585 453.65C715.065 452.242 727.609 451.538 740.217 451.538C751.225 451.538 759.385 453.266 764.697 456.722C770.073 460.114 772.761 465.362 772.761 472.466C772.761 484.754 764.857 491.506 749.049 492.722L722.073 494.834V498.866H770.169V518.45H696.825V498.674ZM700.089 515.378H766.905V501.938H718.809V491.954L748.857 489.65C755.897 489.138 761.081 487.474 764.409 484.658C767.801 481.842 769.497 477.778 769.497 472.466C769.497 466.322 767.129 461.81 762.393 458.93C757.721 456.05 750.329 454.61 740.217 454.61C728.953 454.61 717.497 455.186 705.849 456.338L705.369 471.122C713.113 469.842 719.481 469.01 724.473 468.626C733.625 467.986 742.393 467.506 750.777 467.186V479.186L720.729 481.586C713.689 482.162 708.473 483.858 705.081 486.674C701.753 489.426 700.089 493.426 700.089 498.674V515.378Z" fill="#EBEBEB"/>
<path d="M706.657 653.754V634.65H754.657V630.81H729.697C719.969 630.81 712.897 629.114 708.481 625.722C704.129 622.33 701.953 616.858 701.953 609.306C701.953 603.674 703.169 599.258 705.601 596.058C708.097 592.794 712.097 590.458 717.601 589.05C723.105 587.578 730.657 586.842 740.257 586.842C749.857 586.842 757.409 587.578 762.913 589.05C768.417 590.458 772.385 592.794 774.817 596.058C777.313 599.258 778.561 603.674 778.561 609.306V629.754C778.561 637.69 776.353 643.674 771.937 647.706C767.521 651.738 760.929 653.754 752.161 653.754H706.657ZM752.161 650.682C759.969 650.682 765.761 648.986 769.537 645.594C773.377 642.138 775.297 636.858 775.297 629.754V609.306C775.297 604.314 774.209 600.442 772.033 597.69C769.921 594.938 766.369 592.954 761.377 591.738C756.385 590.522 749.345 589.914 740.257 589.914C731.169 589.914 724.129 590.522 719.137 591.738C714.145 592.954 710.561 594.938 708.385 597.69C706.273 600.442 705.217 604.314 705.217 609.306C705.217 613.786 706.017 617.37 707.617 620.058C709.281 622.746 711.873 624.698 715.393 625.914C718.977 627.13 723.745 627.738 729.697 627.738H757.921V637.722H709.921V650.682H752.161ZM757.921 618.042H723.553V603.834H757.921V618.042ZM726.817 606.906V614.97H754.657V606.906H726.817Z" fill="#EBEBEB"/>
<path d="M770.947 790.897C766.211 790.897 762.275 790.321 759.139 789.169C756.003 788.017 753.571 786.033 751.843 783.217C750.115 780.337 749.251 776.433 749.251 771.505C749.251 766.577 750.115 762.673 751.843 759.793C753.571 756.913 756.003 754.897 759.139 753.745C762.275 752.529 766.211 751.921 770.947 751.921C775.619 751.921 779.523 752.529 782.659 753.745C785.859 754.897 788.291 756.913 789.955 759.793C791.683 762.673 792.547 766.577 792.547 771.505C792.547 776.433 791.683 780.305 789.955 783.121C788.291 785.937 785.859 787.921 782.659 789.073C779.523 790.289 775.619 790.897 770.947 790.897ZM770.947 778.993C772.163 778.993 773.475 778.993 774.883 778.993C776.291 778.929 777.731 778.865 779.203 778.801V764.017C777.731 763.953 776.291 763.921 774.883 763.921C773.475 763.857 772.163 763.825 770.947 763.825C769.731 763.825 768.419 763.857 767.011 763.921C765.603 763.921 764.131 763.953 762.595 764.017V778.801C764.131 778.865 765.603 778.929 767.011 778.993C768.419 778.993 769.731 778.993 770.947 778.993ZM709.507 759.505C704.771 759.505 700.835 758.929 697.699 757.777C694.563 756.625 692.131 754.641 690.403 751.825C688.675 748.945 687.811 745.041 687.811 740.113C687.811 735.185 688.675 731.281 690.403 728.401C692.131 725.521 694.563 723.505 697.699 722.353C700.835 721.137 704.771 720.529 709.507 720.529C714.179 720.529 718.083 721.137 721.219 722.353C724.419 723.505 726.851 725.521 728.515 728.401C730.243 731.281 731.107 735.185 731.107 740.113C731.107 745.041 730.243 748.913 728.515 751.729C726.851 754.545 724.419 756.561 721.219 757.777C718.083 758.929 714.179 759.505 709.507 759.505ZM709.507 747.601C710.723 747.601 712.035 747.601 713.443 747.601C714.851 747.537 716.291 747.473 717.763 747.409V732.625C716.291 732.561 714.851 732.529 713.443 732.529C712.035 732.465 710.723 732.433 709.507 732.433C708.291 732.433 706.979 732.465 705.571 732.529C704.163 732.529 702.691 732.561 701.155 732.625V747.409C702.691 747.473 704.163 747.537 705.571 747.601C706.979 747.601 708.291 747.601 709.507 747.601ZM714.307 788.401V787.921L752.707 723.121H766.051V723.601L727.651 788.401H714.307Z" fill="#EBEBEB"/>
<path d="M873.09 520.082C859.266 520.082 845.634 519.378 832.194 517.97L831.33 497.618C839.394 498.834 848.066 499.794 857.346 500.498C865.154 501.138 873.186 501.554 881.442 501.746V493.682H849.474V477.746H879.618V469.874C871.618 470.066 864.002 470.45 856.77 471.026C848.386 471.666 840.546 472.498 833.25 473.522L833.922 453.554C842.69 452.85 850.082 452.338 856.098 452.018C862.178 451.698 868.13 451.538 873.954 451.538C884.514 451.538 892.226 453.042 897.09 456.05C901.954 458.994 904.386 463.73 904.386 470.258C904.386 477.234 901.73 482.226 896.418 485.234C903.01 487.922 906.306 493.01 906.306 500.498C906.306 507.346 903.65 512.338 898.338 515.474C893.026 518.546 884.61 520.082 873.09 520.082ZM873.09 517.01C880.322 517.01 886.114 516.466 890.466 515.378C894.818 514.226 897.986 512.466 899.97 510.098C902.018 507.666 903.042 504.466 903.042 500.498C903.042 496.594 902.05 493.554 900.066 491.378C898.082 489.138 894.946 487.57 890.658 486.674V484.274C894.242 483.186 896.866 481.522 898.53 479.282C900.258 476.978 901.122 473.97 901.122 470.258C901.122 466.546 900.194 463.57 898.338 461.33C896.546 459.026 893.666 457.33 889.698 456.242C885.73 455.154 880.482 454.61 873.954 454.61C864.418 454.61 852.162 455.218 837.186 456.434L836.706 469.97C842.914 469.138 849.538 468.466 856.578 467.954C865.922 467.25 874.69 466.866 882.882 466.802V480.818H852.738V490.61H884.706V504.818C874.914 504.754 865.73 504.338 857.154 503.57C849.474 502.93 842.018 502.162 834.786 501.266L835.266 515.186C847.874 516.402 860.482 517.01 873.09 517.01Z" fill="#EBEBEB"/>
<path d="M876.293 655.386C866.757 655.386 858.949 654.202 852.869 651.834C846.853 649.402 842.405 645.69 839.525 640.698C836.645 635.642 835.205 629.114 835.205 621.114C835.205 613.114 836.645 606.618 839.525 601.626C842.405 596.57 846.853 592.858 852.869 590.49C858.949 588.058 866.757 586.842 876.293 586.842C885.829 586.842 893.605 588.058 899.621 590.49C905.701 592.858 910.181 596.57 913.061 601.626C915.941 606.618 917.381 613.114 917.381 621.114C917.381 629.114 915.941 635.642 913.061 640.698C910.181 645.69 905.701 649.402 899.621 651.834C893.605 654.202 885.829 655.386 876.293 655.386ZM876.293 652.314C885.317 652.314 892.581 651.258 898.085 649.146C903.589 646.97 907.621 643.61 910.181 639.066C912.805 634.522 914.117 628.538 914.117 621.114C914.117 613.69 912.805 607.706 910.181 603.162C907.621 598.618 903.589 595.29 898.085 593.178C892.581 591.002 885.317 589.914 876.293 589.914C867.269 589.914 860.005 591.002 854.501 593.178C848.997 595.29 844.933 598.618 842.309 603.162C839.749 607.706 838.469 613.69 838.469 621.114C838.469 628.538 839.749 634.522 842.309 639.066C844.933 643.61 848.997 646.97 854.501 649.146C860.005 651.258 867.269 652.314 876.293 652.314ZM893.285 604.218L856.517 633.69V604.218H893.285ZM859.781 607.29V626.97L884.453 607.29H859.781ZM896.069 638.01H859.301L896.069 608.538V638.01ZM892.805 615.258L868.133 634.938H892.805V615.258Z" fill="#EBEBEB"/>
<path d="M872.72 756.049L873.104 743.761L860.048 750.673L856.208 743.377L869.552 736.945L856.208 730.417L860.048 723.121L873.104 730.129L872.72 717.745H881.456L881.072 730.129L894.128 723.121L897.968 730.417L884.624 736.945L897.968 743.377L894.128 750.673L881.072 743.761L881.456 756.049H872.72Z" fill="#EBEBEB"/>
<path d="M986.358 800.326V799.846L1023.7 709.606H1040.21V710.086L1002.97 800.326H986.358Z" fill="#EBEBEB"/>
<path d="M1002.38 651.78V644.292H1014.96V635.364H1002.38V622.212H1023.89V641.988C1023.89 645.252 1022.93 647.684 1021.01 649.284C1019.15 650.948 1016.4 651.78 1012.75 651.78H1002.38Z" fill="#EBEBEB"/>
<path d="M1041.17 468.242V486.098H1054.9V505.682H1041.17V518.45H1018.71V505.682H972.626V487.154L999.89 453.17H1025.04V455.666L1000.08 486.098H1018.71V468.242H1041.17ZM1037.91 502.61H1051.63V489.17H1037.91V471.314H1021.97V489.17H995.666V486.578L1020.53 456.242H1001.43L975.89 488.114V502.61H1021.97V515.378H1037.91V502.61Z" fill="#EBEBEB"/>
<path d="M195.915 655.386C183.499 655.386 169.995 654.714 155.403 653.37L154.731 631.962C163.627 633.498 171.051 634.522 177.003 635.034C184.043 635.674 192.907 636.186 203.595 636.57V628.986L157.515 627.642V588.474H224.715V607.578H180.459V611.994L205.035 612.858C212.843 613.178 218.763 615.098 222.795 618.618C226.827 622.074 228.843 627.034 228.843 633.498C228.843 641.05 226.187 646.586 220.875 650.106C215.627 653.626 207.307 655.386 195.915 655.386ZM195.915 652.314C203.019 652.314 208.715 651.674 213.003 650.394C217.355 649.05 220.523 647.034 222.507 644.346C224.555 641.594 225.579 637.978 225.579 633.498C225.579 627.866 223.851 623.61 220.395 620.73C217.003 617.85 211.819 616.25 204.843 615.93L177.195 614.874V604.506H221.451V591.546H160.779V624.57L206.859 625.914V639.642C195.915 639.45 185.899 638.938 176.811 638.106C170.155 637.466 163.947 636.666 158.187 635.706L158.667 650.49C172.683 651.706 185.099 652.314 195.915 652.314Z" fill="#EBEBEB"/>
<path d="M187.243 788.401V775.249H206.923V788.401H187.243ZM190.987 766.609L187.915 746.641V719.281H206.251V746.641L203.179 766.609H190.987Z" fill="#EBEBEB"/>
<path d="M328.257 655.386C318.657 655.386 311.105 654.682 305.601 653.274C300.097 651.802 296.097 649.466 293.601 646.266C291.169 643.002 289.953 638.554 289.953 632.922V612.474C289.953 604.538 292.161 598.554 296.577 594.522C300.993 590.49 307.585 588.474 316.353 588.474H361.857V607.578H313.857V611.418H338.817C348.545 611.418 355.585 613.114 359.937 616.506C364.353 619.898 366.561 625.37 366.561 632.922C366.561 638.554 365.313 643.002 362.818 646.266C360.385 649.466 356.417 651.802 350.913 653.274C345.409 654.682 337.857 655.386 328.257 655.386ZM328.257 652.314C337.345 652.314 344.385 651.706 349.377 650.49C354.369 649.274 357.921 647.29 360.033 644.538C362.209 641.786 363.298 637.914 363.298 632.922C363.298 628.442 362.465 624.858 360.801 622.17C359.201 619.482 356.609 617.53 353.025 616.314C349.505 615.098 344.769 614.49 338.817 614.49H310.593V604.506H358.593V591.546H316.353C308.545 591.546 302.721 593.274 298.881 596.73C295.105 600.122 293.217 605.37 293.217 612.474V632.922C293.217 637.914 294.273 641.786 296.385 644.538C298.561 647.29 302.145 649.274 307.137 650.49C312.129 651.706 319.169 652.314 328.257 652.314ZM344.961 638.394H310.593V624.186H344.961V638.394ZM313.857 627.258V635.322H341.697V627.258H313.857Z" fill="#EBEBEB"/>
<path d="M333.048 797.638C322.36 797.638 313.528 796.134 306.552 793.126C299.576 790.182 294.36 785.734 290.904 779.782C287.512 773.83 285.816 766.278 285.816 757.126C285.816 747.654 287.576 739.782 291.096 733.51C294.68 727.238 300.024 722.534 307.128 719.398C314.296 716.262 323.224 714.694 333.912 714.694C344.024 714.694 352.504 716.038 359.352 718.726C366.264 721.414 371.416 725.35 374.808 730.534C378.264 735.654 379.992 741.862 379.992 749.158C379.992 757.542 377.912 764.006 373.752 768.55C369.592 773.03 363.832 775.27 356.472 775.27H347.16L340.056 768.07L342.648 747.622H322.68L320.664 763.942C322.2 763.942 323.768 763.91 325.368 763.846C327.032 763.782 328.632 763.654 330.168 763.462C330.872 763.398 331.544 763.334 332.184 763.27C332.888 763.206 333.592 763.11 334.296 762.982C336.984 762.598 339.704 762.118 342.456 761.542C345.272 760.902 347.896 760.23 350.328 759.526L349.656 769.894C346.392 771.302 342.136 772.55 336.888 773.638C331.64 774.726 326.904 775.27 322.68 775.27C317.368 775.27 313.464 774.054 310.968 771.622C308.536 769.126 307.32 765.286 307.32 760.102C307.32 758.438 307.416 756.646 307.608 754.726C308.056 750.246 309.112 746.694 310.776 744.07C312.504 741.382 314.904 739.43 317.976 738.214C321.112 736.998 325.112 736.39 329.976 736.39H357.144L353.592 764.998H356.568C360.792 764.998 363.896 763.814 365.88 761.446C367.864 759.014 368.856 755.078 368.856 749.638C368.856 743.878 367.672 739.206 365.304 735.622C363 731.974 359.288 729.286 354.168 727.558C349.048 725.83 342.296 724.966 333.912 724.966C325.336 724.966 318.328 726.118 312.888 728.422C307.448 730.662 303.416 734.15 300.792 738.886C298.232 743.558 296.952 749.638 296.952 757.126C296.952 764.358 298.168 770.182 300.6 774.598C303.032 778.95 306.84 782.15 312.024 784.198C317.272 786.31 324.216 787.366 332.856 787.366C337.144 787.366 341.176 787.11 344.952 786.598C348.792 786.15 352.376 785.478 355.704 784.582H355.992L355.32 795.238C351.8 796.07 348.152 796.678 344.376 797.062C340.6 797.446 336.824 797.638 333.048 797.638Z" fill="#EBEBEB"/>
<path d="M464.369 653.754H437.777V651.258L472.049 608.922H427.025V588.474H499.697V607.866L464.369 653.754ZM476.465 608.442L442.289 650.682H462.641L496.433 606.906V591.546H430.289V605.85H476.465V608.442Z" fill="#EBEBEB"/>
<path d="M435.373 788.401V787.921L457.453 721.585H469.357V722.065L447.373 788.401H435.373ZM427.789 772.657V761.329H502.669V772.657H427.789ZM467.341 788.401V787.921L489.325 721.585H501.325V722.065L479.245 788.401H467.341ZM434.029 748.657V737.233H508.909V748.657H434.029Z" fill="#EBEBEB"/>
<path d="M604.221 386.092C592.829 386.092 583.805 384.972 577.149 382.732C570.493 380.492 565.661 376.908 562.653 371.98C559.645 367.052 558.141 360.332 558.141 351.82C558.141 343.308 559.645 336.588 562.653 331.66C565.661 326.732 570.493 323.148 577.149 320.908C583.805 318.668 592.829 317.548 604.221 317.548C615.613 317.548 624.637 318.668 631.293 320.908C637.949 323.148 642.781 326.732 645.789 331.66C648.797 336.588 650.301 343.308 650.301 351.82C650.301 360.332 648.797 367.052 645.789 371.98C642.781 376.908 637.949 380.492 631.293 382.732C624.637 384.972 615.613 386.092 604.221 386.092ZM604.221 366.892C607.997 366.892 611.677 366.892 615.261 366.892C618.845 366.892 622.461 366.892 626.109 366.892V336.748C622.461 336.748 618.845 336.748 615.261 336.748C611.677 336.748 607.997 336.748 604.221 336.748C600.445 336.748 596.765 336.748 593.181 336.748C589.597 336.748 585.981 336.748 582.333 336.748V366.892C585.981 366.892 589.597 366.892 593.181 366.892C596.765 366.892 600.445 366.892 604.221 366.892Z" fill="#EBEBEB"/>
<path d="M155.893 384.46V319.18H177.493V369.1H178.165L204.757 319.18H238.453V384.46H216.853V334.54H216.181L189.589 384.46H155.893Z" fill="#EBEBEB"/>
<path d="M336.033 386.092C321.057 386.092 305.409 385.292 289.089 383.692L288.417 365.74C299.361 367.148 308.993 368.172 317.313 368.812C326.337 369.452 336.065 369.9 346.497 370.156V358.444H307.233V345.004H344.577V333.484C334.081 333.804 325.121 334.22 317.697 334.732C306.945 335.564 297.825 336.46 290.337 337.42L291.009 319.948C309.633 318.348 324.961 317.548 336.993 317.548C344.097 317.548 349.857 318.188 354.273 319.468C358.689 320.684 361.921 322.604 363.969 325.228C366.081 327.852 367.137 331.276 367.137 335.5C367.137 341.772 364.929 346.348 360.513 349.228C356.161 352.108 349.41 353.548 340.257 353.548L342.369 350.188C351.777 350.188 358.561 351.532 362.721 354.22C366.945 356.908 369.058 361.228 369.058 367.18C369.058 371.596 367.938 375.18 365.697 377.932C363.458 380.684 359.906 382.732 355.041 384.076C350.241 385.42 343.905 386.092 336.033 386.092Z" fill="#EBEBEB"/>
<path d="M429.128 384.46V319.18H484.232C490.376 319.18 495.464 319.82 499.496 321.1C503.528 322.38 506.504 324.332 508.424 326.956C510.408 329.516 511.4 332.844 511.4 336.94C511.4 340.588 510.504 343.628 508.712 346.06C506.92 348.428 504.04 350.22 500.072 351.436C496.168 352.652 490.984 353.26 484.52 353.26L486.44 350.284C493.096 350.284 498.408 350.86 502.376 352.012C506.408 353.164 509.32 354.924 511.112 357.292C512.904 359.596 513.8 362.636 513.8 366.412C513.8 370.572 512.808 373.996 510.824 376.684C508.904 379.308 505.992 381.26 502.088 382.54C498.248 383.82 493.352 384.46 487.4 384.46H429.128ZM450.728 367.66H491.24V358.348H440.456V344.908H488.84V335.98H450.728V367.66Z" fill="#EBEBEB"/>
<path d="M268.014 6.28442V33.0066M281.364 19.4111H254.188" stroke="#FFBB0E" stroke-linejoin="round"/>
<path d="M404.001 6.28442V33.0066M417.351 19.4111H390.174" stroke="#FFBB0E" stroke-linejoin="round"/>
<path d="M539.988 6.28442V33.0066M553.338 19.4111H526.161" stroke="#FFBB0E" stroke-linejoin="round"/>
<path d="M675.975 6.28442V33.0066M689.325 19.4111H662.148" stroke="#FFBB0E" stroke-linejoin="round"/>
<path d="M811.962 6.28442V33.0066M825.312 19.4111H798.135" stroke="#FFBB0E" stroke-linejoin="round"/>
<path d="M947.949 6.28442V33.0066M961.299 19.4111H934.122" stroke="#FFBB0E" stroke-linejoin="round"/>
<path d="M268.014 140.622V167.344M281.364 153.749H254.188" stroke="#FFBB0E" stroke-linejoin="round"/>
<path d="M404.001 140.622V167.344M417.351 153.749H390.174" stroke="#FFBB0E" stroke-linejoin="round"/>
<path d="M539.988 140.622V167.344M553.338 153.749H526.161" stroke="#FFBB0E" stroke-linejoin="round"/>
<path d="M675.975 140.622V167.344M689.325 153.749H662.148" stroke="#FFBB0E" stroke-linejoin="round"/>
<path d="M811.962 140.622V167.344M825.312 153.749H798.135" stroke="#FFBB0E" stroke-linejoin="round"/>
<path d="M947.949 140.622V167.344M961.299 153.749H934.122" stroke="#FFBB0E" stroke-linejoin="round"/>
<path d="M268.014 274.959V301.681M281.364 288.086H254.188" stroke="#FFBB0E" stroke-linejoin="round"/>
<path d="M404.001 274.959V301.681M417.351 288.086H390.174" stroke="#FFBB0E" stroke-linejoin="round"/>
<path d="M539.988 274.959V301.681M553.338 288.086H526.161" stroke="#FFBB0E" stroke-linejoin="round"/>
<path d="M675.975 274.96V301.682M689.325 288.086H662.148" stroke="#FFBB0E" stroke-linejoin="round"/>
<path d="M811.962 274.959V301.681M825.312 288.086H798.135" stroke="#FFBB0E" stroke-linejoin="round"/>
<path d="M947.949 274.96V301.682M961.299 288.086H934.122" stroke="#FFBB0E" stroke-linejoin="round"/>
<path d="M268.014 409.297V436.019M281.364 422.424H254.188" stroke="#FFBB0E" stroke-linejoin="round"/>
<path d="M404.001 409.297V436.019M417.351 422.424H390.174" stroke="#FFBB0E" stroke-linejoin="round"/>
<path d="M539.988 409.297V436.019M553.338 422.424H526.161" stroke="#FFBB0E" stroke-linejoin="round"/>
<path d="M675.975 409.297V436.019M689.325 422.424H662.148" stroke="#FFBB0E" stroke-linejoin="round"/>
<path d="M811.962 409.297V436.019M825.312 422.424H798.135" stroke="#FFBB0E" stroke-linejoin="round"/>
<path d="M947.949 409.297V436.019M961.299 422.424H934.122" stroke="#FFBB0E" stroke-linejoin="round"/>
<path d="M268.014 543.635V570.357M281.364 556.761H254.188" stroke="#FFBB0E" stroke-linejoin="round"/>
<path d="M404.001 543.635V570.357M417.351 556.761H390.174" stroke="#FFBB0E" stroke-linejoin="round"/>
<path d="M539.988 543.635V570.357M553.338 556.761H526.161" stroke="#FFBB0E" stroke-linejoin="round"/>
<path d="M675.975 543.635V570.357M689.325 556.761H662.148" stroke="#FFBB0E" stroke-linejoin="round"/>
<path d="M811.962 543.635V570.357M825.312 556.761H798.135" stroke="#FFBB0E" stroke-linejoin="round"/>
<path d="M947.949 543.635V570.357M961.299 556.761H934.122" stroke="#FFBB0E" stroke-linejoin="round"/>
<path d="M268.014 677.972V704.694M281.364 691.099H254.188" stroke="#FFBB0E" stroke-linejoin="round"/>
<path d="M404.001 677.972V704.694M417.351 691.099H390.174" stroke="#FFBB0E" stroke-linejoin="round"/>
<path d="M539.988 677.972V704.694M553.338 691.099H526.161" stroke="#FFBB0E" stroke-linejoin="round"/>
<path d="M675.975 677.972V704.695M689.325 691.099H662.148" stroke="#FFBB0E" stroke-linejoin="round"/>
<path d="M811.962 677.972V704.694M825.312 691.099H798.135" stroke="#FFBB0E" stroke-linejoin="round"/>
<path d="M947.949 677.972V704.695M961.299 691.099H934.122" stroke="#FFBB0E" stroke-linejoin="round"/>
<path d="M268.014 812.31V839.032M281.364 825.437H254.188" stroke="#FFBB0E" stroke-linejoin="round"/>
<path d="M404.001 812.31V839.032M417.351 825.437H390.174" stroke="#FFBB0E" stroke-linejoin="round"/>
<path d="M539.988 812.31V839.032M553.338 825.437H526.161" stroke="#FFBB0E" stroke-linejoin="round"/>
<path d="M675.975 812.31V839.032M689.325 825.437H662.148" stroke="#FFBB0E" stroke-linejoin="round"/>
<path d="M811.962 812.31V839.032M825.312 825.437H798.135" stroke="#FFBB0E" stroke-linejoin="round"/>
<path d="M947.949 812.31V839.032M961.299 825.437H934.122" stroke="#FFBB0E" stroke-linejoin="round"/>
<path d="M46.0952 602.787V254.095L11.9497 219.95C7.54 215.54 0 218.663 0 224.9V631.982C0 638.219 7.54 641.342 11.9497 636.932L46.0952 602.787Z" fill="#4B4B4B"/>
<path d="M81 852L108.586 852" stroke="#4B4B4B" stroke-width="4" stroke-linecap="round"/>
<path d="M81 815.304L108.586 815.304" stroke="#4B4B4B" stroke-width="4" stroke-linecap="round"/>
<path d="M81.3284 778.609L108.258 778.609" stroke="#4B4B4B" stroke-width="4" stroke-linecap="round"/>
<path d="M81.3284 741.913L108.258 741.913" stroke="#4B4B4B" stroke-width="4" stroke-linecap="round"/>
<path d="M81.3284 705.218L108.258 705.218" stroke="#4B4B4B" stroke-width="4" stroke-linecap="round"/>
<path d="M81.3284 668.522L108.258 668.522" stroke="#4B4B4B" stroke-width="4" stroke-linecap="round"/>
<path d="M81 631.826L108.586 631.826" stroke="#4B4B4B" stroke-width="4" stroke-linecap="round"/>
<path d="M81.3284 595.131L108.258 595.131" stroke="#4B4B4B" stroke-width="4" stroke-linecap="round"/>
<path d="M81.3284 558.435L108.258 558.435" stroke="#4B4B4B" stroke-width="4" stroke-linecap="round"/>
<path d="M81.3284 521.74L108.258 521.739" stroke="#4B4B4B" stroke-width="4" stroke-linecap="round"/>
<path d="M81.3284 485.044L108.258 485.044" stroke="#4B4B4B" stroke-width="4" stroke-linecap="round"/>
<path d="M81.3284 448.348L108.258 448.348" stroke="#4B4B4B" stroke-width="4" stroke-linecap="round"/>
<path d="M81 411.653L108.586 411.653" stroke="#4B4B4B" stroke-width="4" stroke-linecap="round"/>
<path d="M81.3284 374.957L108.258 374.957" stroke="#4B4B4B" stroke-width="4" stroke-linecap="round"/>
<path d="M81.3284 338.261L108.258 338.261" stroke="#4B4B4B" stroke-width="4" stroke-linecap="round"/>
<path d="M81.3284 301.565L108.258 301.565" stroke="#4B4B4B" stroke-width="4" stroke-linecap="round"/>
<path d="M81.3284 264.87L108.258 264.87" stroke="#4B4B4B" stroke-width="4" stroke-linecap="round"/>
<path d="M81.3284 228.174L108.258 228.174" stroke="#4B4B4B" stroke-width="4" stroke-linecap="round"/>
<path d="M81 191.478L108.586 191.478" stroke="#4B4B4B" stroke-width="4" stroke-linecap="round"/>
<path d="M81.3284 154.783L108.258 154.783" stroke="#4B4B4B" stroke-width="4" stroke-linecap="round"/>
<path d="M81.3284 118.087L108.258 118.087" stroke="#4B4B4B" stroke-width="4" stroke-linecap="round"/>
<path d="M81.3284 81.3914L108.258 81.3914" stroke="#4B4B4B" stroke-width="4" stroke-linecap="round"/>
<path d="M81.3284 44.6956L108.258 44.6956" stroke="#4B4B4B" stroke-width="4" stroke-linecap="round"/>
<path d="M81.3284 8L108.258 8" stroke="#4B4B4B" stroke-width="4" stroke-linecap="round"/>
<path d="M59 849C59.0002 851.209 60.791 853 63 853C65.209 853 66.9997 851.209 67 849L67 207C67 204.791 65.2091 203 63 203C60.7909 203 59 204.791 59 207L59 849Z" fill="#4B4B4B"/>
<path d="M9.95837 659.674L63.1654 606.467L63.1654 853L3.99999 853C1.79085 853 -1.0698e-05 851.209 -1.06015e-05 849L2.55233e-07 683.716C8.42855e-07 674.698 3.58213 666.05 9.95837 659.674Z" fill="#4B4B4B"/>
<path d="M59 10C59.0002 7.79114 60.791 6.00024 63 6.00024C65.209 6.00024 66.9997 7.79114 67 10L67 652C67 654.209 65.2091 656 63 656C60.7909 656 59 654.209 59 652L59 10Z" fill="#4B4B4B"/>
<path d="M9.95837 199.326L63.1654 252.533L63.1654 6.00024L3.99999 6.00024C1.79085 6.00024 -1.0698e-05 7.79111 -1.06015e-05 10.0002L2.55233e-07 175.285C8.42855e-07 184.302 3.58213 192.95 9.95837 199.326Z" fill="#4B4B4B"/>
<path d="M1153.49 596.787V248.095L1187.64 213.95C1192.05 209.54 1199.59 212.663 1199.59 218.9V625.982C1199.59 632.219 1192.05 635.342 1187.64 630.932L1153.49 596.787Z" fill="#4B4B4B"/>
<path d="M1118.59 846L1091 846" stroke="#4B4B4B" stroke-width="4" stroke-linecap="round"/>
<path d="M1118.59 809.304L1091 809.304" stroke="#4B4B4B" stroke-width="4" stroke-linecap="round"/>
<path d="M1118.26 772.609L1091.33 772.609" stroke="#4B4B4B" stroke-width="4" stroke-linecap="round"/>
<path d="M1118.26 735.913L1091.33 735.913" stroke="#4B4B4B" stroke-width="4" stroke-linecap="round"/>
<path d="M1118.26 699.218L1091.33 699.218" stroke="#4B4B4B" stroke-width="4" stroke-linecap="round"/>
<path d="M1118.26 662.522L1091.33 662.522" stroke="#4B4B4B" stroke-width="4" stroke-linecap="round"/>
<path d="M1118.59 625.826L1091 625.826" stroke="#4B4B4B" stroke-width="4" stroke-linecap="round"/>
<path d="M1118.26 589.131L1091.33 589.131" stroke="#4B4B4B" stroke-width="4" stroke-linecap="round"/>
<path d="M1118.26 552.435L1091.33 552.435" stroke="#4B4B4B" stroke-width="4" stroke-linecap="round"/>
<path d="M1118.26 515.74L1091.33 515.739" stroke="#4B4B4B" stroke-width="4" stroke-linecap="round"/>
<path d="M1118.26 479.044L1091.33 479.044" stroke="#4B4B4B" stroke-width="4" stroke-linecap="round"/>
<path d="M1118.26 442.348L1091.33 442.348" stroke="#4B4B4B" stroke-width="4" stroke-linecap="round"/>
<path d="M1118.59 405.653L1091 405.653" stroke="#4B4B4B" stroke-width="4" stroke-linecap="round"/>
<path d="M1118.26 368.957L1091.33 368.957" stroke="#4B4B4B" stroke-width="4" stroke-linecap="round"/>
<path d="M1118.26 332.261L1091.33 332.261" stroke="#4B4B4B" stroke-width="4" stroke-linecap="round"/>
<path d="M1118.26 295.565L1091.33 295.565" stroke="#4B4B4B" stroke-width="4" stroke-linecap="round"/>
<path d="M1118.26 258.87L1091.33 258.87" stroke="#4B4B4B" stroke-width="4" stroke-linecap="round"/>
<path d="M1118.26 222.174L1091.33 222.174" stroke="#4B4B4B" stroke-width="4" stroke-linecap="round"/>
<path d="M1118.59 185.478L1091 185.478" stroke="#4B4B4B" stroke-width="4" stroke-linecap="round"/>
<path d="M1118.26 148.783L1091.33 148.783" stroke="#4B4B4B" stroke-width="4" stroke-linecap="round"/>
<path d="M1118.26 112.087L1091.33 112.087" stroke="#4B4B4B" stroke-width="4" stroke-linecap="round"/>
<path d="M1118.26 75.3914L1091.33 75.3914" stroke="#4B4B4B" stroke-width="4" stroke-linecap="round"/>
<path d="M1118.26 38.6956L1091.33 38.6956" stroke="#4B4B4B" stroke-width="4" stroke-linecap="round"/>
<path d="M1118.26 2L1091.33 2" stroke="#4B4B4B" stroke-width="4" stroke-linecap="round"/>
<path d="M1140.59 843C1140.59 845.209 1138.79 847 1136.59 847C1134.38 847 1132.59 845.209 1132.59 843L1132.59 201C1132.59 198.791 1134.38 197 1136.59 197C1138.8 197 1140.59 198.791 1140.59 201L1140.59 843Z" fill="#4B4B4B"/>
<path d="M1189.63 653.674L1136.42 600.467L1136.42 847L1195.59 847C1197.8 847 1199.59 845.209 1199.59 843L1199.59 677.716C1199.59 668.698 1196 660.05 1189.63 653.674Z" fill="#4B4B4B"/>
<path d="M1140.59 4C1140.59 1.79114 1138.79 0.000244062 1136.59 0.000243966C1134.38 0.000243869 1132.59 1.79114 1132.59 4L1132.59 646C1132.59 648.209 1134.38 650 1136.59 650C1138.8 650 1140.59 648.209 1140.59 646L1140.59 4Z" fill="#4B4B4B"/>
<path d="M1189.63 193.326L1136.42 246.533L1136.42 0.00024138L1195.59 0.000243966C1197.8 0.000244062 1199.59 1.79111 1199.59 4.00024L1199.59 169.285C1199.59 178.302 1196 186.95 1189.63 193.326Z" fill="#4B4B4B"/>
</svg>
